<?xml version="1.0" encoding="UTF-8"?>
<svg width="47px" height="46px" viewBox="0 0 47 46" version="1.1" xmlns="http://www.w3.org/2000/svg" xmlns:xlink="http://www.w3.org/1999/xlink">
    <!-- Generator: Sketch 55.1 (78136) - https://sketchapp.com -->
    <title>零售业_2</title>
    <desc>Created with Sketch.</desc>
    <g id="赤兔官网" stroke="none" stroke-width="1" fill="none" fill-rule="evenodd">
        <g id="3解决方案" transform="translate(-734.000000, -733.000000)" fill-rule="nonzero">
            <g id="零售业_2" transform="translate(727.000000, 726.000000)">
                <rect id="矩形" fill="#000000" opacity="0" x="0" y="0" width="60" height="60"></rect>
                <path d="M41.13,22.44 C40.47,22.44 39.93,21.9 39.93,21.24 L39.93,14.7 C39.93,14.37 40.08,14.04 40.32,13.8 L46.32,8.31 C46.8,7.86 47.58,7.89 48.03,8.4 C48.48,8.88 48.45,9.66 47.94,10.11 L42.33,15.24 L42.33,21.24 C42.33,21.9 41.79,22.44 41.13,22.44 L41.13,22.44 Z" id="路径" stroke="#98A3AD" fill="#98A3AD"></path>
                <path d="M39.12,51.99 L33.33,51.99 C30.6,51.99 30.27,49.26 30.12,48.12 C29.67,44.55 29.22,40.71 28.77,36.96 C28.32,33.18 27.87,29.31 27.42,25.71 C26.82,25.59 26.37,25.41 26.04,25.08 C25.47,24.51 25.44,23.82 25.41,22.95 L25.41,22.83 C25.38,21.99 25.59,21.33 26.04,20.88 C26.73,20.16 27.72,20.16 28.05,20.19 L49.98,20.19 C50.64,20.19 51.42,20.25 52.02,20.85 C52.44,21.27 52.68,21.87 52.68,22.65 C52.68,23.52 52.68,24.27 52.29,24.87 C51.9,25.47 51.27,25.68 50.7,25.77 C50.49,27.42 50.31,29.22 50.1,30.99 C49.89,32.97 49.65,35.04 49.44,36.84 C49.23,38.64 48.99,40.74 48.78,42.75 C48.54,45.03 48.27,47.37 48.03,49.41 C47.79,51.36 46.92,52.11 44.88,52.11 C42.99,51.96 41.07,51.99 39.12,51.99 L39.12,51.99 Z M27.81,23.31 C28.02,23.37 28.35,23.43 28.65,23.46 L29.43,23.61 L29.61,24.39 C29.61,24.45 29.64,24.51 29.64,24.54 C29.67,24.69 29.73,24.9 29.76,25.11 C30.21,28.8 30.69,32.79 31.14,36.66 C31.59,40.38 32.04,44.25 32.46,47.79 C32.67,49.56 32.97,49.56 33.3,49.56 L44.88,49.56 C45.27,49.56 45.45,49.53 45.54,49.53 C45.57,49.44 45.6,49.29 45.66,48.96 C45.9,46.95 46.17,44.61 46.41,42.36 C46.62,40.35 46.86,38.25 47.07,36.42 C47.28,34.65 47.52,32.58 47.73,30.6 C47.97,28.5 48.21,26.31 48.42,24.42 L48.54,23.49 L49.65,23.34 C49.77,23.31 49.89,23.31 49.98,23.31 C50.07,23.31 50.16,23.28 50.22,23.28 L50.22,22.53 L50.22,22.47 L27.75,22.47 L27.75,22.77 C27.81,22.98 27.81,23.16 27.81,23.31 L27.81,23.31 Z" id="形状" stroke="#98A3AD" fill="#98A3AD"></path>
                <path d="M26.13,35.58 L9.9,35.58 C8.91,35.58 8.1,34.77 8.1,33.75 C8.1,29.22 11.7,25.8 16.5,25.8 L24.36,25.8 C25.02,25.8 25.56,26.34 25.56,27 C25.56,27.66 25.02,28.2 24.36,28.2 L16.5,28.2 C13.23,28.2 10.8,30.27 10.53,33.18 L26.13,33.18 C26.79,33.18 27.33,33.72 27.33,34.38 C27.33,35.04 26.79,35.58 26.13,35.58 L26.13,35.58 Z" id="路径" stroke="#98A3AD" fill="#98A3AD"></path>
                <path d="M26.01,38.34 L8.49,38.34 C7.83,38.34 7.29,37.8 7.29,37.14 C7.29,36.48 7.83,35.94 8.49,35.94 L26.01,35.94 C26.67,35.94 27.21,36.48 27.21,37.14 C27.21,37.8 26.67,38.34 26.01,38.34 Z" id="路径" fill="#98A3AD"></path>
                <path d="M29.07,48.45 L17.34,48.45 C12.51,48.45 8.88,45.03 8.88,40.5 C8.88,40.02 9.06,39.57 9.42,39.21 C9.75,38.88 10.23,38.67 10.71,38.67 L27.06,38.67 C27.72,38.67 28.26,39.21 28.26,39.87 C28.26,40.53 27.72,41.07 27.06,41.07 L11.31,41.07 C11.61,43.98 14.04,46.05 17.34,46.05 L29.1,46.05 C29.76,46.05 30.3,46.59 30.3,47.25 C30.3,47.91 29.76,48.45 29.07,48.45 L29.07,48.45 Z" id="路径" stroke="#98A3AD" fill="#98A3AD"></path>
            </g>
        </g>
    </g>
</svg>