<?xml version="1.0" encoding="UTF-8"?>
<svg width="123px" height="27px" viewBox="0 0 123 27" version="1.1" xmlns="http://www.w3.org/2000/svg" xmlns:xlink="http://www.w3.org/1999/xlink">
    <!-- Generator: Sketch 55.1 (78136) - https://sketchapp.com -->
    <title>logo</title>
    <desc>Created with Sketch.</desc>
    <defs>
        <linearGradient x1="92.629832%" y1="44.0695325%" x2="6.03156482%" y2="56.3589308%" id="linearGradient-1">
            <stop stop-color="#FFFAE9" offset="0%"></stop>
            <stop stop-color="#FFFFFF" offset="100%"></stop>
        </linearGradient>
        <linearGradient x1="99.7018719%" y1="48.6571436%" x2="0.869947705%" y2="51.7705263%" id="linearGradient-2">
            <stop stop-color="#FFFAE9" offset="0%"></stop>
            <stop stop-color="#FFFFFF" offset="100%"></stop>
        </linearGradient>
        <linearGradient x1="95.4472959%" y1="46.594889%" x2="4.43671161%" y2="54.1725887%" id="linearGradient-3">
            <stop stop-color="#FFFAE9" offset="0%"></stop>
            <stop stop-color="#FFFFFF" offset="100%"></stop>
        </linearGradient>
        <linearGradient x1="98.2862566%" y1="48.3183042%" x2="1.71374344%" y2="50.4898442%" id="linearGradient-4">
            <stop stop-color="#FFFAE9" offset="0%"></stop>
            <stop stop-color="#FFFFFF" offset="100%"></stop>
        </linearGradient>
        <linearGradient x1="102.528626%" y1="43.7072469%" x2="-3.63549618%" y2="57.5373779%" id="linearGradient-5">
            <stop stop-color="#FFFAE9" offset="0%"></stop>
            <stop stop-color="#FFFFFF" offset="100%"></stop>
        </linearGradient>
        <linearGradient x1="98.7983222%" y1="48.3113593%" x2="1.46808752%" y2="51.220997%" id="linearGradient-6">
            <stop stop-color="#FFFAE9" offset="0%"></stop>
            <stop stop-color="#FFFFFF" offset="100%"></stop>
        </linearGradient>
        <linearGradient x1="62.998617%" y1="45.5950541%" x2="35.2574129%" y2="53.3230294%" id="linearGradient-7">
            <stop stop-color="#FFFAE9" offset="0%"></stop>
            <stop stop-color="#FFFFFF" offset="100%"></stop>
        </linearGradient>
        <linearGradient x1="65.5444632%" y1="45.2338081%" x2="31.0463086%" y2="54.4183377%" id="linearGradient-8">
            <stop stop-color="#FFFAE9" offset="0%"></stop>
            <stop stop-color="#FFFFFF" offset="100%"></stop>
        </linearGradient>
    </defs>
    <g id="赤兔官网" stroke="none" stroke-width="1" fill="none" fill-rule="evenodd">
        <g id="1-2首页_深色" transform="translate(-13.000000, -13.000000)" fill-rule="nonzero">
            <g id="logo" transform="translate(14.000000, 14.000000)">
                <g id="chitu备份" stroke="#FFFFFF" stroke-width="0.2">
                    <path d="M18.6732066,20.4982724 C19.180549,19.8089833 19.4198449,18.9451935 19.3432283,18.0796853 C19.312191,17.6012843 19.1059919,17.1536841 18.7673599,16.8296376 C17.8645094,15.9155259 16.9747965,14.9869408 16.3719229,13.8115455 C15.9004262,12.8921015 15.7398545,11.9307608 16.0069874,10.9107645 C16.0289172,10.8319921 16.0577471,10.7554935 16.0931121,10.6822366 C16.1047901,10.6570985 16.139094,10.6441486 16.1836162,10.6060606 C16.4084165,12.5523567 17.6732831,13.7711723 18.9505576,14.9808467 C19.7782315,15.7646975 20.6037157,16.5515953 21.1146255,17.6142501 C21.2751971,17.9479009 21.4379584,18.2998339 21.497078,18.6624315 C21.5627664,19.0654024 21.7160393,19.2337513 22.1057905,19.2878362 C23.12761,19.428 23.9501748,19.9886552 24.7055914,20.6879506 C25.6317979,21.5464538 26.5076432,22.4864653 27.5250836,23.2078518 C28.4199056,23.8423976 29.4782187,24.224801 30.4657343,24.7146125 C30.6494035,24.7922142 30.8278909,24.8825577 31,24.9850372 C29.8541023,25.0749249 28.7935996,24.751177 27.7885671,24.2461303 C26.2864923,23.4927499 24.9895113,22.4133364 23.6815822,21.3514433 C22.2517647,20.188998 20.6526171,19.913241 18.9206329,20.4662785 C18.8388701,20.4822687 18.7562362,20.4929538 18.6732066,20.4982724 L18.6732066,20.4982724 Z" id="路径" fill="url(#linearGradient-1)"></path>
                    <path d="M0.0428656063,6.25490656 C0.818880893,6.40779421 1.58898368,6.61516843 2.37091147,6.70299751 C4.17422318,6.90549233 5.87258806,6.40942068 7.52439203,5.65392795 C9.01655857,4.97162613 10.5286798,4.3169742 12.1871353,4.62274951 C13.1767396,4.80491352 14.144172,5.13264611 15.1219512,5.39450688 L15.0983012,5.58805614 C14.822631,5.63928977 14.5432655,5.67588522 14.2705516,5.74419673 C12.7532569,6.12560264 11.2307889,6.48667774 9.72162389,6.90711879 C7.41057646,7.55119871 5.0766181,7.80167423 2.72492225,7.3365054 C1.79518203,7.15108846 0.907568354,6.70869013 0,6.38339725 L0.0428656063,6.25490656 Z" id="路径" fill="url(#linearGradient-2)"></path>
                    <path d="M6.04878049,14.7351792 C7.4169257,14.183254 8.74560519,14.348677 10.0611294,14.8897801 C11.5615579,15.4996807 12.7469914,16.58266 13.8754189,17.7452587 C15.9327527,19.8640641 18.2809634,21.4920115 20.98802,22.5278376 C21.0748074,22.5608519 21.1422662,22.6344852 21.1707317,22.7272727 C20.9850966,22.6948065 20.7987307,22.6692974 20.6145573,22.6275551 C17.4660693,21.913299 14.79117,20.192591 12.2273594,18.2268405 C11.0455801,17.3208793 9.85503064,16.4241941 8.63378563,15.5800731 C7.86420395,15.03897 6.96306984,14.8294858 6.04878049,14.7351792 Z" id="路径" fill="url(#linearGradient-3)"></path>
                    <path d="M9.07317073,0 C11.2087644,1.04282115 13.3101703,1.13664641 15.5133796,0.629560296 C16.7448977,0.343070969 18.0151619,0.128203974 19.2778288,0.0687574385 C20.5404956,0.00931090313 21.654256,0.61308716 22.6829268,1.30066155 C20.4288157,0.834400165 18.3205723,1.60219156 16.1652257,1.94526253 C14.9390258,2.14150772 13.7196633,2.40651035 12.4645937,2.19450825 C11.1768558,1.98035747 9.74401,1.07433498 9.07317073,0 Z" id="路径" fill="url(#linearGradient-4)"></path>
                    <path d="M23.3625489,3.04590199 L21.9398157,3.04590199 C23.0941631,1.36039342 24.8090905,0.970419448 26.2087367,0 L26.2931484,0.0985197409 L24.5652346,2.64361305 C25.0926271,2.31110892 25.5146853,2.06234658 25.9208713,1.78320731 C26.3414867,1.49421607 26.7462298,1.17566891 27.2195122,0.92772756 C26.7144852,1.66005763 26.213787,2.3956717 25.7044312,3.12307579 C25.4944843,3.421919 25.2867017,3.63537844 25.5016989,4.11894617 C25.7614271,4.70267563 25.3126745,5.43254271 24.7080851,5.5146425 C24.3839638,5.55348858 24.0563047,5.52144142 23.7427621,5.42022774 C22.3359011,4.95636396 20.9867576,4.88083216 19.7746928,6.06060606 L19.6585366,5.92760441 C19.8309672,5.59920527 19.9651601,5.22893525 20.1830432,4.942407 C20.69371,4.26443666 21.4069409,3.82572023 22.1851145,3.71091024 C22.9000884,3.59761254 23.0047012,3.54096369 23.3625489,3.04590199 Z" id="路径" fill="url(#linearGradient-5)"></path>
                    <path d="M3.7804878,2.73080026 C5.72871833,3.66982155 7.61064782,3.05932837 9.48966297,2.56955418 C11.152289,2.13841492 12.7682858,2.12979214 14.3930255,2.85927975 C15.1055795,3.17918508 15.8917204,3.26972432 16.6341463,3.46287471 C16.2844266,3.84745092 15.7671328,3.91729548 15.2665963,3.96903219 C13.359895,4.16563169 11.451008,4.33291372 9.54284952,4.50795626 C7.63469105,4.6829988 5.82707701,4.24927271 4.15133647,3.12141242 C4.04277763,3.04811875 3.93859028,2.96620229 3.83513152,2.88256127 C3.82055986,2.86445342 3.81618836,2.82392633 3.7804878,2.73080026 Z" id="路径" fill="url(#linearGradient-6)"></path>
                    <path d="M21.3871198,6.06060606 C21.1464339,8.13545033 21.673536,9.72085617 24.195122,10.0619799 C23.0719211,10.4343278 22.0915272,10.2360545 21.1648865,9.55536821 C20.6939444,10.5311227 20.7838005,11.5068771 20.9009343,12.4678001 C21.0477527,13.6738326 21.2218488,14.8728397 20.8126828,16.0624795 C20.774173,16.1741058 20.7476976,16.2896351 20.7027696,16.398139 C20.6562992,16.4906693 20.604053,16.5803461 20.5463237,16.6666667 C20.2534892,15.866548 19.7159574,15.331054 18.902439,14.992272 C19.9927461,13.6590011 19.8603689,12.1415078 19.7215734,10.6318205 C19.5731504,9.00660391 19.8611712,7.52111533 21.0565778,6.29400653 C21.1165334,6.23376326 21.18002,6.17694452 21.2467197,6.12383495 C21.2913558,6.09847944 21.3383671,6.077308 21.3871198,6.06060606 Z" id="路径" fill="url(#linearGradient-7)"></path>
                    <path d="M26.0922058,4.54545455 C26.6959659,5.56859343 27.2176203,6.56089582 27.8404913,7.46543282 C28.2035967,7.99281585 28.7386995,8.37076051 29.1761247,8.83884259 C29.2815881,8.95111904 29.3403362,9.15511427 29.3615704,9.3211569 C29.414656,9.73863552 29.4132404,10.1648116 29.4719884,10.5814995 C29.5172881,10.9064687 29.4776509,11.134975 29.1888653,11.2931108 C28.8330938,11.4913891 28.4878216,11.7123532 28.154758,11.9549093 C27.7463528,12.251414 27.4278393,12.123324 27.0930462,11.7920294 C26.5975806,11.3041803 26.0638935,10.8574466 25.5521484,10.3869925 C25.3154594,10.1832612 25.1121452,9.93527663 24.9512195,9.65403285 C25.2831814,9.76868133 25.6165589,9.87542302 25.9456896,9.99955965 C26.32012,10.1403006 26.6407569,10.1576955 26.7632077,9.52040806 C26.9472377,9.93393328 27.0647338,10.2849948 27.2466405,10.5870343 C27.5517057,11.0946503 28.0797303,11.0464189 28.287118,10.5079664 C28.335249,10.3822484 28.3125991,10.2185778 28.3090601,10.0723021 C28.3026898,9.82956363 28.2849946,9.58682511 28.2701307,9.30850604 C27.0286356,8.07188377 26.1212259,6.58856959 26.0922058,4.54545455 Z" id="路径" fill="url(#linearGradient-8)"></path>
                </g>
                <g id="编组-3" transform="translate(37.000000, 1.000000)" fill="#FFFCF3">
                    <path d="M10.64,12.76 C10.8133342,12.76 10.9599994,12.7000006 11.08,12.58 C11.2000006,12.4599994 11.26,12.3133342 11.26,12.14 L11.26,6.8 L8.72,6.8 L7.64,14.48 L5.02,14.48 L6.1,6.8 L1,6.8 L1,4.84 L8.56,4.84 L8.56,2.74 L1.24,2.74 L1.24,0.78 L8.56,0.78 L8.56,0.08 L11.32,0.08 L11.32,0.78 L18.32,0.78 L18.32,2.74 L11.32,2.74 L11.32,4.84 L18.58,4.84 L18.58,6.8 L13.9,6.8 L13.9,12.3 C13.9,12.6066682 13.8433339,12.8899987 13.73,13.15 C13.6166661,13.4100013 13.460001,13.639999 13.26,13.84 C13.059999,14.040001 12.826668,14.1966661 12.56,14.31 C12.293332,14.4233339 12.0133348,14.48 11.72,14.48 L10,14.48 L9.34,12.76 L10.64,12.76 Z M1,14.02 L2.18,7.68 L4.56,7.68 L3.38,14.02 L1,14.02 Z M16.2,14.02 L15.02,7.68 L17.4,7.68 L18.58,14.02 L16.2,14.02 Z M35.44,9.84 L38.22,9.84 L39.24,11.94 L36.46,11.94 L35.44,9.84 Z M34.22,11.86 C34.22,12.0466676 34.2799994,12.1999994 34.4,12.32 C34.5200006,12.4400006 34.6666658,12.5 34.84,12.5 L40.54,12.5 L39.66,14.48 L33.32,14.48 C33.0666654,14.48 32.8266678,14.4300005 32.6,14.33 C32.3733322,14.2299995 32.1733342,14.0966675 32,13.93 C31.8266658,13.7633325 31.6900005,13.5666678 31.59,13.34 C31.4899995,13.1133322 31.44,12.866668 31.44,12.6 L31.44,9.84 L26.9,14.48 L23.04,14.48 L28.78,8.94 L23.56,8.94 L23.56,3.64 L35.2,3.64 L35.92,2.8 L23.72,2.8 L24.6,0.06 L26.88,0.06 L26.68,0.82 L39.78,0.82 L37.76,3.64 L39.96,3.64 L39.96,6.74 C39.96,7.0466682 39.9000006,7.333332 39.78,7.6 C39.6599994,7.866668 39.500001,8.099999 39.3,8.3 C39.099999,8.500001 38.866668,8.6566661 38.6,8.77 C38.333332,8.8833339 38.0533348,8.94 37.76,8.94 L32.34,8.94 L31.66,9.62 L34.22,9.62 L34.22,11.86 Z M37.18,5.62 L32.78,5.62 L32.78,6.96 L36.56,6.96 C36.7333342,6.96 36.8799994,6.9000006 37,6.78 C37.1200006,6.6599994 37.18,6.5066676 37.18,6.32 L37.18,5.62 Z M29.88,6.96 L29.88,5.62 L26.34,5.62 L26.34,6.96 L29.88,6.96 Z M45.06,14.38 L45.46,5.86 L47.1,5.86 L46.7,14.38 L45.06,14.38 Z M51.82,5.86 L52.2,14.38 L50.56,14.38 L50.16,5.86 L51.82,5.86 Z M60.86,9.06 L62.54,9.06 L62.54,10.86 L60.86,10.86 L60.86,14.36 L58.14,14.36 L58.14,10.86 L52.66,10.86 L52.66,9.06 L58.14,9.06 L58.14,0.16 L60.86,0.16 L60.86,9.06 Z M57.54,4.7 L56.12,4.7 L57.54,8.14 L54.88,8.14 L53.12,3.84 L54.54,3.84 L53.12,0.4 L55.76,0.4 L57.54,4.7 Z M49.64,2.1 L49.64,3.54 L52.12,3.54 L52.12,5.26 L49.64,5.26 L49.64,14.38 L47.54,14.38 L47.54,5.26 L45.04,5.26 L45.04,3.54 L47.54,3.54 L47.54,2.16 L45.24,2.24 L45.24,0.42 L52.2,0.2 L52.2,2.02 L49.64,2.1 Z M84.12,6.84 C83.9733326,7.4266696 83.633336,8.0933296 83.1,8.84 C82.566664,9.5866704 81.9066706,10.3199964 81.12,11.04 C81.6800028,11.4266686 82.2566637,11.7733318 82.85,12.08 C83.4433363,12.3866682 84.0266638,12.5999994 84.6,12.72 L84.6,14.56 C83.7466624,14.4666662 82.8833377,14.2233353 82.01,13.83 C81.1366623,13.4366647 80.300004,12.9466696 79.5,12.36 C78.699996,12.9466696 77.8600044,13.4366647 76.98,13.83 C76.0999956,14.2233353 75.2333376,14.4666662 74.38,14.56 L74.38,12.72 C74.9533362,12.5999994 75.5366637,12.3866682 76.13,12.08 C76.7233363,11.7733318 77.2999972,11.4266686 77.86,11.04 C77.19333,10.4266636 76.6166691,9.8033365 76.13,9.17 C75.6433309,8.5366635 75.2866678,7.9400028 75.06,7.38 L77.34,7.38 C77.540001,7.6866682 77.8266648,8.0433313 78.2,8.45 C78.5733352,8.8566687 79.0066642,9.2799978 79.5,9.72 C80.1800034,9.1066636 80.7399978,8.5300027 81.18,7.99 C81.6200022,7.4499973 81.873333,7.0666678 81.94,6.84 L74.86,6.84 L74.86,5 L78.16,5 L78.16,3.46 L74.86,3.46 L74.86,1.62 L78.16,1.62 L78.16,0.08 L80.6,0.08 L80.6,1.62 L84.12,1.62 L84.12,3.46 L80.6,3.46 L80.6,5 L84.12,5 L84.12,6.84 Z M72.14,3.2 L72.14,4.92 L74.9,4.92 L72.14,8.46 L72.14,12.38 C72.14,12.6866682 72.0833339,12.9699987 71.97,13.23 C71.8566661,13.4900013 71.700001,13.719999 71.5,13.92 C71.299999,14.120001 71.066668,14.2766661 70.8,14.39 C70.533332,14.5033339 70.2466682,14.56 69.94,14.56 L67.86,14.56 L68.64,12.84 L68.96,12.84 C69.1333342,12.84 69.2799994,12.7800006 69.4,12.66 C69.5200006,12.5399994 69.58,12.3933342 69.58,12.22 L69.58,11.04 L67,11.04 L69.58,7.74 L69.58,3.2 L67.46,3.2 L67.46,1.22 L69.58,1.22 L69.58,-2.66453526e-14 L72.14,-2.66453526e-14 L72.14,1.22 L74.38,1.22 L74.38,3.2 L72.14,3.2 Z" id="赤兔科技"></path>
                    <path d="M4.344,21.416 L4.344,22.368 L2.48,22.368 C2.12799824,22.368 1.8586676,22.3493335 1.672,22.312 C1.01599672,22.1839994 0.54933472,21.8186697 0.272,21.216 C0.09066576,20.8106646 0,20.3093363 0,19.712 C0,18.9973298 0.13866528,18.4160022 0.416,17.968 C0.61866768,17.642665 0.88933164,17.4053341 1.228,17.256 C1.56666836,17.1066659 2.002664,17.032 2.536,17.032 L4.344,17.032 L4.344,17.984 L2.664,17.984 C2.1573308,17.984 1.78666784,18.1199986 1.552,18.392 C1.35466568,18.6160011 1.256,19.0213304 1.256,19.608 C1.256,20.3973373 1.40799848,20.9146654 1.712,21.16 C1.9253344,21.3306675 2.2586644,21.416 2.712,21.416 L4.344,21.416 Z M10.184,17.032 L10.184,22.368 L9.056,22.368 L9.056,20.16 L6.992,20.16 L6.992,22.368 L5.856,22.368 L5.856,17.032 L6.992,17.032 L6.992,19.208 L9.056,19.208 L9.056,17.032 L10.184,17.032 Z M11.992,22.368 L11.992,17.032 L13.128,17.032 L13.128,22.368 L11.992,22.368 Z M16.112,17.984 L14.416,17.984 L14.416,17.032 L19.016,17.032 L19.016,17.984 L17.248,17.984 L17.248,22.368 L16.112,22.368 L16.112,17.984 Z M21.384,17.032 L21.384,20.232 C21.384,20.4880013 21.4053331,20.686666 21.448,20.828 C21.4906669,20.969334 21.5626662,21.0906662 21.664,21.192 C21.8880011,21.4106678 22.199998,21.52 22.6,21.52 C22.8560013,21.52 23.0786657,21.4760004 23.268,21.388 C23.4573343,21.2999996 23.589333,21.1813341 23.664,21.032 C23.738667,20.8826659 23.776,20.6160019 23.776,20.232 L23.776,17.032 L24.912,17.032 L24.912,20.176 C24.912,20.5920021 24.8680004,20.9346653 24.78,21.204 C24.6919996,21.4733347 24.5573342,21.6906658 24.376,21.856 C23.9546646,22.2240018 23.3573372,22.408 22.584,22.408 C21.7573292,22.408 21.1546686,22.2266685 20.776,21.864 C20.5786657,21.6773324 20.442667,21.4680012 20.368,21.236 C20.293333,21.0039988 20.256,20.6773354 20.256,20.256 L20.256,17.032 L21.384,17.032 Z M27.848,17.984 L26.152,17.984 L26.152,17.032 L30.752,17.032 L30.752,17.984 L28.984,17.984 L28.984,22.368 L27.848,22.368 L27.848,17.984 Z M36.056,17.032 L36.056,17.984 L34.576,17.984 C34.1919981,17.984 33.9120009,18.0106664 33.736,18.064 C33.5599991,18.1173336 33.4133339,18.2213326 33.296,18.376 C33.2159996,18.4826672 33.1613335,18.5893328 33.132,18.696 C33.1026665,18.8026672 33.0773334,18.9839987 33.056,19.24 L36.056,19.24 L36.056,20.192 L33.056,20.192 C33.0986669,20.650669 33.2346655,20.9693324 33.464,21.148 C33.6933345,21.3266676 34.0826639,21.416 34.632,21.416 L36.056,21.416 L36.056,22.368 L34.576,22.368 C34.175998,22.368 33.8240015,22.3440002 33.52,22.296 C33.0399976,22.2159996 32.6586681,22.005335 32.376,21.664 C31.9706646,21.1733309 31.768,20.5093375 31.768,19.672 C31.768,18.7439954 32.0533305,18.0213359 32.624,17.504 C32.8213343,17.3279991 33.0306656,17.2053337 33.252,17.136 C33.4733344,17.0666663 33.7706648,17.032 34.144,17.032 L36.056,17.032 Z M41.728,21.416 L41.728,22.368 L39.864,22.368 C39.5119982,22.368 39.2426676,22.3493335 39.056,22.312 C38.3999967,22.1839994 37.9333347,21.8186697 37.656,21.216 C37.4746658,20.8106646 37.384,20.3093363 37.384,19.712 C37.384,18.9973298 37.5226653,18.4160022 37.8,17.968 C38.0026677,17.642665 38.2733316,17.4053341 38.612,17.256 C38.9506684,17.1066659 39.386664,17.032 39.92,17.032 L41.728,17.032 L41.728,17.984 L40.048,17.984 C39.5413308,17.984 39.1706678,18.1199986 38.936,18.392 C38.7386657,18.6160011 38.64,19.0213304 38.64,19.608 C38.64,20.3973373 38.7919985,20.9146654 39.096,21.16 C39.3093344,21.3306675 39.6426644,21.416 40.096,21.416 L41.728,21.416 Z M47.568,17.032 L47.568,22.368 L46.44,22.368 L46.44,20.16 L44.376,20.16 L44.376,22.368 L43.24,22.368 L43.24,17.032 L44.376,17.032 L44.376,19.208 L46.44,19.208 L46.44,17.032 L47.568,17.032 Z M50.464,18.456 L50.464,22.368 L49.376,22.368 L49.376,17.032 L50.832,17.032 L52.952,21.008 L52.952,17.032 L54.032,17.032 L54.032,22.368 L52.64,22.368 L50.464,18.456 Z M58.184,17 C58.717336,17 59.1866646,17.0906658 59.592,17.272 C60.066669,17.4906678 60.399999,17.8559974 60.592,18.368 C60.7413341,18.768002 60.816,19.2373306 60.816,19.776 C60.816,20.3200027 60.7253342,20.791998 60.544,21.192 C60.3146655,21.666669 59.962669,22 59.488,22.192 C59.1359982,22.3306674 58.730669,22.4 58.272,22.4 C57.6693303,22.4 57.1466689,22.2880011 56.704,22.064 C56.3306648,21.8773324 56.0453343,21.584002 55.848,21.184 C55.6506657,20.783998 55.552,20.2986695 55.552,19.728 C55.552,18.7093282 55.8053308,17.9840022 56.312,17.552 C56.7386688,17.1893315 57.3626626,17.0053334 58.184,17 Z M58.192,17.896 C57.6693307,17.896 57.2960011,18.066665 57.072,18.408 C56.8906658,18.674668 56.8,19.103997 56.8,19.696 C56.8,20.3200031 56.9119989,20.7786652 57.136,21.072 C57.3600011,21.3600014 57.7146642,21.504 58.2,21.504 C58.6693357,21.504 59.0146656,21.3573348 59.236,21.064 C59.4573344,20.7706652 59.568,20.3173364 59.568,19.704 C59.568,19.1439972 59.4773342,18.7173348 59.296,18.424 C59.087999,18.0773316 58.7200026,17.9013334 58.192,17.896 Z M62.272,17.032 L63.4,17.032 L63.4,20.032 C63.4160001,20.4106686 63.4319999,20.6613327 63.448,20.784 C63.4853335,21.0293346 63.6026657,21.1959996 63.8,21.284 C63.9973343,21.3720004 64.3439975,21.416 64.84,21.416 L65.928,21.416 L65.928,22.368 L64.72,22.368 C64.1493305,22.368 63.7360013,22.3360003 63.48,22.272 C62.8933304,22.1013325 62.5200008,21.7280029 62.36,21.152 C62.301333,20.9279989 62.272,20.5546693 62.272,20.032 L62.272,17.032 Z M69.656,17 C70.189336,17 70.6586646,17.0906658 71.064,17.272 C71.538669,17.4906678 71.871999,17.8559974 72.064,18.368 C72.2133341,18.768002 72.288,19.2373306 72.288,19.776 C72.288,20.3200027 72.1973342,20.791998 72.016,21.192 C71.7866655,21.666669 71.434669,22 70.96,22.192 C70.6079982,22.3306674 70.202669,22.4 69.744,22.4 C69.1413303,22.4 68.6186689,22.2880011 68.176,22.064 C67.8026648,21.8773324 67.5173343,21.584002 67.32,21.184 C67.1226657,20.783998 67.024,20.2986695 67.024,19.728 C67.024,18.7093282 67.2773308,17.9840022 67.784,17.552 C68.2106688,17.1893315 68.8346626,17.0053334 69.656,17 Z M69.664,17.896 C69.1413307,17.896 68.7680011,18.066665 68.544,18.408 C68.3626658,18.674668 68.272,19.103997 68.272,19.696 C68.272,20.3200031 68.3839989,20.7786652 68.608,21.072 C68.8320011,21.3600014 69.1866642,21.504 69.672,21.504 C70.1413357,21.504 70.4866656,21.3573348 70.708,21.064 C70.9293344,20.7706652 71.04,20.3173364 71.04,19.704 C71.04,19.1439972 70.9493342,18.7173348 70.768,18.424 C70.559999,18.0773316 70.1920026,17.9013334 69.664,17.896 Z M75.768,19.2 L78.384,19.2 L78.384,22.368 L76,22.368 C75.5893313,22.368 75.2626679,22.3373336 75.02,22.276 C74.7773321,22.2146664 74.5573343,22.1066674 74.36,21.952 C73.7999972,21.5199978 73.52,20.7760053 73.52,19.72 C73.52,19.032 73.653332,18.458669 73.92,18 C74.1173343,17.6639983 74.386665,17.4186674 74.728,17.264 C75.069335,17.1093326 75.5119973,17.032 76.056,17.032 L78.384,17.032 L78.384,17.984 L76.184,17.984 C75.709331,17.984 75.3653344,18.087999 75.152,18.296 C74.8959987,18.5413346 74.768,18.9813302 74.768,19.616 C74.768,19.941335 74.801333,20.2346654 74.868,20.496 C74.934667,20.7573346 75.0266661,20.9519994 75.144,21.08 C75.2453338,21.1973339 75.3853324,21.2826664 75.564,21.336 C75.7426676,21.3893336 75.9626654,21.416 76.224,21.416 L77.256,21.416 L77.256,20.152 L75.768,20.152 L75.768,19.2 Z M81.504,20.032 L79.528,17.032 L80.856,17.032 L82.08,19.12 L83.368,17.032 L84.72,17.032 L82.64,20.072 L82.64,22.368 L81.504,22.368 L81.504,20.032 Z" id="CHITUTECHNOLOGY"></path>
                </g>
            </g>
        </g>
    </g>
</svg>