<?xml version="1.0" encoding="UTF-8"?>
<svg width="32px" height="27px" viewBox="0 0 32 27" version="1.1" xmlns="http://www.w3.org/2000/svg" xmlns:xlink="http://www.w3.org/1999/xlink">
    <!-- Generator: Sketch 55.1 (78136) - https://sketchapp.com -->
    <title>chitu备份 2</title>
    <desc>Created with Sketch.</desc>
    <defs>
        <linearGradient x1="92.629832%" y1="44.0695325%" x2="6.03156482%" y2="56.3589308%" id="linearGradient-1">
            <stop stop-color="#FFFAE9" offset="0%"></stop>
            <stop stop-color="#FFFFFF" offset="100%"></stop>
        </linearGradient>
        <linearGradient x1="99.7018719%" y1="48.6571436%" x2="0.869947705%" y2="51.7705263%" id="linearGradient-2">
            <stop stop-color="#FFFAE9" offset="0%"></stop>
            <stop stop-color="#FFFFFF" offset="100%"></stop>
        </linearGradient>
        <linearGradient x1="95.4472959%" y1="46.594889%" x2="4.43671161%" y2="54.1725887%" id="linearGradient-3">
            <stop stop-color="#FFFAE9" offset="0%"></stop>
            <stop stop-color="#FFFFFF" offset="100%"></stop>
        </linearGradient>
        <linearGradient x1="98.2862566%" y1="48.3183042%" x2="1.71374344%" y2="50.4898442%" id="linearGradient-4">
            <stop stop-color="#FFFAE9" offset="0%"></stop>
            <stop stop-color="#FFFFFF" offset="100%"></stop>
        </linearGradient>
        <linearGradient x1="102.528626%" y1="43.7072469%" x2="-3.63549618%" y2="57.5373779%" id="linearGradient-5">
            <stop stop-color="#FFFAE9" offset="0%"></stop>
            <stop stop-color="#FFFFFF" offset="100%"></stop>
        </linearGradient>
        <linearGradient x1="98.7983222%" y1="48.3113593%" x2="1.46808752%" y2="51.220997%" id="linearGradient-6">
            <stop stop-color="#FFFAE9" offset="0%"></stop>
            <stop stop-color="#FFFFFF" offset="100%"></stop>
        </linearGradient>
        <linearGradient x1="62.998617%" y1="45.5950541%" x2="35.2574129%" y2="53.3230294%" id="linearGradient-7">
            <stop stop-color="#FFFAE9" offset="0%"></stop>
            <stop stop-color="#FFFFFF" offset="100%"></stop>
        </linearGradient>
        <linearGradient x1="65.5444632%" y1="45.2338081%" x2="31.0463086%" y2="54.4183377%" id="linearGradient-8">
            <stop stop-color="#FFFAE9" offset="0%"></stop>
            <stop stop-color="#FFFFFF" offset="100%"></stop>
        </linearGradient>
    </defs>
    <g id="赤兔官网" stroke="none" stroke-width="1" fill="none" fill-rule="evenodd">
        <g id="1-2首页_深色" transform="translate(-249.000000, -5398.000000)" fill-rule="nonzero" stroke="#FFFFFF" stroke-width="0.2">
            <g id="chitu备份-2" transform="translate(250.000000, 5399.000000)">
                <path d="M18.6732066,20.4982724 C19.180549,19.8089833 19.4198449,18.9451935 19.3432283,18.0796853 C19.312191,17.6012843 19.1059919,17.1536841 18.7673599,16.8296376 C17.8645094,15.9155259 16.9747965,14.9869408 16.3719229,13.8115455 C15.9004262,12.8921015 15.7398545,11.9307608 16.0069874,10.9107645 C16.0289172,10.8319921 16.0577471,10.7554935 16.0931121,10.6822366 C16.1047901,10.6570985 16.139094,10.6441486 16.1836162,10.6060606 C16.4084165,12.5523567 17.6732831,13.7711723 18.9505576,14.9808467 C19.7782315,15.7646975 20.6037157,16.5515953 21.1146255,17.6142501 C21.2751971,17.9479009 21.4379584,18.2998339 21.497078,18.6624315 C21.5627664,19.0654024 21.7160393,19.2337513 22.1057905,19.2878362 C23.12761,19.428 23.9501748,19.9886552 24.7055914,20.6879506 C25.6317979,21.5464538 26.5076432,22.4864653 27.5250836,23.2078518 C28.4199056,23.8423976 29.4782187,24.224801 30.4657343,24.7146125 C30.6494035,24.7922142 30.8278909,24.8825577 31,24.9850372 C29.8541023,25.0749249 28.7935996,24.751177 27.7885671,24.2461303 C26.2864923,23.4927499 24.9895113,22.4133364 23.6815822,21.3514433 C22.2517647,20.188998 20.6526171,19.913241 18.9206329,20.4662785 C18.8388701,20.4822687 18.7562362,20.4929538 18.6732066,20.4982724 L18.6732066,20.4982724 Z" id="路径" fill="url(#linearGradient-1)"></path>
                <path d="M0.0428656063,6.25490656 C0.818880893,6.40779421 1.58898368,6.61516843 2.37091147,6.70299751 C4.17422318,6.90549233 5.87258806,6.40942068 7.52439203,5.65392795 C9.01655857,4.97162613 10.5286798,4.3169742 12.1871353,4.62274951 C13.1767396,4.80491352 14.144172,5.13264611 15.1219512,5.39450688 L15.0983012,5.58805614 C14.822631,5.63928977 14.5432655,5.67588522 14.2705516,5.74419673 C12.7532569,6.12560264 11.2307889,6.48667774 9.72162389,6.90711879 C7.41057646,7.55119871 5.0766181,7.80167423 2.72492225,7.3365054 C1.79518203,7.15108846 0.907568354,6.70869013 0,6.38339725 L0.0428656063,6.25490656 Z" id="路径" fill="url(#linearGradient-2)"></path>
                <path d="M6.04878049,14.7351792 C7.4169257,14.183254 8.74560519,14.348677 10.0611294,14.8897801 C11.5615579,15.4996807 12.7469914,16.58266 13.8754189,17.7452587 C15.9327527,19.8640641 18.2809634,21.4920115 20.98802,22.5278376 C21.0748074,22.5608519 21.1422662,22.6344852 21.1707317,22.7272727 C20.9850966,22.6948065 20.7987307,22.6692974 20.6145573,22.6275551 C17.4660693,21.913299 14.79117,20.192591 12.2273594,18.2268405 C11.0455801,17.3208793 9.85503064,16.4241941 8.63378563,15.5800731 C7.86420395,15.03897 6.96306984,14.8294858 6.04878049,14.7351792 Z" id="路径" fill="url(#linearGradient-3)"></path>
                <path d="M9.07317073,0 C11.2087644,1.04282115 13.3101703,1.13664641 15.5133796,0.629560296 C16.7448977,0.343070969 18.0151619,0.128203974 19.2778288,0.0687574385 C20.5404956,0.00931090313 21.654256,0.61308716 22.6829268,1.30066155 C20.4288157,0.834400165 18.3205723,1.60219156 16.1652257,1.94526253 C14.9390258,2.14150772 13.7196633,2.40651035 12.4645937,2.19450825 C11.1768558,1.98035747 9.74401,1.07433498 9.07317073,0 Z" id="路径" fill="url(#linearGradient-4)"></path>
                <path d="M23.3625489,3.04590199 L21.9398157,3.04590199 C23.0941631,1.36039342 24.8090905,0.970419448 26.2087367,0 L26.2931484,0.0985197409 L24.5652346,2.64361305 C25.0926271,2.31110892 25.5146853,2.06234658 25.9208713,1.78320731 C26.3414867,1.49421607 26.7462298,1.17566891 27.2195122,0.92772756 C26.7144852,1.66005763 26.213787,2.3956717 25.7044312,3.12307579 C25.4944843,3.421919 25.2867017,3.63537844 25.5016989,4.11894617 C25.7614271,4.70267563 25.3126745,5.43254271 24.7080851,5.5146425 C24.3839638,5.55348858 24.0563047,5.52144142 23.7427621,5.42022774 C22.3359011,4.95636396 20.9867576,4.88083216 19.7746928,6.06060606 L19.6585366,5.92760441 C19.8309672,5.59920527 19.9651601,5.22893525 20.1830432,4.942407 C20.69371,4.26443666 21.4069409,3.82572023 22.1851145,3.71091024 C22.9000884,3.59761254 23.0047012,3.54096369 23.3625489,3.04590199 Z" id="路径" fill="url(#linearGradient-5)"></path>
                <path d="M3.7804878,2.73080026 C5.72871833,3.66982155 7.61064782,3.05932837 9.48966297,2.56955418 C11.152289,2.13841492 12.7682858,2.12979214 14.3930255,2.85927975 C15.1055795,3.17918508 15.8917204,3.26972432 16.6341463,3.46287471 C16.2844266,3.84745092 15.7671328,3.91729548 15.2665963,3.96903219 C13.359895,4.16563169 11.451008,4.33291372 9.54284952,4.50795626 C7.63469105,4.6829988 5.82707701,4.24927271 4.15133647,3.12141242 C4.04277763,3.04811875 3.93859028,2.96620229 3.83513152,2.88256127 C3.82055986,2.86445342 3.81618836,2.82392633 3.7804878,2.73080026 Z" id="路径" fill="url(#linearGradient-6)"></path>
                <path d="M21.3871198,6.06060606 C21.1464339,8.13545033 21.673536,9.72085617 24.195122,10.0619799 C23.0719211,10.4343278 22.0915272,10.2360545 21.1648865,9.55536821 C20.6939444,10.5311227 20.7838005,11.5068771 20.9009343,12.4678001 C21.0477527,13.6738326 21.2218488,14.8728397 20.8126828,16.0624795 C20.774173,16.1741058 20.7476976,16.2896351 20.7027696,16.398139 C20.6562992,16.4906693 20.604053,16.5803461 20.5463237,16.6666667 C20.2534892,15.866548 19.7159574,15.331054 18.902439,14.992272 C19.9927461,13.6590011 19.8603689,12.1415078 19.7215734,10.6318205 C19.5731504,9.00660391 19.8611712,7.52111533 21.0565778,6.29400653 C21.1165334,6.23376326 21.18002,6.17694452 21.2467197,6.12383495 C21.2913558,6.09847944 21.3383671,6.077308 21.3871198,6.06060606 Z" id="路径" fill="url(#linearGradient-7)"></path>
                <path d="M26.0922058,4.54545455 C26.6959659,5.56859343 27.2176203,6.56089582 27.8404913,7.46543282 C28.2035967,7.99281585 28.7386995,8.37076051 29.1761247,8.83884259 C29.2815881,8.95111904 29.3403362,9.15511427 29.3615704,9.3211569 C29.414656,9.73863552 29.4132404,10.1648116 29.4719884,10.5814995 C29.5172881,10.9064687 29.4776509,11.134975 29.1888653,11.2931108 C28.8330938,11.4913891 28.4878216,11.7123532 28.154758,11.9549093 C27.7463528,12.251414 27.4278393,12.123324 27.0930462,11.7920294 C26.5975806,11.3041803 26.0638935,10.8574466 25.5521484,10.3869925 C25.3154594,10.1832612 25.1121452,9.93527663 24.9512195,9.65403285 C25.2831814,9.76868133 25.6165589,9.87542302 25.9456896,9.99955965 C26.32012,10.1403006 26.6407569,10.1576955 26.7632077,9.52040806 C26.9472377,9.93393328 27.0647338,10.2849948 27.2466405,10.5870343 C27.5517057,11.0946503 28.0797303,11.0464189 28.287118,10.5079664 C28.335249,10.3822484 28.3125991,10.2185778 28.3090601,10.0723021 C28.3026898,9.82956363 28.2849946,9.58682511 28.2701307,9.30850604 C27.0286356,8.07188377 26.1212259,6.58856959 26.0922058,4.54545455 Z" id="路径" fill="url(#linearGradient-8)"></path>
            </g>
        </g>
    </g>
</svg>