<?xml version="1.0" encoding="UTF-8"?>
<svg width="32px" height="32px" viewBox="0 0 32 32" version="1.1" xmlns="http://www.w3.org/2000/svg" xmlns:xlink="http://www.w3.org/1999/xlink">
    <!-- Generator: Sketch 55.1 (78136) - https://sketchapp.com -->
    <title>赤兔rpa</title>
    <desc>Created with Sketch.</desc>
    <defs>
        <linearGradient x1="92.629832%" y1="43.8472126%" x2="6.03156482%" y2="56.5973128%" id="linearGradient-1">
            <stop stop-color="#FFFAE9" offset="0%"></stop>
            <stop stop-color="#FFFFFF" offset="100%"></stop>
        </linearGradient>
        <linearGradient x1="99.7018719%" y1="48.6068029%" x2="0.869947705%" y2="51.8368993%" id="linearGradient-2">
            <stop stop-color="#FFFAE9" offset="0%"></stop>
            <stop stop-color="#FFFFFF" offset="100%"></stop>
        </linearGradient>
        <linearGradient x1="95.4472959%" y1="46.467239%" x2="4.43671161%" y2="54.3290096%" id="linearGradient-3">
            <stop stop-color="#FFFAE9" offset="0%"></stop>
            <stop stop-color="#FFFFFF" offset="100%"></stop>
        </linearGradient>
        <linearGradient x1="98.2862566%" y1="48.2552612%" x2="1.71374344%" y2="50.5082074%" id="linearGradient-4">
            <stop stop-color="#FFFAE9" offset="0%"></stop>
            <stop stop-color="#FFFFFF" offset="100%"></stop>
        </linearGradient>
        <linearGradient x1="102.528626%" y1="43.4713457%" x2="-3.63549618%" y2="57.8199373%" id="linearGradient-5">
            <stop stop-color="#FFFAE9" offset="0%"></stop>
            <stop stop-color="#FFFFFF" offset="100%"></stop>
        </linearGradient>
        <linearGradient x1="98.7983222%" y1="48.2480559%" x2="1.46808752%" y2="51.2667694%" id="linearGradient-6">
            <stop stop-color="#FFFAE9" offset="0%"></stop>
            <stop stop-color="#FFFFFF" offset="100%"></stop>
        </linearGradient>
        <linearGradient x1="62.5289354%" y1="45.5950541%" x2="35.7901097%" y2="53.3230294%" id="linearGradient-7">
            <stop stop-color="#FFFAE9" offset="0%"></stop>
            <stop stop-color="#FFFFFF" offset="100%"></stop>
        </linearGradient>
        <linearGradient x1="64.9827919%" y1="45.2338081%" x2="31.7311662%" y2="54.4183377%" id="linearGradient-8">
            <stop stop-color="#FFFAE9" offset="0%"></stop>
            <stop stop-color="#FFFFFF" offset="100%"></stop>
        </linearGradient>
    </defs>
    <g id="页面1" stroke="none" stroke-width="1" fill="none" fill-rule="evenodd">
        <g id="画板" transform="translate(-271.000000, -34.000000)">
            <g id="赤兔rpa" transform="translate(271.000000, 34.000000)">
                <rect id="矩形" fill="#497CE3" x="0" y="0" width="32" height="32" rx="6"></rect>
                <g id="资源-1备份" transform="translate(2.000000, 5.000000)" fill-rule="nonzero" stroke="#FFFFFF" stroke-width="0.2">
                    <path d="M17.4713029,16.6333105 C17.4432693,16.1931816 17.2570249,15.7813894 16.9511638,15.4832666 C16.1356859,14.6422838 15.3320742,13.7879855 14.7875433,12.7066219 C14.3616752,11.8607334 14.2166428,10.9762999 14.4579241,10.0379033 C14.4777317,9.96543277 14.5037715,9.89505404 14.5357142,9.82765765 C14.546262,9.80453063 14.5772462,9.79261671 14.6174598,9.75757576 C14.8205052,11.5481682 15.9629654,12.6694785 17.1166327,13.782379 C17.8642091,14.5035217 18.6098077,15.2274677 19.0712746,16.2051101 C19.2163071,16.5120688 19.3633173,16.8358471 19.4167156,17.169437 C19.476047,17.5401702 19.6144871,17.6950512 19.9665204,17.7448093 C20.8894542,17.87376 21.632416,18.3895628 22.3147277,19.0329146 C23.1513013,19.8227375 23.9423874,20.6875481 24.8613658,21.3512236 C25.6695921,21.9350058 26.6254879,22.2868169 27.5174375,22.7374435 C27.6833322,22.8088371 27.8445466,22.8919531 28,22.9862342 C26.9649957,23.0689309 26.0071222,22.7710828 25.0993509,22.3064399 C23.7426382,21.6133299 22.5711715,20.6202695 21.3898162,19.6433279 C20.0983681,18.5738781 18.6539767,18.3201817 17.0896039,18.8289762 C17.0157536,18.8436872 16.9411165,18.8535175 16.8661221,18.8584106 C17.3243668,18.2242647 17.540505,17.4295781 17.4713029,16.6333105 Z" id="路径" fill="url(#linearGradient-1)"></path>
                    <path d="M0.0387173218,5.75451403 C0.739634355,5.89517068 1.43521107,6.08595495 2.14146842,6.16675771 C3.7702661,6.35305294 5.30427309,5.89666702 6.79622506,5.20161372 C8.14398838,4.57389604 9.50977529,3.97161626 11.0077351,4.25292955 C11.9015712,4.42052044 12.7753811,4.72203442 13.6585366,4.96294633 L13.6371753,5.14101165 C13.3881829,5.18814659 13.1358527,5.22181441 12.8895305,5.28466099 C11.5190708,5.63555443 10.1439383,5.96774352 8.78082157,6.35454929 C6.6934239,6.94710281 4.58533248,7.17754029 2.4612201,6.74958497 C1.62145474,6.57900138 0.819739159,6.17199492 0,5.87272547 L0.0387173218,5.75451403 Z" id="路径" fill="url(#linearGradient-2)"></path>
                    <path d="M5.46341463,13.5563649 C6.6991587,13.0485937 7.8992563,13.2007828 9.08747175,13.6985977 C10.4426975,14.2597062 11.5134116,15.2560472 12.5326364,16.325638 C14.3908734,18.2749389 16.511838,19.7726506 18.9569213,20.7256106 C19.0353099,20.7559837 19.0962404,20.8237263 19.1219512,20.9090909 C18.9542808,20.879222 18.7859503,20.8557536 18.6196001,20.8173507 C15.7758045,20.1602351 13.3597664,18.5771837 11.0440665,16.7686933 C9.97665298,15.9352089 8.901318,15.1102585 7.79825799,14.3336673 C7.10315195,13.8358524 6.28922437,13.6431269 5.46341463,13.5563649 Z" id="路径" fill="url(#linearGradient-3)"></path>
                    <path d="M8.19512195,0 C10.1240452,0.959395459 12.0220893,1.04571469 14.0120848,0.579195473 C15.1244237,0.315625292 16.2717591,0.117947656 17.4122324,0.0632568434 C18.5527057,0.00856603088 19.5586828,0.564040187 20.4878049,1.19660862 C18.4518336,0.767648152 16.5476137,1.47401624 14.600849,1.78964153 C13.4933136,1.9701871 12.391954,2.21398952 11.2583427,2.01894759 C10.0952246,1.82192888 8.80104129,0.988388179 8.19512195,0 Z" id="路径" fill="url(#linearGradient-4)"></path>
                    <path d="M21.101657,2.80222983 L19.8166077,2.80222983 C20.8592441,1.25156195 22.4082108,0.892785892 23.6724074,0 L23.7486502,0.0906381616 L22.1879538,2.432124 C22.6643083,2.12622021 23.0455222,1.89735885 23.4123999,1.64055073 C23.7923106,1.37467878 24.1578849,1.0816154 24.5853659,0.853509355 C24.1292124,1.52725302 23.6769689,2.20401796 23.2169056,2.87322972 C23.0272761,3.14816548 22.8396016,3.34454816 23.0337926,3.78943047 C23.2683858,4.32646158 22.8630609,4.9979393 22.3169801,5.0734711 C22.0242254,5.10920949 21.7282752,5.0797261 21.4450754,4.98660953 C20.1743623,4.55985485 18.955781,4.49036559 17.8610128,5.57575758 L17.7560976,5.45339606 C17.9118414,5.15126885 18.0330478,4.81062043 18.2298455,4.54701444 C18.6910929,3.92328173 19.3353015,3.51966261 20.0381679,3.41403742 C20.6839508,3.30980354 20.7784398,3.25768659 21.101657,2.80222983 Z" id="路径" fill="url(#linearGradient-5)"></path>
                    <path d="M3.41463415,2.51233624 C5.17432623,3.37623583 6.87413351,2.8145821 8.57130849,2.36398984 C10.0730352,1.96734173 11.5326452,1.95940877 13.0001521,2.63053737 C13.6437493,2.92485027 14.353812,3.00814638 15.0243902,3.18584473 C14.7085143,3.53965485 14.2412812,3.60391184 13.7891838,3.65150962 C12.067002,3.83238116 10.3428459,3.98628062 8.61934795,4.14731976 C6.89584998,4.30835889 5.26316634,3.90933089 3.74959423,2.87169943 C3.65154108,2.80426925 3.55743638,2.72890611 3.46398976,2.65195637 C3.45082826,2.63529715 3.44687981,2.59801223 3.41463415,2.51233624 Z" id="路径" fill="url(#linearGradient-6)"></path>
                    <path d="M19.3173985,5.57575758 C19.1000048,7.4846143 19.576097,8.94318767 21.8536585,9.25702153 C20.8391545,9.5995816 19.9536375,9.41717016 19.1166717,8.79093875 C18.6913046,9.68863285 18.7724649,10.5863269 18.8782632,11.4703761 C19.0108734,12.579926 19.1681215,13.6830125 18.7985522,14.7774811 C18.7637692,14.8801774 18.7398559,14.9864643 18.6992757,15.0862879 C18.6573025,15.1714158 18.6101124,15.2539184 18.5579698,15.3333333 C18.2934741,14.5972242 17.8079615,14.1045697 17.0731707,13.7928903 C18.0579643,12.566281 17.9383977,11.1701872 17.813034,9.78127488 C17.6789746,8.28607559 17.9391224,6.9194261 19.0188445,5.790486 C19.0729979,5.7350622 19.1303407,5.68278896 19.1905855,5.63392815 C19.230902,5.61060109 19.2733638,5.59112336 19.3173985,5.57575758 Z" id="路径" fill="url(#linearGradient-7)"></path>
                    <path d="M23.5671536,4.18181818 C24.1124854,5.12310595 24.5836571,6.03602416 25.1462502,6.8681982 C25.4742164,7.35339058 25.957535,7.70109967 26.3526288,8.13173518 C26.447886,8.23502951 26.5009488,8.42270513 26.5201281,8.57546435 C26.5680764,8.95954468 26.5667978,9.35162668 26.6198605,9.73497958 C26.6607764,10.0339512 26.624975,10.244177 26.3641364,10.389662 C26.0427944,10.572078 25.7309357,10.775365 25.430104,10.9985166 C25.0612219,11.2713009 24.7735323,11.1534581 24.4711385,10.848667 C24.0236212,10.3998459 23.5415812,9.98885086 23.0793598,9.55603307 C22.8655762,9.36860031 22.6819376,9.1404545 22.5365854,8.88171022 C22.8364219,8.98718682 23.1375371,9.08538918 23.4348164,9.19959488 C23.7730116,9.32907651 24.0626192,9.34507985 24.1732198,8.75877542 C24.3394405,9.13921862 24.445566,9.46219526 24.6098688,9.74007156 C24.8854116,10.2070783 25.3623371,10.1627054 25.549655,9.66732907 C25.5931281,9.55166852 25.5726702,9.40109157 25.5694736,9.26651797 C25.5637198,9.04319854 25.5477371,8.8198791 25.5343116,8.56382555 C24.4129612,7.42613307 23.5933654,6.06148403 23.5671536,4.18181818 Z" id="路径" fill="url(#linearGradient-8)"></path>
                </g>
            </g>
        </g>
    </g>
</svg>