<?xml version="1.0" encoding="UTF-8"?>
<svg width="71px" height="71px" viewBox="0 0 71 71" version="1.1" xmlns="http://www.w3.org/2000/svg" xmlns:xlink="http://www.w3.org/1999/xlink">
    <!-- Generator: Sketch 55.1 (78136) - https://sketchapp.com -->
    <title>diyibu</title>
    <desc>Created with Sketch.</desc>
    <g id="赤兔官网" stroke="none" stroke-width="1" fill="none" fill-rule="evenodd">
        <g id="4合作伙伴" transform="translate(-190.000000, -1945.000000)">
            <g id="编组-12" transform="translate(190.000000, 1945.000000)">
                <g id="diyibu">
                    <rect id="矩形" fill="#FFFFFF" x="0" y="0" width="71" height="71" rx="8.96"></rect>
                    <g id="编组-5" transform="translate(15.531250, 15.531250)" fill-rule="nonzero">
                        <g id="编组">
                            <path d="M5.1691984e-13,23.3400974 C5.1691984e-13,32.5065897 7.41269724,39.9375 16.5567227,39.9375 C25.7007481,39.9375 33.1134454,32.5065897 33.1134454,23.3400974 C33.1134454,14.1736051 25.7007481,6.74269481 16.5567227,6.74269481 C7.41269724,6.74269481 5.1691984e-13,14.1736051 5.1691984e-13,23.3400974 Z" id="路径" fill="#C4EBE9"></path>
                            <g id="申请" transform="translate(9.653777, 0.000000)">
                                <rect id="矩形" fill="#000000" opacity="0" x="0" y="0" width="31.3887868" height="31.4659091"></rect>
                                <path d="M11.0534203,28.4741895 L6.46443481,28.4741895 C5.06524285,28.4741895 3.92690888,27.3330586 3.92690888,25.9304288 L3.92690888,5.55849586 C3.92690888,4.15586609 5.06524285,3.01473523 6.46443481,3.01473523 L22.9375092,3.01473523 C24.3367011,3.01473523 25.4750045,4.15586609 25.4750045,5.55849586 L25.4750045,11.4954123 C25.4750045,12.0384758 25.0358373,12.478722 24.4941049,12.478722 C23.9523724,12.478722 23.5132053,12.0384758 23.5132053,11.4954123 L23.5132053,5.55849586 C23.5132053,5.24564975 23.2495579,4.98135455 22.9375092,4.98135455 L6.46443481,4.98135455 C6.15235547,4.98135455 5.88870805,5.24564975 5.88870805,5.55849586 L5.88870805,25.9303981 C5.88870805,26.2432442 6.15235547,26.5075394 6.46443481,26.5075394 L11.0534203,26.5075394 C11.5951527,26.5075394 12.0343198,26.9477856 12.0343198,27.4908491 C12.0343198,28.0339126 11.5951527,28.4741895 11.0534203,28.4741895 Z" id="路径" fill="#000000"></path>
                                <path d="M18.9615553,9.96676525 L8.96143732,9.96676525 C8.41970487,9.96676525 7.98053773,9.52651908 7.98053773,8.98345559 C7.98053773,8.4403921 8.41970487,8.00014593 8.96143732,8.00014593 L18.9615553,8.00014593 C19.5032878,8.00014593 19.9424549,8.4403921 19.9424549,8.98345559 C19.9424549,9.52651908 19.5032878,9.96676525 18.9615553,9.96676525 Z M17.6128797,14.7832618 L8.96913125,14.7832618 C8.4273988,14.7832618 7.98823166,14.3430156 7.98823166,13.7999521 C7.98823166,13.2568886 8.4273988,12.8166425 8.96913125,12.8166425 L17.6128797,12.8166425 C18.1546122,12.8166425 18.5937793,13.2568886 18.5937793,13.7999521 C18.5937793,14.3430156 18.1546122,14.7832618 17.6128797,14.7832618 Z M14.7929467,19.6995335 L8.99981501,19.6995335 C8.45808256,19.6995335 8.01891543,19.2592874 8.01891543,18.7162239 C8.01891543,18.1731604 8.45808256,17.7329142 8.99981501,17.7329142 L14.7929467,17.7329142 C15.3346791,17.7329142 15.7738462,18.1731604 15.7738462,18.7162239 C15.7738462,19.2592874 15.3346791,19.6995335 14.7929467,19.6995335 Z" id="形状" fill="#000000"></path>
                                <path d="M24.614541,20.6484273 C24.3584342,20.6484273 24.1026033,20.5484985 23.9102244,20.3495934 L20.8797351,17.2163694 C20.5026405,16.8264871 20.512235,16.2039599 20.9011617,15.825908 C21.2900883,15.4479484 21.9110591,15.4575049 22.2881843,15.8473872 L25.3186736,18.9806113 C25.6957682,19.3704935 25.6861738,19.9930207 25.2972471,20.3710726 C25.106738,20.5562728 24.8605015,20.6484273 24.614541,20.6484273 L24.614541,20.6484273 Z" id="路径" fill="#3DBDB6"></path>
                                <path d="M13.8953929,28.3308721 L13.7986517,23.8252858 C13.6298143,23.2903346 13.8861663,22.7395582 14.1958853,22.3910672 L22.2619146,13.3147503 C22.4875215,13.060872 22.796229,12.9031737 23.1310836,12.8707245 C23.4889893,12.8360321 23.8471096,12.9521548 24.1128721,13.1895012 L27.4378458,16.158912 C27.9719763,16.6359094 28.0123771,17.4677893 27.5283951,18.0145095 L25.503236,20.3156385 C25.1448398,20.7229131 24.5249419,20.7617845 24.1187575,20.402477 C23.7125118,20.043231 23.673705,19.42181 24.0321318,19.0145969 L25.6402247,17.1873617 L23.302833,15.0999182 L15.7507338,23.5979569 C15.7553065,23.6451351 15.7580878,23.6924706 15.7590714,23.7398607 L15.8104154,26.1307167 L17.8962677,25.8904204 C17.9304481,25.856137 17.9636287,25.8208664 17.9957677,25.7846532 L18.0026953,25.7769403 L22.1416931,21.2169032 C22.5062812,20.8152827 23.1266082,20.7859063 23.527367,21.1513595 C23.9280339,21.5168741 23.9573076,22.138756 23.5927501,22.540438 L19.4569709,27.0968799 C19.3563061,27.2098991 19.2022742,27.371592 19.0336821,27.5085179 C18.6474529,27.822163 18.3049963,27.8862625 18.0365364,27.8537825 L13.8953929,28.3308721 L13.8953929,28.3308721 Z" id="路径" fill="#3DBDB6"></path>
                            </g>
                        </g>
                    </g>
                </g>
            </g>
        </g>
    </g>
</svg>