<?xml version="1.0" encoding="UTF-8"?>
<svg width="80px" height="80px" viewBox="0 0 80 80" version="1.1" xmlns="http://www.w3.org/2000/svg" xmlns:xlink="http://www.w3.org/1999/xlink">
    <!-- Generator: Sketch 55.1 (78136) - https://sketchapp.com -->
    <title>收集整理数据</title>
    <desc>Created with Sketch.</desc>
    <g id="赤兔官网" stroke="none" stroke-width="1" fill="none" fill-rule="evenodd">
        <g id="1-2首页_深色" transform="translate(-176.000000, -3181.000000)">
            <g id="收集整理数据" transform="translate(176.000000, 3181.000000)">
                <circle id="椭圆形" fill="#3DBDB6" cx="40" cy="40" r="40"></circle>
                <g id="云计算-21" transform="translate(21.000000, 21.000000)" fill-rule="nonzero">
                    <rect id="矩形" fill="#000000" opacity="0" x="0" y="0" width="38" height="38"></rect>
                    <path d="M27.8171875,30.103125 L10.1828125,30.103125 C6.8578125,30.103125 4.15625,27.4015625 4.15625,24.0765625 C4.15625,21.8796875 5.3734375,19.8609375 7.2734375,18.7921875 C7.1546875,18.3765625 7.125,17.93125 7.125,17.515625 C7.125,14.190625 9.8265625,11.4890625 13.1515625,11.4890625 C13.596875,11.4890625 14.0125,11.5484375 14.428125,11.6375 C16.0609375,10.271875 18.1390625,9.52951866 20.2765625,9.52951866 C25.175,9.5 29.1828125,13.3890625 29.390625,18.2578125 C32.003125,18.9703125 33.84375,21.3453125 33.84375,24.0765625 C33.84375,27.4015625 31.1421875,30.103125 27.8171875,30.103125 L27.8171875,30.103125 Z M13.1515625,12.6765625 C10.4796875,12.6765625 8.3125,14.84375 8.3125,17.515625 C8.3125,17.990625 8.371875,18.4953125 8.5203125,18.940625 C8.609375,19.2375 8.4609375,19.534375 8.19375,19.653125 C6.471875,20.425 5.34375,22.1765625 5.34375,24.0765625 C5.34375,26.7484375 7.5109375,28.915625 10.1828125,28.915625 L27.8171875,28.915625 C30.4890625,28.915625 32.65625,26.7484375 32.65625,24.0765625 C32.65625,21.73125 30.99375,19.7421875 28.7078125,19.3265625 C28.4109375,19.2671875 28.2328125,19.0296875 28.2328125,18.7328125 L28.2328125,18.6734375 C28.203125,14.25 24.640625,10.6875 20.2765625,10.6875 C18.3171875,10.6875 16.446875,11.4 14.9921875,12.70625 C14.84375,12.8546875 14.6359375,12.884375 14.428125,12.825 C14.0125,12.7359375 13.5671875,12.6765625 13.1515625,12.6765625 Z M27.8171875,27.43125 L10.1828125,27.43125 C10.0046875,27.43125 9.8859375,27.3125 9.8859375,27.134375 C9.8859375,26.95625 10.0046875,26.8375 10.1828125,26.8375 L27.8171875,26.8375 C29.33125,26.8375 30.578125,25.590625 30.578125,24.0765625 C30.578125,23.8984375 30.696875,23.7796875 30.875,23.7796875 C31.053125,23.7796875 31.171875,23.8984375 31.171875,24.0765625 C31.171875,25.9171875 29.6875,27.43125 27.8171875,27.43125 L27.8171875,27.43125 Z M21.73125,37.8515625 L17.396875,37.8515625 C17.0703125,37.8515625 16.803125,37.584375 16.803125,37.2578125 L16.803125,32.953125 C16.803125,32.6265625 17.0703125,32.359375 17.396875,32.359375 L21.7015625,32.359375 C22.028125,32.359375 22.2953125,32.6265625 22.2953125,32.953125 L22.2953125,37.2578125 C22.325,37.584375 22.0578125,37.8515625 21.73125,37.8515625 L21.73125,37.8515625 Z M17.990625,36.6640625 L21.1078125,36.6640625 L21.1078125,33.546875 L17.990625,33.546875 L17.990625,36.6640625 Z M19.5640625,33.546875 C19.2375,33.546875 18.9703125,33.2796875 18.9703125,32.953125 L18.9703125,29.509375 C18.9703125,29.1828125 19.2375,28.915625 19.5640625,28.915625 C19.890625,28.915625 20.1578125,29.1828125 20.1578125,29.509375 L20.1578125,32.953125 C20.1578125,33.2796875 19.890625,33.546875 19.5640625,33.546875 Z M37.2578125,35.684375 L21.73125,35.684375 C21.4046875,35.684375 21.1375,35.4171875 21.1375,35.090625 C21.1375,34.7640625 21.4046875,34.496875 21.73125,34.496875 L37.2578125,34.496875 C37.584375,34.496875 37.8515625,34.7640625 37.8515625,35.090625 C37.8515625,35.4171875 37.584375,35.684375 37.2578125,35.684375 Z M17.396875,35.684375 L0.7421875,35.684375 C0.415625,35.684375 0.1484375,35.4171875 0.1484375,35.090625 C0.1484375,34.7640625 0.415625,34.496875 0.7421875,34.496875 L17.396875,34.496875 C17.7234375,34.496875 17.990625,34.7640625 17.990625,35.090625 C17.990625,35.4171875 17.7234375,35.684375 17.396875,35.684375 Z M21.553125,6.4421875 L16.446875,6.4421875 C16.1203125,6.4421875 15.853125,6.175 15.853125,5.8484375 L15.853125,0.7421875 C15.853125,0.415625 16.1203125,0.1484375 16.446875,0.1484375 L21.553125,0.1484375 C21.8796875,0.1484375 22.146875,0.415625 22.146875,0.7421875 L22.146875,5.8484375 C22.146875,6.175 21.8796875,6.4421875 21.553125,6.4421875 Z M17.040625,5.2546875 L20.959375,5.2546875 L20.959375,1.3359375 L17.040625,1.3359375 L17.040625,5.2546875 L17.040625,5.2546875 Z M34.2890625,7.2734375 C32.3296875,7.2734375 30.7265625,5.6703125 30.7265625,3.7109375 C30.7265625,1.7515625 32.3296875,0.1484375 34.2890625,0.1484375 C36.2484375,0.1484375 37.8515625,1.7515625 37.8515625,3.7109375 C37.8515625,5.6703125 36.2484375,7.2734375 34.2890625,7.2734375 Z M34.2890625,1.3359375 C32.9828125,1.3359375 31.9140625,2.4046875 31.9140625,3.7109375 C31.9140625,5.0171875 32.9828125,6.0859375 34.2890625,6.0859375 C35.5953125,6.0859375 36.6640625,5.0171875 36.6640625,3.7109375 C36.6640625,2.4046875 35.5953125,1.3359375 34.2890625,1.3359375 Z M3.7109375,7.2734375 C1.7515625,7.2734375 0.1484375,5.6703125 0.1484375,3.7109375 C0.1484375,1.7515625 1.7515625,0.1484375 3.7109375,0.1484375 C5.6703125,0.1484375 7.2734375,1.7515625 7.2734375,3.7109375 C7.2734375,5.6703125 5.6703125,7.2734375 3.7109375,7.2734375 Z M3.7109375,1.3359375 C2.4046875,1.3359375 1.3359375,2.4046875 1.3359375,3.7109375 C1.3359375,5.0171875 2.4046875,6.0859375 3.7109375,6.0859375 C5.0171875,6.0859375 6.0859375,5.0171875 6.0859375,3.7109375 C6.0859375,2.4046875 5.0171875,1.3359375 3.7109375,1.3359375 Z M27.2828125,14.36875 C27.1640625,14.36875 27.0453125,14.3390625 26.95625,14.25 C26.6890625,14.071875 26.6296875,13.6859375 26.8078125,13.41875 L32.1515625,5.81875 C32.3296875,5.5515625 32.715625,5.4921875 32.9828125,5.6703125 C33.25,5.8484375 33.309375,6.234375 33.13125,6.5015625 L27.7875,14.1015625 C27.66875,14.2796875 27.4609375,14.36875 27.2828125,14.36875 Z M10.1234375,13.596875 C9.9453125,13.596875 9.7671875,13.5078125 9.6484375,13.359375 L4.809375,6.53125 C4.63125,6.2640625 4.690625,5.9078125 4.9578125,5.7 C5.225,5.521875 5.58125,5.58125 5.7890625,5.8484375 L10.5984375,12.646875 C10.7765625,12.9140625 10.7171875,13.2703125 10.45,13.478125 C10.3609375,13.5375 10.2421875,13.596875 10.1234375,13.596875 L10.1234375,13.596875 Z M19,10.865625 C18.6734375,10.865625 18.40625,10.5984375 18.40625,10.271875 L18.40625,5.8484375 C18.40625,5.521875 18.6734375,5.2546875 19,5.2546875 C19.3265625,5.2546875 19.59375,5.521875 19.59375,5.8484375 L19.59375,10.271875 C19.59375,10.5984375 19.3265625,10.865625 19,10.865625 Z" id="形状" stroke="#FFFFFF" fill="#FFFFFF"></path>
                </g>
            </g>
        </g>
    </g>
</svg>