<?xml version="1.0" encoding="UTF-8"?>
<svg width="80px" height="80px" viewBox="0 0 80 80" version="1.1" xmlns="http://www.w3.org/2000/svg" xmlns:xlink="http://www.w3.org/1999/xlink">
    <!-- Generator: Sketch 55.1 (78136) - https://sketchapp.com -->
    <title>协调和管理</title>
    <desc>Created with Sketch.</desc>
    <g id="赤兔官网" stroke="none" stroke-width="1" fill="none" fill-rule="evenodd">
        <g id="1-2首页_深色" transform="translate(-635.000000, -3404.000000)">
            <g id="协调和管理" transform="translate(635.000000, 3404.000000)">
                <circle id="椭圆形备份-5" fill="#C4EBE9" cx="40" cy="40" r="40"></circle>
                <g id="云计算-63" transform="translate(21.000000, 21.000000)" fill-rule="nonzero">
                    <rect id="矩形" fill="#000000" opacity="0" x="0" y="0" width="38" height="38"></rect>
                    <path d="M21.2265625,16.3578125 C18.821875,16.3578125 16.8625,14.3984375 16.8625,11.99375 C16.8625,10.45 17.69375,9.025 19,8.253125 C18.940625,7.9859375 18.9109375,7.71875 18.9109375,7.4515625 C18.9109375,5.046875 20.8703125,3.0875 23.275,3.0875 C23.571875,3.0875 23.8390625,3.1171875 24.10625,3.1765625 C25.2640625,2.2265625 26.71875,1.721875 28.203125,1.721875 C30.459375,1.721875 32.5375,2.8796875 33.725,4.7796875 C35.625,5.10625 36.990625,6.7390625 36.990625,8.66875 C36.990625,8.90625 36.9609375,9.14375 36.93125,9.38125 C37.4953125,10.1234375 37.7921875,11.04375 37.7921875,11.99375 C37.7921875,14.3984375 35.8328125,16.3578125 33.428125,16.3578125 L21.2265625,16.3578125 Z M23.3046875,4.2453125 C21.553125,4.2453125 20.128125,5.6703125 20.128125,7.421875 C20.128125,7.7484375 20.1875,8.0453125 20.2765625,8.371875 C20.365625,8.66875 20.2171875,8.965625 19.95,9.084375 C18.821875,9.5890625 18.0796875,10.746875 18.0796875,11.99375 C18.0796875,13.7453125 19.5046875,15.1703125 21.25625,15.1703125 L33.5171875,15.1703125 C35.26875,15.1703125 36.69375,13.7453125 36.69375,11.99375 C36.69375,11.221875 36.4265625,10.509375 35.921875,9.915625 C35.803125,9.7671875 35.74375,9.559375 35.803125,9.38125 C35.8625,9.14375 35.8921875,8.90625 35.8921875,8.66875 C35.8921875,7.24375 34.8234375,6.05625 33.3984375,5.9078125 C33.190625,5.878125 33.0421875,5.7890625 32.9234375,5.6109375 C31.9734375,3.91875 30.1921875,2.8796875 28.2625,2.8796875 C26.95625,2.8796875 25.6796875,3.3546875 24.7,4.2453125 C24.5515625,4.39375 24.34375,4.4234375 24.1359375,4.3640625 C23.86875,4.275 23.571875,4.2453125 23.3046875,4.2453125 Z M21.2265625,13.6859375 C21.0484375,13.6859375 20.9296875,13.5671875 20.9296875,13.3890625 C20.9296875,13.2109375 21.0484375,13.0921875 21.2265625,13.0921875 L33.4875,13.0921875 C34.08125,13.0921875 34.5859375,12.5875 34.5859375,11.99375 C34.5859375,11.815625 34.7046875,11.696875 34.8828125,11.696875 C35.0609375,11.696875 35.1796875,11.815625 35.1796875,11.99375 C35.1796875,12.9140625 34.4078125,13.6859375 33.4875,13.6859375 L21.2265625,13.6859375 Z M14.665625,7.540625 L0.7421875,7.540625 C0.415625,7.540625 0.1484375,7.2734375 0.1484375,6.946875 L0.1484375,1.3359375 C0.1484375,1.009375 0.415625,0.7421875 0.7421875,0.7421875 L14.665625,0.7421875 C14.9921875,0.7421875 15.259375,1.009375 15.259375,1.3359375 L15.259375,6.946875 C15.259375,7.2734375 14.9921875,7.540625 14.665625,7.540625 Z M1.3359375,6.353125 L14.071875,6.353125 L14.071875,1.9296875 L1.3359375,1.9296875 L1.3359375,6.353125 Z M14.665625,15.675 L0.7421875,15.675 C0.415625,15.675 0.1484375,15.4078125 0.1484375,15.08125 L0.1484375,9.5 C0.1484375,9.1734375 0.415625,8.90625 0.7421875,8.90625 L14.665625,8.90625 C14.9921875,8.90625 15.259375,9.1734375 15.259375,9.5 L15.259375,15.1109375 C15.259375,15.4078125 14.9921875,15.675 14.665625,15.675 Z M1.3359375,14.4875 L14.071875,14.4875 L14.071875,10.09375 L1.3359375,10.09375 L1.3359375,14.4875 Z M14.665625,23.8390625 L0.7421875,23.8390625 C0.415625,23.8390625 0.1484375,23.571875 0.1484375,23.2453125 L0.1484375,17.634375 C0.1484375,17.3078125 0.415625,17.040625 0.7421875,17.040625 L14.665625,17.040625 C14.9921875,17.040625 15.259375,17.3078125 15.259375,17.634375 L15.259375,23.2453125 C15.259375,23.571875 14.9921875,23.8390625 14.665625,23.8390625 Z M1.3359375,22.6515625 L14.071875,22.6515625 L14.071875,18.228125 L1.3359375,18.228125 L1.3359375,22.6515625 Z M12.35,12.5875 L8.7875,12.5875 C8.609375,12.5875 8.490625,12.46875 8.490625,12.290625 C8.490625,12.1125 8.609375,11.99375 8.7875,11.99375 L12.3203125,11.99375 C12.4984375,11.99375 12.6171875,12.1125 12.6171875,12.290625 C12.646875,12.46875 12.4984375,12.5875 12.35,12.5875 Z M4.4234375,12.5875 L3.0875,12.5875 C2.909375,12.5875 2.790625,12.46875 2.790625,12.290625 C2.790625,12.1125 2.909375,11.99375 3.0875,11.99375 L4.4234375,11.99375 C4.6015625,11.99375 4.7203125,12.1125 4.7203125,12.290625 C4.7203125,12.46875 4.6015625,12.5875 4.4234375,12.5875 Z M12.35,4.453125 L8.7875,4.453125 C8.609375,4.453125 8.490625,4.334375 8.490625,4.15625 C8.490625,3.978125 8.609375,3.859375 8.7875,3.859375 L12.3203125,3.859375 C12.4984375,3.859375 12.6171875,3.978125 12.6171875,4.15625 C12.646875,4.3046875 12.4984375,4.453125 12.35,4.453125 Z M4.4234375,4.453125 L3.0875,4.453125 C2.909375,4.453125 2.790625,4.334375 2.790625,4.15625 C2.790625,3.978125 2.909375,3.859375 3.0875,3.859375 L4.4234375,3.859375 C4.6015625,3.859375 4.7203125,3.978125 4.7203125,4.15625 C4.7203125,4.3046875 4.6015625,4.453125 4.4234375,4.453125 Z M12.35,20.721875 L8.7875,20.721875 C8.609375,20.721875 8.490625,20.603125 8.490625,20.425 C8.490625,20.246875 8.609375,20.128125 8.7875,20.128125 L12.3203125,20.128125 C12.4984375,20.128125 12.6171875,20.246875 12.6171875,20.425 C12.646875,20.603125 12.4984375,20.721875 12.35,20.721875 Z M4.4234375,20.721875 L3.0875,20.721875 C2.909375,20.721875 2.790625,20.603125 2.790625,20.425 C2.790625,20.246875 2.909375,20.128125 3.0875,20.128125 L4.4234375,20.128125 C4.6015625,20.128125 4.7203125,20.246875 4.7203125,20.425 C4.7203125,20.603125 4.6015625,20.721875 4.4234375,20.721875 Z M37.2578125,34.2296875 L30.3703125,34.2296875 C30.04375,34.2296875 29.7765625,33.9625 29.7765625,33.6359375 C29.7765625,33.309375 30.04375,33.0421875 30.3703125,33.0421875 L37.2578125,33.0421875 C37.584375,33.0421875 37.8515625,33.309375 37.8515625,33.6359375 C37.8515625,33.9625 37.584375,34.2296875 37.2578125,34.2296875 Z M24.34375,34.2296875 L10.4796875,34.2296875 C10.153125,34.2296875 9.8859375,33.9625 9.8859375,33.6359375 C9.8859375,33.309375 10.153125,33.0421875 10.4796875,33.0421875 L24.34375,33.0421875 C24.6703125,33.0421875 24.9375,33.309375 24.9375,33.6359375 C24.9375,33.9625 24.6703125,34.2296875 24.34375,34.2296875 Z M4.4234375,34.2296875 L0.7421875,34.2296875 C0.415625,34.2296875 0.1484375,33.9625 0.1484375,33.6359375 C0.1484375,33.309375 0.415625,33.0421875 0.7421875,33.0421875 L4.4234375,33.0421875 C4.75,33.0421875 5.0171875,33.309375 5.0171875,33.6359375 C5.0171875,33.9625 4.75,34.2296875 4.4234375,34.2296875 Z M30.3703125,37.2578125 L24.34375,37.2578125 C24.0171875,37.2578125 23.75,36.990625 23.75,36.6640625 L23.75,30.6078125 C23.75,30.28125 24.0171875,30.0140625 24.34375,30.0140625 L30.4,30.0140625 C30.7265625,30.0140625 30.99375,30.28125 30.99375,30.6078125 L30.99375,36.6640625 C30.9640625,36.990625 30.696875,37.2578125 30.3703125,37.2578125 L30.3703125,37.2578125 Z M24.9375,36.0703125 L29.80625,36.0703125 L29.80625,31.2015625 L24.9375,31.2015625 L24.9375,36.0703125 Z M10.4796875,37.2578125 L4.4234375,37.2578125 C4.096875,37.2578125 3.8296875,36.990625 3.8296875,36.6640625 L3.8296875,30.6078125 C3.8296875,30.28125 4.096875,30.0140625 4.4234375,30.0140625 L10.4796875,30.0140625 C10.80625,30.0140625 11.0734375,30.28125 11.0734375,30.6078125 L11.0734375,36.6640625 C11.0734375,36.990625 10.80625,37.2578125 10.4796875,37.2578125 Z M5.0171875,36.0703125 L9.8859375,36.0703125 L9.8859375,31.2015625 L5.0171875,31.2015625 L5.0171875,36.0703125 Z M27.371875,31.2015625 C27.0453125,31.2015625 26.778125,30.934375 26.778125,30.6078125 L26.778125,15.7640625 C26.778125,15.4375 27.0453125,15.1703125 27.371875,15.1703125 C27.6984375,15.1703125 27.965625,15.4375 27.965625,15.7640625 L27.965625,30.6078125 C27.965625,30.934375 27.6984375,31.2015625 27.371875,31.2015625 Z M7.4515625,31.2015625 C7.125,31.2015625 6.8578125,30.934375 6.8578125,30.6078125 L6.8578125,23.7203125 C6.8578125,23.39375 7.125,23.1265625 7.4515625,23.1265625 C7.778125,23.1265625 8.0453125,23.39375 8.0453125,23.7203125 L8.0453125,30.6078125 C8.0453125,30.934375 7.778125,31.2015625 7.4515625,31.2015625 L7.4515625,31.2015625 Z" id="形状" stroke="#18BDB9" fill="#29BDB8"></path>
                </g>
            </g>
        </g>
    </g>
</svg>