<?xml version="1.0" encoding="UTF-8"?>
<svg width="31px" height="32px" viewBox="0 0 31 32" version="1.1" xmlns="http://www.w3.org/2000/svg" xmlns:xlink="http://www.w3.org/1999/xlink">
    <!-- Generator: Sketch 55.1 (78136) - https://sketchapp.com -->
    <title>释放劳动力</title>
    <desc>Created with Sketch.</desc>
    <g id="赤兔官网" stroke="none" stroke-width="1" fill="none" fill-rule="evenodd">
        <g id="1-2首页_深色" transform="translate(-666.000000, -1681.000000)" fill-rule="nonzero">
            <g id="释放劳动力" transform="translate(667.000000, 1682.000000)">
                <rect id="矩形" fill="#000000" opacity="0" x="0" y="0" width="30" height="30"></rect>
                <path d="M14.1518182,5.94204545 L14.6045454,5.43272728 L20.2104546,10.4154546 L19.7570454,10.9254546 L14.1518182,5.94204545 Z M14.1497727,15.4875 L14.6031818,14.9781818 L20.2084091,19.9602273 L19.7556818,20.4695454 L14.1497727,15.4875 Z M14.1388636,24.0061364 L14.6209091,23.5234091 L20.1170454,29.0195454 L19.635,29.5015909 L14.1388636,24.0061364 Z" id="形状" stroke="#34BDB7" fill="#497CE3"></path>
                <path d="M19.2204546,10.4665909 L28.5497727,0.709090898 L29.0427273,1.18022728 L19.7134091,10.9377273 L19.2204546,10.4665909 Z M19.2184091,20.0093182 L28.5511364,10.2538636 L29.0440909,10.7256818 L19.7113636,20.4804546 L19.2184091,20.0093182 Z M19.1284091,29.0222727 L28.5709091,18.5331818 L29.0775,18.9893182 L19.6356818,29.4784091 L19.1284091,29.0222727 Z M7.1590909,10.2272727 L3.75,10.2272727 C1.8409091,10.2272727 0.340909102,8.72727272 0.340909102,6.81818183 L0.340909102,3.4090909 C0.340909102,1.5 1.8409091,0 3.75,0 L7.1590909,0 C9.0681818,0 10.5681818,1.5 10.5681818,3.4090909 L10.5681818,6.81818183 C10.5681818,8.72727272 9.06818183,10.2272727 7.1590909,10.2272727 Z M3.75,1.36363638 C2.5909091,1.36363638 1.70454545,2.25 1.70454545,3.4090909 L1.70454545,6.81818183 C1.70454545,7.97727272 2.59090907,8.86363638 3.75,8.86363638 L7.1590909,8.86363638 C8.3181818,8.86363638 9.20454545,7.97727275 9.20454545,6.81818183 L9.20454545,3.4090909 C9.20454545,2.25 8.31818183,1.36363638 7.1590909,1.36363638 L3.75,1.36363638 Z M7.1590909,30 L3.75,30 C1.8409091,30 0.340909102,28.5 0.340909102,26.5909091 L0.340909102,23.1818182 C0.340909102,21.2727273 1.8409091,19.7727273 3.75,19.7727273 L7.1590909,19.7727273 C9.0681818,19.7727273 10.5681818,21.2727273 10.5681818,23.1818182 L10.5681818,26.5909091 C10.5681818,28.5 9.06818183,30 7.1590909,30 Z M3.75,21.1363636 C2.5909091,21.1363636 1.70454545,22.0227272 1.70454545,23.1818182 L1.70454545,26.5909091 C1.70454545,27.75 2.59090907,28.6363636 3.75,28.6363636 L7.1590909,28.6363636 C8.3181818,28.6363636 9.20454545,27.75 9.20454545,26.5909091 L9.20454545,23.1818182 C9.20454545,22.0227273 8.31818183,21.1363636 7.1590909,21.1363636 L3.75,21.1363636 Z M1.02272728,14.3181818 L9.20454545,14.3181818 L9.20454545,15.6818182 L1.02272728,15.6818182 L1.02272728,14.3181818 Z" id="形状" stroke="#34BDB7" fill="#3CBDB6"></path>
            </g>
        </g>
    </g>
</svg>