<?xml version="1.0" encoding="UTF-8"?>
<svg width="34px" height="34px" viewBox="0 0 34 34" version="1.1" xmlns="http://www.w3.org/2000/svg" xmlns:xlink="http://www.w3.org/1999/xlink">
    <!-- Generator: Sketch 55.1 (78136) - https://sketchapp.com -->
    <title>售后支持</title>
    <desc>Created with Sketch.</desc>
    <g id="赤兔官网" stroke="none" stroke-width="1" fill="none" fill-rule="evenodd">
        <g id="1-2首页_深色" transform="translate(-1043.000000, -1680.000000)" fill-rule="nonzero">
            <g id="售后支持" transform="translate(1041.000000, 1679.000000)">
                <rect id="矩形" fill="#000000" opacity="0" x="0" y="0" width="38" height="38"></rect>
                <path d="M27.2598047,18.3383398 L23.2519922,18.3383398 C23.2397461,18.3383398 23.2282422,18.3335156 23.2148828,18.3335156 L14.2770898,18.3335156 C14.2648438,18.3335156 14.254082,18.3379688 14.2399805,18.3383398 L10.232168,18.3383398 C5.87552734,18.3383398 2.33121094,21.8826563 2.33121094,26.2389258 C2.33121094,30.5951953 5.87886719,34.140625 10.2355078,34.140625 L27.2598047,34.140625 C31.6160742,34.140625 35.1603906,30.5963086 35.1603906,26.2400391 C35.1603906,21.8837695 31.6171875,18.3383398 27.2598047,18.3383398 Z M21.814375,19.9555664 L18.7476563,25.2670312 L15.6809375,19.9555664 L21.814375,19.9555664 Z M27.2598047,32.5226563 L10.2355078,32.5226563 C6.77060547,32.5226563 3.95177734,29.7023438 3.95177734,26.2389258 C3.95177734,22.7755078 6.77208984,19.9555664 10.2355078,19.9555664 L13.8132227,19.9555664 L18.0470313,27.2883789 C18.1914828,27.5385396 18.4584138,27.692641 18.7472852,27.692641 C19.0361565,27.692641 19.3030875,27.5385396 19.4475391,27.2883789 L23.6817188,19.9555664 L27.2598047,19.9555664 C30.7243359,19.9555664 33.5435352,22.7758789 33.5435352,26.2389258 C33.5435352,29.7019727 30.7243359,32.5226563 27.2598047,32.5226563 Z M18.7476563,16.5808398 C22.7599219,16.5808398 26.0244336,13.3152148 26.0244336,9.30369141 C26.0244336,5.29216797 22.7599219,2.02691406 18.7476563,2.02691406 C14.7353906,2.02691406 11.4705078,5.29253906 11.4705078,9.30369141 C11.4705078,13.3148437 14.7350195,16.5808398 18.7476563,16.5808398 Z M18.7476563,3.64414062 C21.8685547,3.64414062 24.407207,6.18316406 24.407207,9.30369141 C24.407207,12.4242187 21.8685547,14.9636133 18.7476563,14.9636133 C15.6267578,14.9636133 13.0877344,12.4242187 13.0877344,9.30369141 C13.0877344,6.18316406 15.6267578,3.64414062 18.7476563,3.64414062 Z" id="形状" stroke="#35BDB6" stroke-width="0.6" fill="#35BDB6"></path>
            </g>
        </g>
    </g>
</svg>