<?xml version="1.0" encoding="UTF-8"?>
<svg width="32px" height="32px" viewBox="0 0 32 32" version="1.1" xmlns="http://www.w3.org/2000/svg" xmlns:xlink="http://www.w3.org/1999/xlink">
    <!-- Generator: Sketch 55.1 (78136) - https://sketchapp.com -->
    <title>工作100%准确</title>
    <desc>Created with Sketch.</desc>
    <g id="赤兔官网" stroke="none" stroke-width="1" fill="none" fill-rule="evenodd">
        <g id="1-2首页_深色" transform="translate(-666.000000, -1466.000000)" fill-rule="nonzero">
            <g id="工作100%准确" transform="translate(666.000000, 1466.000000)">
                <rect id="矩形" fill="#000000" opacity="0" x="0" y="0" width="32" height="32"></rect>
                <path d="M14.6666667,20.6 C14.2,20.6 13.8,20.4666667 13.4666667,20.1333333 L10.7333333,17.8 C10.4666667,17.5333333 10.4,17.1333333 10.6666667,16.8666667 C10.9333333,16.6 11.3333333,16.5333333 11.6,16.8 L14.3333333,19.1333333 C14.4666667,19.2 14.5333333,19.2666667 14.6666667,19.2666667 C14.8,19.2666666 14.9333333,19.2 15,19.0666667 L20.4666667,12.2666667 C20.6666667,12 21.1333333,11.9333333 21.4,12.1333333 C21.6666667,12.3333333 21.7333333,12.8 21.5333333,13.0666667 L16.0666667,19.8666667 C15.7333333,20.2666667 15.3333333,20.4666667 14.8,20.5333333 C14.8,20.6 14.7333333,20.6 14.6666667,20.6 L14.6666667,20.6 Z M16,26.6666667 C10.1333333,26.6666667 5.33333334,21.8666667 5.33333334,16 C5.33333334,10.1333333 10.1333333,5.33333334 16,5.33333334 C21.8666667,5.33333334 26.6666667,10.1333333 26.6666667,16 C26.6666667,21.9333333 21.8666667,26.6666667 16,26.6666667 Z M16,6.66666666 C10.8666667,6.66666666 6.66666666,10.8666667 6.66666666,16 C6.66666666,21.1333333 10.8666667,25.3333333 16,25.3333333 C21.1333333,25.3333333 25.3333333,21.1333333 25.3333333,16 C25.3333333,10.8666667 21.1333333,6.66666666 16,6.66666666 Z M1.33333334,6.8 C0.933333344,6.8 0.666666656,6.53333334 0.666666656,6.13333334 L0.666666656,2.73333334 C0.666666656,1.6 1.6,0.666666656 2.73333334,0.666666656 L4.66666666,0.666666656 C5.06666666,0.666666656 5.33333334,0.933333312 5.33333334,1.33333334 C5.33333334,1.73333337 5,2 4.66666666,2 L2.73333334,2 C2.33333334,2 2,2.33333334 2,2.73333334 L2,6.13333334 C2,6.53333334 1.73333334,6.8 1.33333334,6.8 Z M4.66666666,31.3333333 L2.73333334,31.3333333 C1.6,31.3333333 0.666666656,30.4 0.666666656,29.2666667 L0.666666656,26.2 C0.666666656,25.8 0.933333313,25.5333333 1.33333334,25.5333333 C1.73333338,25.5333333 2,25.8 2,26.2 L2,29.2666667 C2,29.6666667 2.33333334,30 2.73333334,30 L4.66666666,30 C5.06666666,30 5.33333334,30.2666667 5.33333334,30.6666667 C5.33333334,31.0666667 5,31.3333333 4.66666666,31.3333333 L4.66666666,31.3333333 Z M29.2666667,31.3333333 L27.3333333,31.3333333 C26.9333333,31.3333333 26.6666667,31.0666667 26.6666667,30.6666667 C26.6666667,30.2666666 26.9333333,30 27.3333333,30 L29.2666667,30 C29.6666667,30 30,29.6666667 30,29.2666667 L30,26.2 C30,25.8 30.2666667,25.5333333 30.6666667,25.5333333 C31.0666667,25.5333333 31.3333333,25.8 31.3333333,26.2 L31.3333333,29.2666667 C31.3333333,30.4 30.4,31.3333333 29.2666667,31.3333333 L29.2666667,31.3333333 Z M30.6666667,6.8 C30.2666667,6.8 30,6.53333334 30,6.13333334 L30,2.73333334 C30,2.33333334 29.6666667,2 29.2666667,2 L27.3333333,2 C26.9333333,2 26.6666667,1.73333334 26.6666667,1.33333334 C26.6666667,0.933333344 26.9333333,0.666666656 27.3333333,0.666666656 L29.2666667,0.666666656 C30.4,0.666666656 31.3333333,1.6 31.3333333,2.73333334 L31.3333333,6.13333334 C31.3333333,6.53333334 31.0666667,6.8 30.6666667,6.8 L30.6666667,6.8 Z" id="形状" stroke="#34BDB7" fill="#3DBDB6"></path>
            </g>
        </g>
    </g>
</svg>