<?xml version="1.0" encoding="UTF-8"?>
<svg width="80px" height="80px" viewBox="0 0 80 80" version="1.1" xmlns="http://www.w3.org/2000/svg" xmlns:xlink="http://www.w3.org/1999/xlink">
    <!-- Generator: Sketch 55.1 (78136) - https://sketchapp.com -->
    <title>传输和交流</title>
    <desc>Created with Sketch.</desc>
    <g id="赤兔官网" stroke="none" stroke-width="1" fill="none" fill-rule="evenodd">
        <g id="1-2首页_深色" transform="translate(-328.000000, -3404.000000)">
            <g id="传输和交流" transform="translate(328.000000, 3404.000000)">
                <circle id="椭圆形备份-6" fill="#3DBDB6" cx="40" cy="40" r="40"></circle>
                <g id="云计算-65" transform="translate(21.000000, 21.000000)" fill-rule="nonzero">
                    <rect id="矩形" fill="#000000" opacity="0" x="0" y="0" width="38" height="38"></rect>
                    <path d="M28.9453125,19.0296875 L8.7578125,19.0296875 C6.3234375,19.0296875 4.3640625,17.0703125 4.3640625,14.6359375 C4.3640625,13.3296875 4.9578125,12.0828125 5.9671875,11.2515625 C5.9375,11.04375 5.9375,10.8359375 5.9375,10.5984375 C5.9375,7.48125 8.075,4.8390625 11.0734375,4.15625 C12.0828125,1.6625 14.4875,0 17.21875,0 C19.11875,0 20.8703125,0.8015625 22.1171875,2.1671875 C22.8890625,1.8703125 23.7203125,1.6921875 24.5515625,1.6921875 C28.203125,1.6921875 31.171875,4.6609375 31.171875,8.2828125 C31.171875,9.084375 31.0234375,9.85625 30.75625,10.5984375 C32.3,11.3109375 33.309375,12.8546875 33.309375,14.5765625 C33.3390625,17.040625 31.35,19.0296875 28.9453125,19.0296875 Z M17.2484375,1.1875 C14.9328125,1.1875 12.8546875,2.671875 12.1125,4.86875 C12.053125,5.0765625 11.875,5.225 11.6375,5.2546875 C9.025,5.7 7.125,7.95625 7.125,10.5984375 C7.125,10.865625 7.1546875,11.1625 7.184375,11.4296875 C7.2140625,11.6671875 7.125,11.875 6.946875,11.99375 C6.0859375,12.5875 5.5515625,13.5671875 5.5515625,14.6359375 C5.5515625,16.3875 6.9765625,17.8421875 8.7578125,17.8421875 L28.9453125,17.8421875 C30.696875,17.8421875 32.1515625,16.4171875 32.1515625,14.6359375 C32.1515625,13.2109375 31.2015625,11.9640625 29.8359375,11.5484375 C29.6578125,11.4890625 29.5390625,11.3703125 29.45,11.221875 C29.390625,11.0734375 29.390625,10.865625 29.45,10.7171875 C29.8359375,9.975 30.0140625,9.1734375 30.0140625,8.3125 C30.0140625,5.3140625 27.5796875,2.909375 24.58125,2.909375 C23.75,2.909375 22.978125,3.0875 22.2359375,3.44375 C21.9984375,3.5625 21.671875,3.503125 21.5234375,3.265625 C20.484375,1.959375 18.9109375,1.1875 17.2484375,1.1875 Z M28.9453125,16.3578125 L8.7578125,16.3578125 C8.5796875,16.3578125 8.4609375,16.2390625 8.4609375,16.0609375 C8.4609375,15.8828125 8.5796875,15.7640625 8.7578125,15.7640625 L28.9453125,15.7640625 C29.56875,15.7640625 30.0734375,15.259375 30.0734375,14.6359375 C30.0734375,14.4578125 30.1921875,14.3390625 30.3703125,14.3390625 C30.5484375,14.3390625 30.6671875,14.4578125 30.6671875,14.6359375 C30.6671875,15.5859375 29.8953125,16.3578125 28.9453125,16.3578125 Z M7.778125,28.321875 C5.878125,28.321875 4.334375,26.778125 4.334375,24.878125 C4.334375,22.978125 5.878125,21.434375 7.778125,21.434375 C9.678125,21.434375 11.221875,22.978125 11.221875,24.878125 C11.221875,26.778125 9.678125,28.321875 7.778125,28.321875 Z M7.778125,22.621875 C6.53125,22.621875 5.521875,23.63125 5.521875,24.878125 C5.521875,26.125 6.53125,27.134375 7.778125,27.134375 C9.025,27.134375 10.034375,26.125 10.034375,24.878125 C10.034375,23.63125 9.025,22.621875 7.778125,22.621875 L7.778125,22.621875 Z M14.9921875,37.703125 L0.59375,37.703125 C0.2671875,37.703125 0,37.4359375 0,37.109375 C0,32.8046875 3.503125,29.3015625 7.778125,29.3015625 C12.0828125,29.3015625 15.5859375,32.8046875 15.5859375,37.109375 C15.5859375,37.4359375 15.31875,37.703125 14.9921875,37.703125 Z M1.2171875,36.515625 L14.36875,36.515625 C14.071875,33.13125 11.221875,30.4890625 7.8078125,30.4890625 C4.39375,30.4890625 1.5140625,33.13125 1.2171875,36.515625 Z M29.925,28.321875 C28.025,28.321875 26.48125,26.778125 26.48125,24.878125 C26.48125,22.978125 28.025,21.434375 29.925,21.434375 C31.825,21.434375 33.36875,22.978125 33.36875,24.878125 C33.3390625,26.778125 31.7953125,28.321875 29.925,28.321875 Z M29.925,22.621875 C28.678125,22.621875 27.66875,23.63125 27.66875,24.878125 C27.66875,26.125 28.678125,27.134375 29.925,27.134375 C31.171875,27.134375 32.18125,26.125 32.18125,24.878125 C32.1515625,23.63125 31.1421875,22.621875 29.925,22.621875 Z M37.109375,37.703125 L22.7109375,37.703125 C22.384375,37.703125 22.1171875,37.4359375 22.1171875,37.109375 C22.1171875,32.8046875 25.6203125,29.3015625 29.8953125,29.3015625 C34.2,29.3015625 37.6734375,32.8046875 37.6734375,37.109375 C37.703125,37.4359375 37.4359375,37.703125 37.109375,37.703125 Z M23.334375,36.515625 L36.4859375,36.515625 C36.1890625,33.13125 33.3390625,30.4890625 29.925,30.4890625 C26.48125,30.4890625 23.63125,33.13125 23.334375,36.515625 L23.334375,36.515625 Z M17.1890625,26.00625 L13.478125,26.00625 C13.1515625,26.00625 12.884375,25.7390625 12.884375,25.4125 C12.884375,25.0859375 13.1515625,24.81875 13.478125,24.81875 L16.5953125,24.81875 L16.5953125,18.4359375 C16.5953125,18.109375 16.8625,17.8421875 17.1890625,17.8421875 C17.515625,17.8421875 17.7828125,18.109375 17.7828125,18.4359375 L17.7828125,25.4421875 C17.7828125,25.7390625 17.515625,26.00625 17.1890625,26.00625 L17.1890625,26.00625 Z M24.225,26.00625 L20.5140625,26.00625 C20.1875,26.00625 19.9203125,25.7390625 19.9203125,25.4125 L19.9203125,18.4359375 C19.9203125,18.109375 20.1875,17.8421875 20.5140625,17.8421875 C20.840625,17.8421875 21.1078125,18.109375 21.1078125,18.4359375 L21.1078125,24.8484375 L24.225,24.8484375 C24.5515625,24.8484375 24.81875,25.115625 24.81875,25.4421875 C24.81875,25.76875 24.5515625,26.00625 24.225,26.00625 L24.225,26.00625 Z" id="形状" stroke="#FFFFFF" fill="#FFFFFF"></path>
                </g>
            </g>
        </g>
    </g>
</svg>