<?xml version="1.0" encoding="UTF-8"?>
<svg width="34px" height="34px" viewBox="0 0 34 34" version="1.1" xmlns="http://www.w3.org/2000/svg" xmlns:xlink="http://www.w3.org/1999/xlink">
    <!-- Generator: Sketch 55.1 (78136) - https://sketchapp.com -->
    <title>丰富灵活的拓展</title>
    <desc>Created with Sketch.</desc>
    <g id="赤兔官网" stroke="none" stroke-width="1" fill="none" fill-rule="evenodd">
        <g id="1-2首页_深色" transform="translate(-288.000000, -1680.000000)" fill-rule="nonzero">
            <g id="丰富灵活的拓展" transform="translate(286.000000, 1678.000000)">
                <rect id="矩形" fill="#000000" opacity="0" x="0" y="0" width="38" height="38"></rect>
                <path d="M34.7722266,20.5426367 L28.6183789,14.5446484 C28.5740705,14.5013859 28.5540593,14.4389902 28.5649414,14.3780273 L30.0174023,5.90855469 C30.1658398,5.04279297 29.8162695,4.18445312 29.105625,3.66826172 C28.3957227,3.15244141 27.4713281,3.08490234 26.6931445,3.49384766 L19.087207,7.49238281 C19.087207,7.49275391 19.0868359,7.49275391 19.0868359,7.49275391 C19.0322852,7.52132812 18.9673438,7.52169922 18.912793,7.49238281 L11.3068555,3.49384766 C10.5286719,3.08527344 9.60427734,3.15244141 8.894375,3.66826172 C8.18373047,4.18445312 7.83416016,5.04279297 7.98259766,5.90855469 L9.43542969,14.3787695 C9.44582031,14.4392578 9.42578125,14.5012305 9.38087891,14.5442773 L3.22777344,20.5426367 C2.59876953,21.1560547 2.37648438,22.055957 2.648125,22.8912891 C2.91976563,23.7266211 3.62855469,24.324082 4.49728516,24.4498828 L13.0008984,25.685625 C13.0625,25.6945312 13.1155664,25.733125 13.1426563,25.788418 L16.9459961,33.4941797 C17.3345313,34.2823828 18.1216211,34.7714844 19,34.7714844 C19.8783789,34.7714844 20.6654688,34.2823828 21.0547461,33.4945508 L24.8569727,25.7891602 C24.8848047,25.7334961 24.9375,25.6949023 24.9991016,25.6859961 L33.5019727,24.450625 C34.3710742,24.3244531 35.0802344,23.7269922 35.351875,22.8916602 C35.6235156,22.0563281 35.4012305,21.1560547 34.7722266,20.5426367 Z M33.3516797,22.2415039 C33.3156836,22.3524609 33.2288477,22.3650781 33.1995312,22.3691602 L24.695918,23.6049023 C23.9499304,23.7134469 23.3050136,24.1818718 22.9710742,24.8577148 L19.1688477,32.5634766 C19.1558594,32.5894531 19.1168945,32.6684961 19,32.6684961 C18.8831055,32.6684961 18.8437695,32.5894531 18.8315234,32.5634766 L15.0281836,24.8577148 C14.6943669,24.1819273 14.0495856,23.7134999 13.3037109,23.6049023 L4.79972656,22.3687891 C4.77115234,22.364707 4.68431641,22.3520898 4.64832031,22.2411328 C4.61195312,22.1298047 4.67503906,22.0682031 4.69619141,22.0481641 L10.8489258,16.0505469 C11.3896094,15.5239648 11.6360156,14.7654492 11.5079883,14.0228906 L10.0555273,5.55341797 C10.050332,5.52484375 10.0354883,5.43800781 10.1301172,5.36935547 C10.1705664,5.34003906 10.2080469,5.33076172 10.2399609,5.33076172 C10.2818945,5.33076172 10.3138086,5.34746094 10.3282812,5.35525391 L17.9338477,9.35378906 C18.6013993,9.7048462 19.3989718,9.7048462 20.0665234,9.35378906 L27.6720898,5.35525391 C27.6976953,5.34226562 27.7763672,5.30144531 27.8702539,5.36935547 C27.9648828,5.43800781 27.949668,5.52484375 27.9448437,5.55341797 L26.493125,14.0217773 C26.364839,14.7651987 26.6110945,15.5240931 27.1514453,16.0505469 L33.3045508,22.0481641 C33.3249609,22.0685742 33.3880469,22.1301758 33.3516797,22.2415039 Z" id="形状" stroke="#34BDB7" stroke-width="0.5" fill="#34BDB7"></path>
                <path d="M10.6336914,27.8227539 L5.90224609,32.5541992 C5.49144531,32.9646289 5.49144531,33.6303711 5.90224609,34.0411719 C6.10746094,34.2463867 6.37650391,34.3491797 6.64554687,34.3491797 C6.91458984,34.3491797 7.18363281,34.2463867 7.38884766,34.0411719 L12.120293,29.3097266 C12.5310938,28.8992969 12.5310938,28.2335547 12.120293,27.8227539 C11.7098633,27.4119531 11.0444922,27.4119531 10.6336914,27.8227539 Z" id="路径" fill="#34BDB7"></path>
            </g>
        </g>
    </g>
</svg>