<?xml version="1.0" encoding="UTF-8"?>
<svg width="80px" height="80px" viewBox="0 0 80 80" version="1.1" xmlns="http://www.w3.org/2000/svg" xmlns:xlink="http://www.w3.org/1999/xlink">
    <!-- Generator: Sketch 55.1 (78136) - https://sketchapp.com -->
    <title>生成报表</title>
    <desc>Created with Sketch.</desc>
    <g id="赤兔官网" stroke="none" stroke-width="1" fill="none" fill-rule="evenodd">
        <g id="1-2首页_深色" transform="translate(-938.000000, -3404.000000)">
            <g id="生成报表" transform="translate(938.000000, 3404.000000)">
                <circle id="椭圆形备份-4" fill="#3DBDB6" cx="40" cy="40" r="40"></circle>
                <g id="云计算-36" transform="translate(21.000000, 21.000000)" fill-rule="nonzero">
                    <rect id="矩形" fill="#000000" opacity="0" x="0" y="0" width="38" height="38"></rect>
                    <path d="M30.3109375,26.184375 C29.984375,26.184375 29.7171875,25.9171875 29.7171875,25.590625 C29.7171875,25.2640625 29.984375,24.996875 30.3109375,24.996875 C33.8140625,24.996875 36.6640625,22.146875 36.6640625,18.64375 C36.6640625,15.55625 34.4671875,12.94375 31.4390625,12.3796875 C31.1421875,12.3203125 30.9640625,12.0828125 30.9640625,11.7859375 L30.9640625,11.6671875 C30.9640625,5.9671875 26.3328125,1.3359375 20.6328125,1.3359375 C18.0796875,1.3359375 15.6453125,2.25625 13.7453125,3.978125 C13.596875,4.1265625 13.3890625,4.15625 13.18125,4.096875 C12.6171875,3.9484375 12.053125,3.859375 11.4890625,3.859375 C7.9859375,3.859375 5.1359375,6.709375 5.1359375,10.2125 C5.1359375,10.865625 5.225,11.4890625 5.4328125,12.0828125 C5.521875,12.3796875 5.3734375,12.6765625 5.10625,12.7953125 C2.8203125,13.8640625 1.3359375,16.15 1.3359375,18.64375 C1.3359375,22.146875 4.1859375,24.996875 7.6890625,24.996875 C8.015625,24.996875 8.2828125,25.2640625 8.2828125,25.590625 C8.2828125,25.9171875 8.015625,26.184375 7.6890625,26.184375 C3.5328125,26.184375 0.1484375,22.8 0.1484375,18.64375 C0.1484375,15.853125 1.6921875,13.3 4.15625,11.99375 C4.0078125,11.4296875 3.9484375,10.8359375 3.9484375,10.2421875 C3.9484375,6.05625 7.3328125,2.671875 11.4890625,2.671875 C12.053125,2.671875 12.6171875,2.73125 13.18125,2.85 C15.259375,1.0984375 17.9015625,0.11875 20.6328125,0.11875 C26.8671875,0.11875 31.9734375,5.10625 32.1515625,11.28125 C35.4765625,12.1125 37.8515625,15.1109375 37.8515625,18.6140625 C37.8515625,22.8 34.4671875,26.184375 30.3109375,26.184375 Z M30.28125,19.8609375 L7.71875,19.8609375 C7.540625,19.8609375 7.421875,19.7421875 7.421875,19.5640625 L7.421875,14.0125 C7.421875,13.834375 7.540625,13.715625 7.71875,13.715625 L30.28125,13.715625 C30.459375,13.715625 30.578125,13.834375 30.578125,14.0125 L30.578125,19.5640625 C30.578125,19.7421875 30.4296875,19.8609375 30.28125,19.8609375 Z M8.015625,19.2671875 L29.984375,19.2671875 L29.984375,14.309375 L8.015625,14.309375 L8.015625,19.2671875 Z M30.28125,37.8515625 L7.71875,37.8515625 C7.3921875,37.8515625 7.125,37.584375 7.125,37.2578125 L7.125,14.0125 C7.125,13.6859375 7.3921875,13.41875 7.71875,13.41875 L30.28125,13.41875 C30.6078125,13.41875 30.875,13.6859375 30.875,14.0125 L30.875,37.2578125 C30.875,37.584375 30.6078125,37.8515625 30.28125,37.8515625 Z M8.3125,36.6640625 L29.6875,36.6640625 L29.6875,14.60625 L8.3125,14.60625 L8.3125,36.6640625 Z M12.053125,16.565625 C11.875,16.565625 11.75625,16.446875 11.75625,16.26875 L11.75625,11.75625 C11.75625,11.578125 11.875,11.459375 12.053125,11.459375 C12.23125,11.459375 12.35,11.578125 12.35,11.75625 L12.35,16.2390625 C12.35,16.4171875 12.2015625,16.565625 12.053125,16.565625 L12.053125,16.565625 Z M25.946875,16.565625 C25.76875,16.565625 25.65,16.446875 25.65,16.26875 L25.65,11.75625 C25.65,11.578125 25.76875,11.459375 25.946875,11.459375 C26.125,11.459375 26.24375,11.578125 26.24375,11.75625 L26.24375,16.2390625 C26.24375,16.4171875 26.125,16.565625 25.946875,16.565625 L25.946875,16.565625 Z M14.13125,24.2546875 L11.103125,24.2546875 C10.925,24.2546875 10.80625,24.1359375 10.80625,23.9578125 C10.80625,23.7796875 10.925,23.6609375 11.103125,23.6609375 L14.1609375,23.6609375 C14.3390625,23.6609375 14.4578125,23.7796875 14.4578125,23.9578125 C14.4578125,24.1359375 14.309375,24.2546875 14.13125,24.2546875 Z M14.13125,28.7078125 L11.103125,28.7078125 C10.925,28.7078125 10.80625,28.5890625 10.80625,28.4109375 C10.80625,28.2328125 10.925,28.1140625 11.103125,28.1140625 L14.1609375,28.1140625 C14.3390625,28.1140625 14.4578125,28.2328125 14.4578125,28.4109375 C14.4578125,28.5890625 14.309375,28.7078125 14.13125,28.7078125 Z M14.13125,33.1609375 L11.103125,33.1609375 C10.925,33.1609375 10.80625,33.0421875 10.80625,32.8640625 C10.80625,32.6859375 10.925,32.5671875 11.103125,32.5671875 L14.1609375,32.5671875 C14.3390625,32.5671875 14.4578125,32.6859375 14.4578125,32.8640625 C14.4578125,33.0421875 14.309375,33.1609375 14.13125,33.1609375 Z M20.5140625,24.2546875 L17.4859375,24.2546875 C17.3078125,24.2546875 17.1890625,24.1359375 17.1890625,23.9578125 C17.1890625,23.7796875 17.3078125,23.6609375 17.4859375,23.6609375 L20.54375,23.6609375 C20.721875,23.6609375 20.840625,23.7796875 20.840625,23.9578125 C20.840625,24.1359375 20.6921875,24.2546875 20.5140625,24.2546875 L20.5140625,24.2546875 Z M20.5140625,28.7078125 L17.4859375,28.7078125 C17.3078125,28.7078125 17.1890625,28.5890625 17.1890625,28.4109375 C17.1890625,28.2328125 17.3078125,28.1140625 17.4859375,28.1140625 L20.54375,28.1140625 C20.721875,28.1140625 20.840625,28.2328125 20.840625,28.4109375 C20.840625,28.5890625 20.6921875,28.7078125 20.5140625,28.7078125 L20.5140625,28.7078125 Z M20.5140625,33.1609375 L17.4859375,33.1609375 C17.3078125,33.1609375 17.1890625,33.0421875 17.1890625,32.8640625 C17.1890625,32.6859375 17.3078125,32.5671875 17.4859375,32.5671875 L20.54375,32.5671875 C20.721875,32.5671875 20.840625,32.6859375 20.840625,32.8640625 C20.840625,33.0421875 20.6921875,33.1609375 20.5140625,33.1609375 L20.5140625,33.1609375 Z M26.896875,24.2546875 L23.86875,24.2546875 C23.690625,24.2546875 23.571875,24.1359375 23.571875,23.9578125 C23.571875,23.7796875 23.690625,23.6609375 23.86875,23.6609375 L26.9265625,23.6609375 C27.1046875,23.6609375 27.2234375,23.7796875 27.2234375,23.9578125 C27.2234375,24.1359375 27.075,24.2546875 26.896875,24.2546875 L26.896875,24.2546875 Z M26.896875,28.7078125 L23.86875,28.7078125 C23.690625,28.7078125 23.571875,28.5890625 23.571875,28.4109375 C23.571875,28.2328125 23.690625,28.1140625 23.86875,28.1140625 L26.9265625,28.1140625 C27.1046875,28.1140625 27.2234375,28.2328125 27.2234375,28.4109375 C27.2234375,28.5890625 27.075,28.7078125 26.896875,28.7078125 L26.896875,28.7078125 Z M26.896875,33.1609375 L23.86875,33.1609375 C23.690625,33.1609375 23.571875,33.0421875 23.571875,32.8640625 C23.571875,32.6859375 23.690625,32.5671875 23.86875,32.5671875 L26.9265625,32.5671875 C27.1046875,32.5671875 27.2234375,32.6859375 27.2234375,32.8640625 C27.2234375,33.0421875 27.075,33.1609375 26.896875,33.1609375 L26.896875,33.1609375 Z" id="形状" stroke="#FFFFFF" fill="#FFFFFF"></path>
                </g>
            </g>
        </g>
    </g>
</svg>