<?xml version="1.0" encoding="UTF-8"?>
<svg width="18px" height="18px" viewBox="0 0 18 18" version="1.1" xmlns="http://www.w3.org/2000/svg" xmlns:xlink="http://www.w3.org/1999/xlink">
    <!-- Generator: Sketch 55.1 (78136) - https://sketchapp.com -->
    <title>箭头</title>
    <desc>Created with Sketch.</desc>
    <g id="赤兔官网" stroke="none" stroke-width="1" fill="none" fill-rule="evenodd">
        <g id="1-2首页_深色" transform="translate(-359.000000, -3212.000000)" fill-rule="nonzero">
            <g id="箭头" transform="translate(368.000000, 3221.000000) scale(-1, 1) translate(-368.000000, -3221.000000) translate(357.000000, 3210.000000)">
                <rect id="矩形" fill="#000000" opacity="0" x="0" y="0" width="22" height="22"></rect>
                <path d="M11.7645,17.24844 C12.21352,17.69746 12.21352,18.42588 11.7645,18.8749 C11.31548,19.32414 10.58728,19.32414 10.13804,18.8749 L3.07604,11.81312 C2.85164,11.5885 2.73944,11.29436 2.73944,11 C2.73944,10.70564 2.85186,10.41128 3.07604,10.18688 L10.13804,3.1251 C10.58728,2.67586 11.31548,2.67586 11.7645,3.1251 C12.21352,3.57412 12.21352,4.30232 11.7645,4.75156 L5.51606,11 L11.7645,17.24844 Z M12.67508,11 L18.92352,4.75156 C19.37254,4.30232 19.37254,3.57412 18.92352,3.1251 C18.4745,2.67586 17.7463,2.67586 17.29706,3.1251 L10.23506,10.18688 C10.01066,10.4115 9.89846,10.70564 9.89846,11 C9.89846,11.29436 10.01088,11.58872 10.23506,11.81312 L17.29706,18.8749 C17.7463,19.32414 18.4745,19.32414 18.92352,18.8749 C19.37254,18.42588 19.37254,17.69746 18.92352,17.24844 L12.67508,11 Z" id="形状" fill="#898EA2"></path>
            </g>
        </g>
    </g>
</svg>