<?xml version="1.0" encoding="UTF-8"?>
<svg width="80px" height="80px" viewBox="0 0 80 80" version="1.1" xmlns="http://www.w3.org/2000/svg" xmlns:xlink="http://www.w3.org/1999/xlink">
    <!-- Generator: Sketch 55.1 (78136) - https://sketchapp.com -->
    <title>计算、决策推出</title>
    <desc>Created with Sketch.</desc>
    <g id="赤兔官网" stroke="none" stroke-width="1" fill="none" fill-rule="evenodd">
        <g id="1-2首页_深色" transform="translate(-1090.000000, -3181.000000)">
            <g id="计算、决策推出" transform="translate(1090.000000, 3181.000000)">
                <circle id="椭圆形备份-3" fill="#C4EBE9" cx="40" cy="40" r="40"></circle>
                <g id="云计算-43" transform="translate(21.000000, 21.000000)" fill-rule="nonzero">
                    <rect id="矩形" fill="#18BDB8" opacity="0" x="0" y="0" width="38" height="38"></rect>
                    <path d="M32.2703125,26.184375 L22.740625,26.184375 C22.4140625,26.184375 22.146875,25.9171875 22.146875,25.590625 C22.146875,25.2640625 22.4140625,24.996875 22.740625,24.996875 L32.2703125,24.996875 C34.7046875,24.996875 36.6640625,22.8890625 36.6640625,20.30625 C36.6640625,18.228125 35.3578125,16.3578125 33.4578125,15.79375 C33.2796875,15.734375 33.1609375,15.615625 33.1015625,15.4671875 C33.0421875,15.31875 33.0421875,15.140625 33.1015625,14.9625 C33.60625,13.89375 33.8734375,12.70625 33.8734375,11.4890625 C33.8734375,7.184375 30.578125,3.7109375 26.5703125,3.7109375 C25.471875,3.7109375 24.403125,3.978125 23.39375,4.4828125 C23.1265625,4.6015625 22.8296875,4.5421875 22.6515625,4.3046875 C21.25625,2.4046875 19.1484375,1.3359375 16.8921875,1.3359375 C13.775,1.3359375 10.984375,3.44375 9.975,6.6203125 C9.915625,6.828125 9.7375,6.9765625 9.5296875,7.0359375 C5.996875,7.659375 3.44375,10.8953125 3.44375,14.725 C3.44375,15.1109375 3.4734375,15.5265625 3.5328125,15.9125 C3.5625,16.1203125 3.4734375,16.3578125 3.2953125,16.4765625 C2.078125,17.3671875 1.365625,18.7921875 1.365625,20.365625 C1.365625,22.9484375 3.325,25.05625 5.759375,25.05625 L15.2890625,25.05625 C15.615625,25.05625 15.8828125,25.3234375 15.8828125,25.65 C15.8828125,25.9765625 15.615625,26.24375 15.2890625,26.24375 L5.7296875,26.24375 C2.6421875,26.24375 0.1484375,23.6015625 0.1484375,20.365625 C0.1484375,18.5546875 0.95,16.8625 2.2859375,15.734375 C2.25625,15.4078125 2.2265625,15.0515625 2.2265625,14.725 C2.2265625,10.45 5.0171875,6.828125 8.9359375,5.9375 C10.1828125,2.4640625 13.359375,0.1484375 16.8921875,0.1484375 C19.35625,0.1484375 21.671875,1.2765625 23.3046875,3.20625 C24.34375,2.7609375 25.4421875,2.5234375 26.5703125,2.5234375 C31.2609375,2.5234375 35.0609375,6.5609375 35.0609375,11.4890625 C35.0609375,12.646875 34.853125,13.8046875 34.4375,14.8734375 C36.4859375,15.79375 37.8515625,17.93125 37.8515625,20.30625 C37.8515625,23.5421875 35.3578125,26.184375 32.2703125,26.184375 Z M30.1328125,15.140625 C30.103125,15.140625 30.04375,15.140625 30.0140625,15.1109375 C29.865625,15.0515625 29.80625,14.8734375 29.865625,14.725 C30.221875,13.9828125 30.3703125,13.2109375 30.3703125,12.3796875 C30.3703125,9.5296875 28.2328125,7.184375 25.6203125,7.184375 C24.9078125,7.184375 24.225,7.3625 23.6015625,7.659375 L21.96875,8.5203125 C21.85,8.5796875 21.671875,8.55 21.5828125,8.43125 L20.484375,6.946875 C19.5640625,5.7 18.228125,5.0171875 16.7734375,5.0171875 C14.7546875,5.0171875 12.94375,6.4125 12.290625,8.490625 C12.23125,8.6390625 12.0828125,8.728125 11.9046875,8.66875 C11.75625,8.609375 11.6671875,8.4609375 11.7265625,8.2828125 C12.46875,5.9671875 14.5171875,4.39375 16.7734375,4.39375 C18.40625,4.39375 19.9203125,5.1953125 20.959375,6.590625 L21.909375,7.8671875 L23.334375,7.1546875 C24.046875,6.7984375 24.81875,6.590625 25.6203125,6.590625 C28.559375,6.590625 30.9640625,9.1734375 30.9640625,12.3796875 C30.9640625,13.3 30.7859375,14.1609375 30.4,14.9921875 C30.340625,15.08125 30.2515625,15.140625 30.1328125,15.140625 L30.1328125,15.140625 Z M19,27.66875 C15.2890625,27.66875 12.2609375,24.1359375 12.2609375,19.771875 C12.2609375,19.4453125 12.528125,19.178125 12.8546875,19.178125 C13.18125,19.178125 13.4484375,19.4453125 13.4484375,19.771875 C13.4484375,23.453125 15.9421875,26.48125 19,26.48125 C22.0578125,26.48125 24.5515625,23.4828125 24.5515625,19.771875 C24.5515625,19.4453125 24.81875,19.178125 25.1453125,19.178125 C25.471875,19.178125 25.7390625,19.4453125 25.7390625,19.771875 C25.7390625,24.1359375 22.7109375,27.66875 19,27.66875 L19,27.66875 Z M25.1453125,34.971875 C24.81875,34.971875 24.5515625,34.7046875 24.5515625,34.378125 C24.5515625,30.696875 22.0578125,27.66875 19,27.66875 C15.9421875,27.66875 13.4484375,30.6671875 13.4484375,34.378125 C13.4484375,34.7046875 13.18125,34.971875 12.8546875,34.971875 C12.528125,34.971875 12.2609375,34.7046875 12.2609375,34.378125 C12.2609375,30.0140625 15.2890625,26.48125 19,26.48125 C22.7109375,26.48125 25.7390625,30.0140625 25.7390625,34.378125 C25.7390625,34.7046875 25.471875,34.971875 25.1453125,34.971875 L25.1453125,34.971875 Z M26.6,20.06875 L11.4,20.06875 C11.0734375,20.06875 10.80625,19.8015625 10.80625,19.475 L10.80625,16.5953125 C10.80625,16.26875 11.0734375,16.0015625 11.4,16.0015625 L26.6,16.0015625 C26.9265625,16.0015625 27.19375,16.26875 27.19375,16.5953125 L27.19375,19.475 C27.19375,19.8015625 26.9265625,20.06875 26.6,20.06875 Z M11.99375,18.88125 L26.00625,18.88125 L26.00625,17.1890625 L11.99375,17.1890625 L11.99375,18.88125 Z M26.6,37.8515625 L11.4,37.8515625 C11.0734375,37.8515625 10.80625,37.584375 10.80625,37.2578125 L10.80625,34.378125 C10.80625,34.0515625 11.0734375,33.784375 11.4,33.784375 L26.6,33.784375 C26.9265625,33.784375 27.19375,34.0515625 27.19375,34.378125 L27.19375,37.2578125 C27.19375,37.584375 26.9265625,37.8515625 26.6,37.8515625 Z M11.99375,36.6640625 L26.00625,36.6640625 L26.00625,34.971875 L11.99375,34.971875 L11.99375,36.6640625 Z" id="形状" stroke="#00BDBA" fill="#18BDB9"></path>
                </g>
            </g>
        </g>
    </g>
</svg>