<?xml version="1.0" encoding="UTF-8"?>
<svg width="80px" height="80px" viewBox="0 0 80 80" version="1.1" xmlns="http://www.w3.org/2000/svg" xmlns:xlink="http://www.w3.org/1999/xlink">
    <!-- Generator: Sketch 55.1 (78136) - https://sketchapp.com -->
    <title>记录信息</title>
    <desc>Created with Sketch.</desc>
    <g id="赤兔官网" stroke="none" stroke-width="1" fill="none" fill-rule="evenodd">
        <g id="1-2首页_深色" transform="translate(-785.000000, -3181.000000)">
            <g id="记录信息" transform="translate(785.000000, 3181.000000)">
                <circle id="椭圆形备份-2" fill="#3DBDB6" cx="40" cy="40" r="40"></circle>
                <g id="云计算-69" transform="translate(21.000000, 21.000000)" fill-rule="nonzero">
                    <rect id="矩形" fill="#000000" opacity="0" x="0" y="0" width="38" height="38"></rect>
                    <path d="M12.4390625,15.734375 C9.8859375,15.734375 7.8078125,13.65625 7.8078125,11.103125 C7.8078125,9.440625 8.6984375,7.9265625 10.09375,7.125 C10.034375,6.828125 10.0046875,6.53125 10.0046875,6.234375 C10.0046875,4.9875 10.4796875,3.8296875 11.3703125,2.96875 C12.23125,2.1078125 13.41875,1.603125 14.6359375,1.603125 C14.9328125,1.603125 15.259375,1.6328125 15.55625,1.6921875 C16.803125,0.6828125 18.346875,0.11875 19.9203125,0.11875 C22.325,0.11875 24.5515625,1.365625 25.7984375,3.384375 C27.8171875,3.7109375 29.271875,5.4328125 29.271875,7.5109375 C29.271875,7.778125 29.2421875,8.015625 29.1828125,8.2828125 C29.7765625,9.084375 30.103125,10.0640625 30.103125,11.0734375 C30.103125,12.3203125 29.628125,13.478125 28.7375,14.3390625 C27.8765625,15.2 26.6890625,15.7046875 25.471875,15.7046875 L12.4390625,15.734375 Z M14.6359375,2.790625 C13.715625,2.790625 12.8546875,3.146875 12.2015625,3.8 C11.578125,4.453125 11.221875,5.3140625 11.221875,6.234375 C11.221875,6.590625 11.28125,6.9171875 11.3703125,7.24375 C11.459375,7.540625 11.3109375,7.8375 11.04375,7.95625 C9.796875,8.5203125 9.025,9.7375 9.025,11.103125 C9.025,13.003125 10.56875,14.546875 12.46875,14.546875 L25.5609375,14.546875 C26.48125,14.546875 27.3421875,14.190625 27.9953125,13.5375 C28.6484375,12.884375 29.0046875,12.0234375 29.0046875,11.103125 C29.0046875,10.271875 28.7078125,9.4703125 28.1734375,8.846875 C28.0546875,8.6984375 27.9953125,8.490625 28.0546875,8.3125 C28.1140625,8.0453125 28.1734375,7.778125 28.1734375,7.540625 C28.1734375,5.996875 27.015625,4.690625 25.4421875,4.5421875 C25.234375,4.5125 25.0859375,4.4234375 24.9671875,4.2453125 C23.9578125,2.434375 22.028125,1.30625 19.95,1.30625 C18.525,1.30625 17.1890625,1.8109375 16.1203125,2.7609375 C15.971875,2.909375 15.7640625,2.9390625 15.55625,2.8796875 C15.259375,2.85 14.9625,2.790625 14.6359375,2.790625 L14.6359375,2.790625 Z M12.4390625,13.0625 C12.2609375,13.0625 12.1421875,12.94375 12.1421875,12.765625 C12.1421875,12.5875 12.2609375,12.46875 12.4390625,12.46875 L25.53125,12.46875 C25.8875,12.46875 26.24375,12.3203125 26.48125,12.0828125 C26.7484375,11.815625 26.8671875,11.4890625 26.8671875,11.1328125 C26.8671875,10.9546875 26.9859375,10.8359375 27.1640625,10.8359375 C27.3421875,10.8359375 27.4609375,10.9546875 27.4609375,11.1328125 C27.4609375,11.6671875 27.253125,12.1421875 26.896875,12.528125 C26.540625,12.884375 26.0359375,13.0921875 25.5015625,13.0921875 L12.4390625,13.0625 Z M29.56875,25.2640625 C29.2421875,25.2640625 28.975,24.996875 28.975,24.6703125 L28.975,20.8109375 L9.025,20.8109375 L9.025,24.6703125 C9.025,24.996875 8.7578125,25.2640625 8.43125,25.2640625 C8.1046875,25.2640625 7.8375,24.996875 7.8375,24.6703125 L7.8375,20.2171875 C7.8375,19.890625 8.1046875,19.6234375 8.43125,19.6234375 L29.5984375,19.6234375 C29.925,19.6234375 30.1921875,19.890625 30.1921875,20.2171875 L30.1921875,24.6703125 C30.1625,24.996875 29.925,25.2640625 29.56875,25.2640625 Z M19,20.8109375 C18.6734375,20.8109375 18.40625,20.54375 18.40625,20.2171875 L18.40625,15.140625 C18.40625,14.8140625 18.6734375,14.546875 19,14.546875 C19.3265625,14.546875 19.59375,14.8140625 19.59375,15.140625 L19.59375,20.1875 C19.59375,20.54375 19.3265625,20.8109375 19,20.8109375 Z M35.3578125,33.9328125 L23.7796875,33.9328125 C23.453125,33.9328125 23.1859375,33.665625 23.1859375,33.3390625 L23.1859375,24.6703125 C23.1859375,24.34375 23.453125,24.0765625 23.7796875,24.0765625 L35.3578125,24.0765625 C35.684375,24.0765625 35.9515625,24.34375 35.9515625,24.6703125 L35.9515625,33.3390625 C35.9515625,33.665625 35.684375,33.9328125 35.3578125,33.9328125 Z M24.3734375,32.7453125 L34.7640625,32.7453125 L34.7640625,25.2640625 L24.3734375,25.2640625 L24.3734375,32.7453125 Z M37.2578125,37.8515625 L21.8796875,37.8515625 C21.671875,37.8515625 21.49375,37.7328125 21.375,37.584375 C21.25625,37.40625 21.25625,37.1984375 21.3453125,37.0203125 L23.2453125,33.1015625 C23.334375,32.89375 23.5421875,32.775 23.7796875,32.775 L35.3578125,32.775 C35.5953125,32.775 35.803125,32.89375 35.8921875,33.1015625 L37.7921875,37.0203125 C37.88125,37.1984375 37.88125,37.4359375 37.7625,37.584375 C37.64375,37.7328125 37.465625,37.8515625 37.2578125,37.8515625 L37.2578125,37.8515625 Z M22.8296875,36.6640625 L36.3078125,36.6640625 L34.971875,33.9328125 L24.1359375,33.9328125 L22.8296875,36.6640625 L22.8296875,36.6640625 Z M14.8734375,35.03125 L0.7421875,35.03125 C0.415625,35.03125 0.1484375,34.7640625 0.1484375,34.4375 L0.1484375,24.6703125 C0.1484375,24.34375 0.415625,24.0765625 0.7421875,24.0765625 L14.8734375,24.0765625 C15.2,24.0765625 15.4671875,24.34375 15.4671875,24.6703125 L15.4671875,34.4375 C15.4671875,34.7640625 15.2,35.03125 14.8734375,35.03125 Z M1.3359375,33.84375 L14.2796875,33.84375 L14.2796875,25.2640625 L1.3359375,25.2640625 L1.3359375,33.84375 Z M13.18125,37.8515625 L2.434375,37.8515625 C2.1078125,37.8515625 1.840625,37.584375 1.840625,37.2578125 C1.840625,36.93125 2.1078125,36.6640625 2.434375,36.6640625 L13.18125,36.6640625 C13.5078125,36.6640625 13.775,36.93125 13.775,37.2578125 C13.775,37.584375 13.5078125,37.8515625 13.18125,37.8515625 Z M10.984375,37.8515625 L4.63125,37.8515625 C4.453125,37.8515625 4.275,37.7625 4.15625,37.6140625 C4.0375,37.465625 4.0078125,37.2578125 4.0671875,37.0796875 L4.9875,34.259375 C5.0765625,34.021875 5.284375,33.84375 5.5515625,33.84375 L10.0640625,33.84375 C10.33125,33.84375 10.5390625,34.021875 10.628125,34.259375 L11.5484375,37.0796875 C11.6078125,37.2578125 11.578125,37.465625 11.459375,37.6140625 C11.340625,37.7625 11.1625,37.8515625 10.984375,37.8515625 Z M5.4625,36.6640625 L10.1828125,36.6640625 L9.6484375,35.03125 L5.996875,35.03125 L5.4625,36.6640625 Z" id="形状" stroke="#FFFFFF" fill="#FFFFFF"></path>
                </g>
            </g>
        </g>
    </g>
</svg>