<?xml version="1.0" encoding="UTF-8"?>
<svg width="80px" height="80px" viewBox="0 0 80 80" version="1.1" xmlns="http://www.w3.org/2000/svg" xmlns:xlink="http://www.w3.org/1999/xlink">
    <!-- Generator: Sketch 55.1 (78136) - https://sketchapp.com -->
    <title>验证分析数据</title>
    <desc>Created with Sketch.</desc>
    <g id="赤兔官网" stroke="none" stroke-width="1" fill="none" fill-rule="evenodd">
        <g id="1-2首页_深色" transform="translate(-479.000000, -3181.000000)">
            <g id="验证分析数据" transform="translate(479.000000, 3181.000000)">
                <circle id="椭圆形备份" fill="#C4EBE9" cx="40" cy="40" r="40"></circle>
                <g id="云计算-23" transform="translate(21.000000, 21.000000)" fill="#34BDB7" fill-rule="nonzero" stroke="#29BDB8">
                    <rect id="矩形" opacity="0" x="0" y="0" width="38" height="38"></rect>
                    <path d="M37.2578125,26.6 L0.7421875,26.6 C0.415625,26.6 0.1484375,26.3328125 0.1484375,26.00625 L0.1484375,0.7421875 C0.1484375,0.415625 0.415625,0.1484375 0.7421875,0.1484375 L37.2578125,0.1484375 C37.584375,0.1484375 37.8515625,0.415625 37.8515625,0.7421875 L37.8515625,26.00625 C37.8515625,26.3328125 37.584375,26.6 37.2578125,26.6 Z M1.3359375,25.4125 L36.6640625,25.4125 L36.6640625,1.3359375 L1.3359375,1.3359375 L1.3359375,25.4125 Z M34.31875,23.3640625 L3.68125,23.3640625 C3.503125,23.3640625 3.384375,23.2453125 3.384375,23.0671875 L3.384375,3.68125 C3.384375,3.503125 3.503125,3.384375 3.68125,3.384375 L34.31875,3.384375 C34.496875,3.384375 34.615625,3.503125 34.615625,3.68125 L34.615625,23.0671875 C34.615625,23.215625 34.4671875,23.3640625 34.31875,23.3640625 Z M3.978125,22.7703125 L34.021875,22.7703125 L34.021875,3.978125 L3.978125,3.978125 L3.978125,22.7703125 Z M32.89375,37.8515625 L5.10625,37.8515625 C4.7796875,37.8515625 4.5125,37.584375 4.5125,37.2578125 L4.5125,33.309375 C4.5125,32.9828125 4.7796875,32.715625 5.10625,32.715625 L32.89375,32.715625 C33.2203125,32.715625 33.4875,32.9828125 33.4875,33.309375 L33.4875,37.2578125 C33.4875,37.584375 33.2203125,37.8515625 32.89375,37.8515625 Z M5.7,36.6640625 L32.3,36.6640625 L32.3,33.903125 L5.7,33.903125 L5.7,36.6640625 Z M27.2234375,33.903125 L10.7765625,33.903125 C10.5984375,33.903125 10.4203125,33.8140625 10.3015625,33.665625 C10.1828125,33.5171875 10.153125,33.309375 10.2125,33.13125 L12.5875,25.828125 C12.6765625,25.590625 12.884375,25.4125 13.1515625,25.4125 L24.7890625,25.4125 C25.05625,25.4125 25.2640625,25.590625 25.353125,25.828125 L27.728125,33.13125 C27.7875,33.309375 27.7578125,33.5171875 27.6390625,33.665625 C27.5796875,33.784375 27.4015625,33.903125 27.2234375,33.903125 L27.2234375,33.903125 Z M11.6078125,32.715625 L26.3921875,32.715625 L24.403125,26.6 L13.596875,26.6 L11.6078125,32.715625 L11.6078125,32.715625 Z M24.6703125,19.890625 L13.3296875,19.890625 C11.2515625,19.890625 9.5296875,18.1984375 9.5296875,16.090625 C9.5296875,14.6953125 10.3015625,13.3890625 11.5484375,12.7359375 C11.4890625,12.4390625 11.459375,12.171875 11.459375,11.875 C11.459375,9.796875 13.1515625,8.075 15.259375,8.075 C15.55625,8.075 15.8234375,8.1046875 16.1203125,8.1640625 C17.159375,7.2734375 18.4953125,6.7984375 19.8609375,6.7984375 C22.978125,6.7984375 25.53125,9.2921875 25.65,12.409375 C27.3125,12.825 28.5,14.3390625 28.5,16.090625 C28.440625,18.1984375 26.7484375,19.890625 24.6703125,19.890625 Z M15.2296875,8.6984375 C13.478125,8.6984375 12.0234375,10.1234375 12.0234375,11.9046875 C12.0234375,12.23125 12.0828125,12.5578125 12.171875,12.8546875 C12.2015625,13.003125 12.1421875,13.1515625 12.0234375,13.2109375 C10.865625,13.715625 10.153125,14.8734375 10.153125,16.1203125 C10.153125,17.871875 11.578125,19.296875 13.3296875,19.296875 L24.6703125,19.296875 C26.421875,19.296875 27.8765625,17.871875 27.8765625,16.090625 C27.8765625,14.546875 26.778125,13.240625 25.2640625,12.94375 C25.115625,12.9140625 25.0265625,12.7953125 25.0265625,12.646875 L25.0265625,12.6171875 C25.0265625,9.7375 22.7109375,7.421875 19.83125,7.421875 C18.5546875,7.421875 17.3375,7.896875 16.3875,8.728125 C16.2984375,8.7875 16.209375,8.8171875 16.1203125,8.7875 C15.79375,8.7578125 15.5265625,8.6984375 15.2296875,8.6984375 Z" id="形状"></path>
                </g>
            </g>
        </g>
    </g>
</svg>