<?xml version="1.0" encoding="UTF-8"?>
<svg width="52px" height="46px" viewBox="0 0 52 46" version="1.1" xmlns="http://www.w3.org/2000/svg" xmlns:xlink="http://www.w3.org/1999/xlink">
    <!-- Generator: Sketch 55.1 (78136) - https://sketchapp.com -->
    <title>金融业_1</title>
    <desc>Created with Sketch.</desc>
    <g id="赤兔官网" stroke="none" stroke-width="1" fill="none" fill-rule="evenodd">
        <g id="3解决方案" transform="translate(-583.000000, -650.000000)" fill-rule="nonzero">
            <g id="金融业_1" transform="translate(579.000000, 643.000000)">
                <rect id="矩形" fill="#000000" opacity="0" x="0" y="0" width="60" height="60"></rect>
                <path d="M39.99,52.14 L33.51,52.14 C32.1,52.14 30.96,51 30.96,49.59 L30.96,49.56 C30.24,49.62 29.52,49.65 28.83,49.65 C28.32,49.65 27.87,49.65 27.48,49.62 L26.52,50.85 C26.04,51.48 25.26,51.84 24.48,51.84 L18.09,51.84 C16.68,51.84 15.54,50.7 15.54,49.29 L15.54,45.63 C11.79,43.74 9.69,40.26 8.67,38.07 L6.66,37.2 C5.73,36.81 5.1,35.85 5.1,34.83 L5.1,28.23 C5.1,26.82 6.24,25.68 7.65,25.68 L8.91,25.68 C9.69,24.15 10.77,22.86 11.7,21.9 C9.96,18.87 10.68,16.62 10.83,16.23 C11.1,15.51 11.67,14.94 12.39,14.7 C13.68,14.25 15,14.04 16.38,14.07 C19.41,14.07 22.2,15.03 23.46,15.54 C23.55,15.54 23.67,15.54 23.73,15.51 C23.88,11.28 27.3,7.89 31.5,7.86 C35.79,7.86 39.3,11.43 39.3,15.78 C39.3,16.14 39.27,16.53 39.21,16.89 C41.73,17.82 43.8,19.05 45.39,20.58 C46.92,21.96 48.15,23.73 48.93,25.65 L48.93,25.68 C50.31,28.95 50.31,32.22 50.07,34.38 C49.92,36.27 49.5,38.16 48.78,39.93 C48.78,39.96 48.75,39.96 48.75,39.99 C47.31,43.02 42.54,50.34 42.06,51 C41.64,51.69 40.83,52.14 39.99,52.14 L39.99,52.14 Z M39.93,49.92 L39.96,49.92 C40.05,49.92 40.14,49.86 40.17,49.8 C40.17,49.77 40.2,49.74 40.23,49.74 C40.44,49.41 45.33,41.97 46.74,39.06 C47.37,37.5 47.76,35.88 47.88,34.2 L47.88,34.17 C48.09,32.28 48.09,29.43 46.92,26.58 C46.92,26.55 46.92,26.55 46.89,26.52 C46.23,24.9 45.21,23.4 43.92,22.23 C43.92,22.23 43.89,22.23 43.89,22.2 C42.51,20.85 40.65,19.77 38.37,18.93 C38.34,18.9 38.31,18.9 38.25,18.9 L38.19,18.9 C37.8,19.02 37.38,18.9 37.08,18.6 C36.78,18.3 36.69,17.88 36.81,17.49 C36.99,16.92 37.08,16.35 37.08,15.75 C37.08,12.6 34.59,10.05 31.5,10.05 C28.41,10.08 25.92,12.63 25.92,15.72 C25.92,15.99 25.95,16.26 25.98,16.5 C26.04,16.92 25.86,17.31 25.53,17.55 C25.2,17.79 24.75,17.82 24.36,17.61 C24.3,17.58 24.24,17.58 24.18,17.58 C23.94,17.61 23.73,17.61 23.52,17.64 L23.31,17.64 C23.13,17.64 22.98,17.61 22.8,17.55 C21.84,17.19 19.2,16.2 16.35,16.2 C15.24,16.2 14.13,16.35 13.08,16.71 C12.99,16.74 12.9,16.8 12.87,16.89 C12.87,16.92 12.87,16.92 12.84,16.95 C12.81,17.01 12.18,18.75 13.98,21.33 C14.28,21.78 14.22,22.38 13.83,22.77 C12.81,23.73 11.43,25.26 10.59,27.12 C10.41,27.51 10.02,27.78 9.57,27.78 L7.62,27.78 C7.44,27.78 7.29,27.93 7.29,28.11 L7.29,34.77 C7.29,34.89 7.38,35.01 7.5,35.07 L9.93,36.12 C10.2,36.24 10.38,36.45 10.5,36.69 C11.34,38.67 13.35,42.21 17.07,43.83 C17.49,44.01 17.73,44.4 17.73,44.85 L17.73,49.23 C17.73,49.41 17.88,49.56 18.06,49.56 L24.48,49.56 C24.6,49.56 24.69,49.53 24.75,49.44 L26.1,47.73 C26.34,47.43 26.67,47.28 27.03,47.31 C27.48,47.34 28.05,47.37 28.8,47.37 C29.82,47.37 30.87,47.31 31.92,47.19 C32.22,47.16 32.55,47.25 32.79,47.46 C33.03,47.67 33.15,47.97 33.15,48.3 L33.15,49.56 C33.15,49.74 33.3,49.89 33.48,49.89 L39.93,49.89 L39.93,49.92 Z" id="形状" stroke="#505C72" fill="#505C71"></path>
                <path d="M13.68,30 C13.68,31.5243059 14.9156941,32.76 16.44,32.76 C17.9643059,32.76 19.2,31.5243059 19.2,30 C19.2,28.4756941 17.9643059,27.24 16.44,27.24 C14.9156941,27.24 13.68,28.4756941 13.68,30 L13.68,30 Z" id="路径" fill="#505C71"></path>
                <path d="M28.62,15.75 C28.62,16.7896429 29.1746428,17.7503126 30.075,18.270134 C30.9753571,18.7899555 32.0846429,18.7899555 32.985,18.270134 C33.8853572,17.7503126 34.44,16.7896429 34.44,15.75 C34.44,14.7103571 33.8853572,13.7496874 32.985,13.229866 C32.0846429,12.7100445 30.9753571,12.7100445 30.075,13.229866 C29.1746428,13.7496874 28.62,14.7103571 28.62,15.75 L28.62,15.75 Z" id="路径" fill="#3DBDB6"></path>
                <path d="M34.71,21.3 L34.56,21.3 C33.99,21.21 33.57,20.73 33.6,20.16 C33.45,19.95 32.73,19.44 31.35,19.26 C29.97,19.08 29.16,19.38 28.95,19.56 C28.83,20.1 28.29,20.49 27.72,20.4 C27.12,20.31 26.7,19.77 26.76,19.17 C26.82,18.66 27.15,17.73 28.68,17.28 C29.52,17.01 30.57,16.95 31.62,17.1 C32.7,17.25 33.69,17.58 34.41,18.06 C35.37,18.69 35.88,19.53 35.76,20.4 C35.73,20.88 35.25,21.3 34.71,21.3 L34.71,21.3 Z" id="路径" fill="#3DBDB6"></path>
                <path d="M53.37,38.04 C51.9,38.04 50.52,37.32 49.38,35.94 C48.51,34.86 48.06,33.75 48.03,33.69 C47.82,33.12 48.09,32.49 48.66,32.25 C49.23,32.04 49.86,32.31 50.1,32.88 C50.13,32.94 51.36,36.03 53.64,35.79 C54.24,35.73 54.81,36.15 54.87,36.78 C54.93,37.38 54.51,37.95 53.88,38.01 C53.73,38.04 53.55,38.04 53.37,38.04 L53.37,38.04 Z" id="路径" stroke="#505C72" fill="#505C71"></path>
            </g>
        </g>
    </g>
</svg>