<?xml version="1.0" encoding="UTF-8"?>
<svg width="24px" height="24px" viewBox="0 0 24 24" version="1.1" xmlns="http://www.w3.org/2000/svg" xmlns:xlink="http://www.w3.org/1999/xlink">
    <!-- Generator: Sketch 55.1 (78136) - https://sketchapp.com -->
    <title>fuwu_3</title>
    <desc>Created with Sketch.</desc>
    <g id="赤兔官网" stroke="none" stroke-width="1" fill="none" fill-rule="evenodd">
        <g id="3解决方案" transform="translate(-217.000000, -2706.000000)" fill="#3DBDB6" fill-rule="nonzero">
            <g id="fuwu_3" transform="translate(217.000000, 2706.000000)">
                <path d="M23.173125,0 L0.826875,0 C0.370078125,0 0,0.3703125 0,0.826875 L0,16.7017969 C0,17.1583594 0.370078125,17.5286719 0.826875,17.5286719 L11.173125,17.5286719 L11.173125,21.8772656 L5.74921875,21.8772656 C5.29242188,21.8772656 4.92234375,22.2475781 4.92234375,22.7041406 C4.92234375,23.1607031 5.29242188,23.53125 5.74921875,23.53125 L18.2507813,23.53125 C18.7075781,23.53125 19.0776563,23.1609375 19.0776563,22.704375 C19.0776563,22.2478125 18.7075781,21.8775 18.2507813,21.8775 L12.826875,21.8775 L12.826875,17.5286719 L23.173125,17.5286719 C23.6299219,17.5286719 24,17.1583594 24,16.7017969 L24,0.826875 C24,0.3703125 23.6299219,0 23.173125,0 Z M22.34625,15.8749219 L1.65375,15.8749219 L1.65375,1.65398437 L22.3460156,1.65398437 L22.3460156,15.8749219 L22.34625,15.8749219 Z M5.38476563,8.92453125 L5.38476563,13.4526563 C5.38476563,13.9092188 5.75484375,14.2795313 6.21164063,14.2795313 C6.6684375,14.2795313 7.03851563,13.9092188 7.03851563,13.4526563 L7.03851563,8.92453125 C7.70226563,8.61257813 8.16492188,7.94273438 8.16492188,7.16085938 C8.16492188,6.37898438 7.70226563,5.70914063 7.03851563,5.3971875 L7.03851563,4.07625 C7.03851563,3.6196875 6.6684375,3.249375 6.21164063,3.249375 C5.75484375,3.249375 5.38476563,3.6196875 5.38476563,4.07625 L5.38476563,5.39695313 C4.72101563,5.70890625 4.25835938,6.37875 4.25835938,7.160625 C4.25835938,7.9425 4.72078125,8.61257812 5.38476563,8.92453125 Z M11.173125,12.2322656 L11.173125,13.4526563 C11.173125,13.9092188 11.5432031,14.2795313 12,14.2795313 C12.4567969,14.2795313 12.826875,13.9092188 12.826875,13.4526563 L12.826875,12.2322656 C13.490625,11.9203125 13.9532812,11.2504687 13.9532812,10.4685938 C13.9532812,9.68671875 13.490625,9.016875 12.826875,8.70492188 L12.826875,4.07601563 C12.826875,3.61945313 12.4567969,3.24914062 12,3.24914062 C11.5432031,3.24914062 11.173125,3.61945313 11.173125,4.07601563 L11.173125,8.7046875 C10.509375,9.01664063 10.0467188,9.68648437 10.0467188,10.4683594 C10.0467188,11.2502344 10.5091406,11.9203125 11.173125,12.2322656 Z M16.9614844,8.92453125 L16.9614844,13.4526563 C16.9614844,13.9092188 17.3315625,14.2795313 17.7883594,14.2795313 C18.2451563,14.2795313 18.6152344,13.9092188 18.6152344,13.4526563 L18.6152344,8.92453125 C19.2789844,8.61257813 19.7416406,7.94273438 19.7416406,7.16085938 C19.7416406,6.37898438 19.2789844,5.70914063 18.6152344,5.3971875 L18.6152344,4.07625 C18.6152344,3.6196875 18.2451563,3.249375 17.7883594,3.249375 C17.3315625,3.249375 16.9614844,3.6196875 16.9614844,4.07625 L16.9614844,5.39695313 C16.2977344,5.70890625 15.8350781,6.37875 15.8350781,7.160625 C15.8350781,7.9425 16.2977344,8.61257812 16.9614844,8.92453125 Z" id="形状"></path>
            </g>
        </g>
    </g>
</svg>