<?xml version="1.0" encoding="UTF-8"?>
<svg width="22px" height="22px" viewBox="0 0 22 22" version="1.1" xmlns="http://www.w3.org/2000/svg" xmlns:xlink="http://www.w3.org/1999/xlink">
    <!-- Generator: Sketch 55.1 (78136) - https://sketchapp.com -->
    <title>fuwu_2</title>
    <desc>Created with Sketch.</desc>
    <g id="赤兔官网" stroke="none" stroke-width="1" fill="none" fill-rule="evenodd">
        <g id="3解决方案" transform="translate(-718.000000, -2601.000000)" fill-rule="nonzero">
            <g id="fuwu_2" transform="translate(717.000000, 2600.000000)">
                <rect id="矩形" fill="#000000" opacity="0" x="0" y="0" width="24" height="24"></rect>
                <path d="M22.4123005,2.40851902 C22.3747419,1.96386049 22.0204541,1.61201904 21.5756037,1.57755441 C15.8276608,1.13037759 11.6875638,3.91227546 9.12972204,7.42574932 C7.71604852,6.96259934 6.19840547,7.12763145 4.81442381,7.90741474 C3.48131166,8.65834561 2.34580153,9.92360777 1.61712757,11.4701512 C1.45020075,11.8243191 1.52843571,12.2456414 1.81149178,12.5162499 C2.09454787,12.7869544 2.51906004,12.8461942 2.86521736,12.6634861 C4.32280512,11.8949992 5.9639644,12.039693 6.94945624,13.0238898 L10.9625354,17.0326039 C10.9697785,17.0403746 10.9748151,17.0493206 10.982394,17.0568754 C11.9669984,18.0404246 12.1119321,19.6789697 11.3430135,21.1340391 C11.1600895,21.4802204 11.2189935,21.9046367 11.4893622,22.1879326 C11.665187,22.3720558 11.9046646,22.4697415 12.1481476,22.4697415 C12.2791707,22.4697415 12.4113211,22.4415127 12.535341,22.3832801 C14.0833715,21.6553497 15.3499048,20.5210148 16.101699,19.1892937 C16.8869986,17.7981889 17.0502319,16.2719117 16.5762413,14.8520263 C17.6084774,14.1111446 18.5324989,13.2760788 19.3087087,12.3701171 C21.6915411,9.58886674 22.7358171,6.2373071 22.4123005,2.40851902 Z M4.58319659,10.355459 C5.55168396,9.38843463 6.79476115,8.81081027 8.08969118,9.03808017 C7.73305298,9.66674194 7.42344689,10.3055488 7.15917007,10.9428447 C6.38427947,10.5257435 5.49752866,10.322961 4.58319659,10.355459 Z M13.6512804,19.4201371 C13.6832987,18.4968831 13.476463,17.6034649 13.0515191,16.824521 C13.712487,16.544199 14.3521093,16.2276377 14.9657812,15.8801133 C15.2108231,17.1868913 14.629841,18.4433274 13.6512804,19.4201371 Z M11.8508691,15.3464031 L8.64186881,12.1408565 C10.2501224,7.83306518 14.2444703,3.23010598 20.6429001,3.35460558 C20.8579383,10.9797078 14.5622068,14.2823885 11.8508691,15.3464031 Z M17.7326173,6.27575304 C18.0080226,6.55125424 18.1650441,6.93355505 18.1650441,7.32276316 C18.1650441,7.7119473 18.0080226,8.09213754 17.7326173,8.36751881 C17.457236,8.64292409 17.0748393,8.80217611 16.6856551,8.80217611 C16.296471,8.80217611 15.9164247,8.64292409 15.6410434,8.36751881 C15.3656621,8.09211354 15.2062902,7.7119233 15.2062902,7.32276316 C15.2062902,6.93355505 15.3656621,6.55125424 15.6410434,6.27575304 C15.9140743,6.00034777 16.296471,5.84332622 16.6856551,5.84332622 C17.0748632,5.84332622 17.45726,6.00034777 17.7326173,6.27575304 Z M4.91604293,15.7290157 C3.86975231,16.774347 3.82874011,18.8678396 3.83109054,19.2739323 C3.8340885,19.7725782 4.23749501,20.1937566 4.73614092,20.1937566 C4.74513483,20.1937566 4.7549202,20.1937566 4.76559295,20.1937566 C5.23433114,20.1937566 7.24589531,20.1171765 8.26882575,19.0955172 C8.91470784,18.4502587 9.0503119,17.792001 9.0503119,17.3595742 C9.05019197,16.7535531 8.79004036,16.1562141 8.3174168,15.6841182 C7.16518999,14.5333304 5.74671973,14.8992983 4.91604293,15.7290157 Z M6.98205016,17.7925526 C6.75787416,18.0164888 6.25435955,18.1687376 5.74038802,18.2555348 C5.82939166,17.7371982 5.98463841,17.2352185 6.20281849,17.0172783 C6.35151766,16.8687949 6.49318962,16.7694303 6.64678148,16.7694303 C6.7649014,16.7694303 6.89004855,16.8282145 7.03073716,16.9686872 C7.15710748,17.0949376 7.22953838,17.2347389 7.22953838,17.3523071 C7.22953838,17.5119429 7.09484569,17.6798771 6.98205016,17.7925526 Z" id="形状" fill="#3DBDB6"></path>
            </g>
        </g>
    </g>
</svg>