<?xml version="1.0" encoding="UTF-8"?>
<svg width="24px" height="20px" viewBox="0 0 24 20" version="1.1" xmlns="http://www.w3.org/2000/svg" xmlns:xlink="http://www.w3.org/1999/xlink">
    <!-- Generator: Sketch 55.1 (78136) - https://sketchapp.com -->
    <title>fuwu_4</title>
    <desc>Created with Sketch.</desc>
    <g id="赤兔官网" stroke="none" stroke-width="1" fill="none" fill-rule="evenodd">
        <g id="3解决方案" transform="translate(-717.000000, -2708.000000)" fill-rule="nonzero">
            <g id="fuwu_4" transform="translate(718.000000, 2707.000000)">
                <rect id="矩形" fill="#000000" opacity="0" x="0" y="0" width="22" height="22"></rect>
                <path d="M1.375,2.75 L1.375,19.25 L20.625,19.25 L20.625,2.75 L1.375,2.75 Z M0,1.375 L22,1.375 L22,20.625 L0,20.625 L0,1.375 Z M1.375,5.5 L20.625,5.5 L20.625,6.875 L1.375,6.875 L1.375,5.5 Z M9.625,15.125 L16.5,15.125 L16.5,16.5 L9.625,16.5 L9.625,15.125 Z M6.23645,16.5977167 L9.72271667,13.11145 L6.23645,9.625 L5.26405,10.5972167 L7.7781,13.11145 L5.26405,15.6255 L6.23645,16.5977167 Z" id="形状" stroke="#34BDB7" stroke-width="0.5" fill="#3DBDB6"></path>
            </g>
        </g>
    </g>
</svg>