<?xml version="1.0" encoding="UTF-8"?>
<svg width="24px" height="24px" viewBox="0 0 24 24" version="1.1" xmlns="http://www.w3.org/2000/svg" xmlns:xlink="http://www.w3.org/1999/xlink">
    <!-- Generator: Sketch 55.1 (78136) - https://sketchapp.com -->
    <title>fuwu_5</title>
    <desc>Created with Sketch.</desc>
    <g id="赤兔官网" stroke="none" stroke-width="1" fill="none" fill-rule="evenodd">
        <g id="3解决方案" transform="translate(-217.000000, -2812.000000)" fill-rule="nonzero">
            <g id="fuwu_5" transform="translate(217.000000, 2812.000000)">
                <rect id="矩形" fill="#000000" opacity="0" x="0" y="0" width="24" height="24"></rect>
                <path d="M9.3421875,11.1632813 L2.521875,11.1632813 C1.54489629,11.1594272 0.753854004,10.368385 0.75,9.39140625 L0.75,2.57109375 C0.75,1.59137029 1.5421592,0.796059925 2.521875,0.7921875 L9.3421875,0.7921875 C10.3191662,0.796041504 11.1102085,1.58708379 11.1140625,2.5640625 L11.1140625,9.384375 C11.1140625,10.3640985 10.3219033,11.1594088 9.3421875,11.1632813 Z M2.521875,1.846875 C2.13354979,1.846875 1.81875,2.16167479 1.81875,2.55 L1.81875,9.3703125 C1.81875,9.75863771 2.13354979,10.0734375 2.521875,10.0734375 L9.3421875,10.0734375 C9.73051271,10.0734375 10.0453125,9.75863771 10.0453125,9.3703125 L10.0453125,2.57109375 C10.0453125,2.18276854 9.73051271,1.86796875 9.3421875,1.86796875 L2.521875,1.846875 Z M21.3796875,23.165625 L14.559375,23.165625 C13.5823963,23.161771 12.791354,22.3707287 12.7875,21.39375 L12.7875,14.5734375 C12.791354,13.5964588 13.5823963,12.8054165 14.559375,12.8015625 L21.3796875,12.8015625 C22.3566662,12.8054165 23.1477085,13.5964588 23.1515625,14.5734375 L23.1515625,21.39375 C23.1477085,22.3707287 22.3566662,23.161771 21.3796875,23.165625 L21.3796875,23.165625 Z M14.559375,13.8492188 C14.1710498,13.8492188 13.85625,14.1640185 13.85625,14.5523438 L13.85625,21.3726563 C13.85625,21.7609815 14.1710498,22.0757813 14.559375,22.0757813 L21.3796875,22.0757813 C21.7680127,22.0757813 22.0828125,21.7609815 22.0828125,21.3726563 L22.0828125,14.5523438 C22.0828125,14.1640185 21.7680127,13.8492188 21.3796875,13.8492188 L14.559375,13.8492188 Z M21.1054688,10.2421875 C20.9655919,10.2385072 20.8329122,10.1793863 20.7366428,10.0778419 C20.6403734,9.97629742 20.5884078,9.84065542 20.5921875,9.70078125 C20.7304002,7.96519174 20.1392973,6.25048389 18.9609375,4.96875 C17.682898,3.82599187 16.0345989,3.1841542 14.3203125,3.16171875 C14.1798969,3.16551516 14.0439117,3.11237726 13.9432713,3.01438523 C13.8426308,2.91639321 13.7858899,2.78187311 13.7858899,2.64140625 C13.7840602,2.50154235 13.837827,2.36666244 13.9354072,2.26644496 C14.0329873,2.16622747 14.1663858,2.10888367 14.30625,2.10702759 C16.3121289,2.10512345 18.2469872,2.8494925 19.734375,4.1953125 C21.1206546,5.68696335 21.8170797,7.69205533 21.6539062,9.721875 C21.6521222,9.86424384 21.5928453,9.99984167 21.4895537,10.0978362 C21.3862622,10.1958307 21.2477344,10.2478939 21.1054688,10.2421875 L21.1054688,10.2421875 Z M19.5375,8.2734375 L22.6734375,8.2171875 L21.1476563,11.296875 L19.5375,8.2734375 L19.5375,8.2734375 Z M9.36328125,21.9773437 C7.37593997,21.9605025 5.46505931,21.2091732 3.9984375,19.8679687 C2.61215788,18.3763179 1.9157328,16.3712259 2.07890625,14.3414063 C2.09031875,14.0518016 2.33051125,13.8240867 2.6203125,13.8280721 C2.76018933,13.8318053 2.89286901,13.8909262 2.98913842,13.9924706 C3.08540782,14.0940151 3.1373735,14.2296571 3.13359375,14.3695313 C2.98456278,16.109052 3.56817519,17.8318555 4.74375,19.1226563 C6.0219002,20.270655 7.67352652,20.9153139 9.39140625,20.9367188 C9.68265016,20.9367188 9.91875,21.1728186 9.91875,21.4640625 C9.91875,21.7553064 9.68265016,21.9914063 9.39140625,21.9914063 L9.36328125,21.9773437 Z M4.1671875,15.7898438 L1.03125,15.8390625 L2.55703125,12.759375 L4.1671875,15.7898438 Z" id="形状" stroke="#3DBDB6" fill="#3DBDB6"></path>
            </g>
        </g>
    </g>
</svg>