<?xml version="1.0" encoding="UTF-8"?>
<svg width="22px" height="24px" viewBox="0 0 22 24" version="1.1" xmlns="http://www.w3.org/2000/svg" xmlns:xlink="http://www.w3.org/1999/xlink">
    <!-- Generator: Sketch 55.1 (78136) - https://sketchapp.com -->
    <title>fuwu_1</title>
    <desc>Created with Sketch.</desc>
    <g id="赤兔官网" stroke="none" stroke-width="1" fill="none" fill-rule="evenodd">
        <g id="3解决方案" transform="translate(-218.000000, -2600.000000)" fill-rule="nonzero">
            <g id="fuwu_1" transform="translate(217.000000, 2600.000000)">
                <rect id="矩形" fill="#000000" opacity="0" x="0" y="0" width="24" height="24"></rect>
                <path d="M15.24,15.168 C14.712,15.168 14.28,14.736 14.28,14.208 L14.28,13.248 C14.28,12.72 14.712,12.288 15.24,12.288 C15.768,12.288 16.2,12.72 16.2,13.248 L16.2,14.208 C16.2,14.736 15.768,15.168 15.24,15.168 Z M8.76,15.168 C8.232,15.168 7.8,14.736 7.8,14.208 L7.8,13.248 C7.8,12.72 8.232,12.288 8.76,12.288 C9.288,12.288 9.72,12.72 9.72,13.248 L9.72,14.208 C9.72,14.736 9.288,15.168 8.76,15.168 Z" id="形状" fill="#3DBDB6"></path>
                <path d="M18.192,23.208 L5.808,23.208 C3.696,23.208 1.968,21.48 1.968,19.368 L1.968,15.552 C1.968,10.032 6.456,5.52 12,5.52 C17.544,5.52 22.032,10.032 22.032,15.552 L22.032,19.344 C22.032,21.48 20.328,23.208 18.192,23.208 Z M12,7.44 C7.512,7.44 3.888,11.088 3.888,15.552 L3.888,19.344 C3.888,20.4 4.752,21.264 5.808,21.264 L18.216,21.264 C19.272,21.264 20.136,20.4 20.136,19.344 L20.136,15.552 C20.112,11.088 16.488,7.44 12,7.44 Z" id="形状" fill="#3DBDB6"></path>
                <path d="M7.416,8.304 C6.96,8.568 6.36,8.424 6.096,7.968 L3.936,4.272 C3.672,3.816 3.816,3.216 4.272,2.952 C4.728,2.688 5.328,2.832 5.592,3.288 L7.752,6.984 C8.016,7.44 7.872,8.04 7.416,8.304 Z" id="路径" fill="#3DBDB6"></path>
                <path d="M3.04476813,4.63666083 C3.57993828,5.55209128 4.75588241,5.86035316 5.67131286,5.32518301 C6.58674331,4.79001286 6.8950052,3.61406873 6.35983505,2.69863828 C5.8246649,1.78320783 4.64872077,1.47494595 3.73329032,2.0101161 C2.81785987,2.54528625 2.50959798,3.72123038 3.04476813,4.63666083 Z" id="路径" fill="#3DBDB6"></path>
                <path d="M16.848,8.304 C17.304,8.568 17.904,8.424 18.168,7.968 L20.328,4.272 C20.592,3.816 20.448,3.216 19.992,2.952 C19.536,2.688 18.936,2.832 18.672,3.288 L16.512,6.984 C16.224,7.44 16.392,8.04 16.848,8.304 Z" id="路径" fill="#3DBDB6"></path>
                <path d="M18.5842163,5.31964936 C19.176398,5.66587938 19.9083106,5.66987335 20.5042357,5.33012671 C21.1001608,4.99038006 21.4695577,4.35851151 21.4732994,3.67255183 C21.4769847,2.98659215 21.1144506,2.35076121 20.5222388,2.00458247 C19.9300571,1.65835245 19.1981445,1.65435848 18.6022194,1.99410512 C18.0062944,2.33385177 17.6368974,2.96572032 17.6331557,3.65168 C17.6294704,4.33763968 17.9920045,4.97347062 18.5842163,5.31964936 Z" id="路径" fill="#3DBDB6"></path>
                <path d="M13.92,19.8 L10.08,19.8 C9.552,19.8 9.12,19.368 9.12,18.84 C9.12,18.312 9.552,17.88 10.08,17.88 L13.92,17.88 C14.448,17.88 14.88,18.312 14.88,18.84 C14.88,19.368 14.448,19.8 13.92,19.8 Z" id="路径" fill="#3DBDB6"></path>
                <path d="M13.176,4.464 C12.912,4.464 12.648,4.344 12.456,4.152 L11.712,3.312 L11.184,4.056 C11.016,4.32 10.704,4.464 10.392,4.464 L8.712,4.464 C8.184,4.464 7.752,4.032 7.752,3.504 C7.752,2.976 8.184,2.544 8.712,2.544 L9.912,2.544 L10.848,1.2 C11.016,0.96 11.28,0.816 11.568,0.792 C11.856,0.768 12.144,0.888 12.336,1.104 L13.584,2.52 L15.504,2.496 C16.032,2.496 16.464,2.928 16.464,3.456 C16.464,3.984 16.032,4.416 15.504,4.416 L13.176,4.464 Z" id="路径" fill="#3DBDB6"></path>
            </g>
        </g>
    </g>
</svg>