<?xml version="1.0" encoding="UTF-8"?>
<svg width="40px" height="45px" viewBox="0 0 40 45" version="1.1" xmlns="http://www.w3.org/2000/svg" xmlns:xlink="http://www.w3.org/1999/xlink">
    <!-- Generator: Sketch 55.1 (78136) - https://sketchapp.com -->
    <title>保险_1</title>
    <desc>Created with Sketch.</desc>
    <g id="赤兔官网" stroke="none" stroke-width="1" fill="none" fill-rule="evenodd">
        <g id="3解决方案" transform="translate(-1041.000000, -650.000000)" fill-rule="nonzero">
            <g id="保险_1" transform="translate(1031.000000, 643.000000)">
                <rect id="矩形" fill="#000000" opacity="0" x="0" y="0" width="60" height="60"></rect>
                <path d="M32,12.1 C42.11,13.112 50,21.72 50,32.18 L50,36 L32,36 L32,44 C32,48.418278 28.418278,52 24,52 C19.581722,52 16,48.418278 16,44 L16,42 C16.3279778,41.6318909 16.9780907,41.4478363 17.9503386,41.4478363 C18.9225864,41.4478363 19.6058069,41.6318909 20,42 L20,44 C20,46.209139 21.790861,48 24,48 C26.209139,48 28,46.209139 28,44 L28,36 L10,36 L10,32.18 C10,21.72 17.89,13.112 28,12.1 L28,7.99999998 C28.3422684,7.54464396 29.008935,7.31696594 30,7.31696594 C30.991065,7.31696594 31.6577317,7.54464396 32,7.99999998 L32,12.1 Z M32,32 L46,32 C45.902,23.142 38.772,16 30,16 C21.228,16 14.098,23.142 14,32 L32,32 Z" id="形状" fill="#505C71"></path>
                <path d="M42,30 L38,30 C38,26.6862915 35.3137085,24 32,24 L32,20 C37.5228475,20 42,24.4771525 42,30 Z" id="路径" fill="#3DBDB6"></path>
            </g>
        </g>
    </g>
</svg>