<?xml version="1.0" encoding="UTF-8"?>
<svg width="52px" height="42px" viewBox="0 0 52 42" version="1.1" xmlns="http://www.w3.org/2000/svg" xmlns:xlink="http://www.w3.org/1999/xlink">
    <!-- Generator: Sketch 55.1 (78136) - https://sketchapp.com -->
    <title>物流业_2</title>
    <desc>Created with Sketch.</desc>
    <g id="赤兔官网" stroke="none" stroke-width="1" fill="none" fill-rule="evenodd">
        <g id="3解决方案" transform="translate(-883.000000, -735.000000)" fill-rule="nonzero">
            <g id="物流业_2" transform="translate(876.000000, 723.000000)">
                <rect id="矩形" fill="#000000" opacity="0" x="0" y="0" width="66" height="66"></rect>
                <path d="M11.319,31.713 C9.075,27.852 7.92,24.618 7.92,22.176 C7.92,16.269 11.187,12.771 16.632,12.771 C22.077,12.771 25.344,16.302 25.344,22.176 C25.344,22.77 25.278,23.364 25.179,23.925 L22.704,23.463 C22.77,23.034 22.836,22.605 22.836,22.176 C22.836,17.754 20.658,15.312 16.665,15.312 C12.672,15.312 10.494,17.754 10.494,22.209 C10.494,24.189 11.55,27.06 13.563,30.492 L11.319,31.713 L11.319,31.713 Z" id="路径" fill="#98A3AD"></path>
                <path d="M14.289,20.559 C14.289,21.7801016 15.2788984,22.77 16.5,22.77 C17.7211016,22.77 18.711,21.7801016 18.711,20.559 C18.711,19.3378984 17.7211016,18.348 16.5,18.348 C15.2788984,18.348 14.289,19.3378984 14.289,20.559 Z" id="路径" fill="#98A3AD"></path>
                <path d="M22.935,35.574 C22.242,35.574 21.582,35.112 21.318,34.452 L18.414,26.928 C18.084,26.07 18.447,25.146 19.272,24.75 C24.156,22.308 27.753,21.186 30.69,21.186 C41.151,21.186 44.946,28.182 45.606,29.601 C45.903,30.228 45.771,30.987 45.309,31.515 L42.009,35.013 C41.646,35.376 41.217,35.541 40.755,35.574 L22.935,35.574 C22.968,35.574 22.968,35.574 22.935,35.574 Z M21.054,26.697 L23.529,33.033 L40.392,33.033 L43.065,30.195 C42.075,28.413 38.709,23.727 30.69,23.727 C28.281,23.727 25.212,24.651 21.054,26.697 L21.054,26.697 Z" id="形状" fill="#98A3AD"></path>
                <path d="M33,34.089 C32.307,34.089 31.746,33.528 31.746,32.835 L31.746,23.958 C31.746,23.265 32.307,22.704 33,22.704 C33.693,22.704 34.254,23.265 34.254,23.958 L34.254,32.835 C34.254,33.528 33.693,34.089 33,34.089 Z" id="路径" fill="#98A3AD"></path>
                <path d="M25.707,43.56 C26.796,43.56 27.687,44.451 27.687,45.54 C27.687,46.629 26.796,47.52 25.707,47.52 C24.618,47.52 23.727,46.629 23.727,45.54 C23.727,44.451 24.618,43.56 25.707,43.56 L25.707,43.56 Z" id="路径" fill="#98A3AD"></path>
                <path d="M42.207,45.54 C42.207,46.6335238 43.0934762,47.52 44.187,47.52 C45.2805238,47.52 46.167,46.6335238 46.167,45.54 C46.167,44.4464762 45.2805238,43.56 44.187,43.56 C43.0934762,43.56 42.207,44.4464762 42.207,45.54 L42.207,45.54 Z" id="路径" fill="#98A3AD"></path>
                <path d="M49.962,45.672 L56.397,45.672 C56.859,45.672 57.255,45.507 57.585,45.177 C57.915,44.847 58.113,44.418 58.113,43.989 L58.113,37.818 C58.113,34.881 56.958,32.406 54.747,30.723 C52.833,29.238 50.226,28.479 47.223,28.479 L45.177,28.479 C43.791,26.136 39.831,21.219 31.383,21.219 C28.413,21.219 24.024,22.473 19.338,24.618 C16.038,26.136 12.045,28.413 10.725,30.195 C10.23,30.789 10.032,31.581 10.23,32.34 L10.263,32.472 C10.362,32.769 10.494,33.033 10.626,33.33 C10.989,34.056 11.22,34.881 11.253,35.706 L11.253,35.772 C11.385,37.224 11.649,38.94 11.715,39.468 C11.781,42.9 14.619,45.705 18.084,45.705 L19.932,45.705 C19.965,47.19 20.559,48.609 21.615,49.665 C22.077,50.127 22.605,50.49 23.199,50.787 L13.365,50.787 C12.672,50.787 12.111,51.348 12.111,52.041 C12.111,52.734 12.672,53.295 13.365,53.295 L31.581,53.295 C32.274,53.295 32.835,52.734 32.835,52.041 C32.835,51.348 32.274,50.787 31.581,50.787 L28.182,50.787 C30.096,49.863 31.416,47.949 31.449,45.738 L38.445,45.738 C38.511,47.982 39.831,49.896 41.712,50.787 L38.016,50.787 C37.323,50.787 36.762,51.348 36.762,52.041 C36.762,52.734 37.323,53.295 38.016,53.295 L55.407,53.295 C56.1,53.295 56.661,52.734 56.661,52.041 C56.661,51.348 56.1,50.787 55.407,50.787 L46.695,50.787 C48.576,49.797 49.896,47.883 49.962,45.672 L49.962,45.672 Z M25.707,48.774 C24.849,48.774 24.024,48.444 23.43,47.85 C22.803,47.256 22.473,46.431 22.473,45.573 C22.473,44.715 22.803,43.89 23.43,43.296 C24.024,42.702 24.849,42.339 25.707,42.339 C27.489,42.339 28.941,43.791 28.941,45.573 C28.941,47.289 27.489,48.741 25.707,48.774 L25.707,48.774 Z M38.973,43.131 L31.02,43.131 L31.02,43.263 C30.129,41.217 28.083,39.765 25.707,39.765 C24.156,39.765 22.737,40.359 21.648,41.448 C21.12,41.976 20.724,42.57 20.427,43.23 L20.427,43.131 L18.117,43.131 C16.005,43.131 14.289,41.415 14.289,39.303 L14.289,39.105 C14.223,38.775 13.959,36.993 13.827,35.541 C13.761,34.353 13.464,33.231 12.936,32.175 C12.87,32.043 12.804,31.911 12.738,31.746 L12.771,31.68 C13.431,30.756 16.269,28.809 20.394,26.895 C24.717,24.915 28.71,23.76 31.35,23.76 C39.336,23.76 42.504,28.776 43.263,30.327 L43.626,31.02 L47.19,31.02 C49.632,31.02 51.711,31.614 53.196,32.769 C54.78,33.99 55.572,35.673 55.572,37.851 L55.572,43.164 L49.335,43.164 L49.665,43.626 C48.873,41.415 46.761,39.798 44.253,39.798 C41.877,39.798 39.897,41.151 38.973,43.131 Z M44.22,48.774 C42.438,48.774 40.986,47.322 40.986,45.54 C40.986,43.758 42.438,42.306 44.22,42.306 C46.002,42.306 47.454,43.758 47.454,45.54 C47.454,47.322 45.969,48.774 44.22,48.774 Z" id="形状" stroke="#98A3AD" fill="#98A3AD"></path>
            </g>
        </g>
    </g>
</svg>