<?xml version="1.0" encoding="UTF-8"?>
<svg width="34px" height="50px" viewBox="0 0 34 50" version="1.1" xmlns="http://www.w3.org/2000/svg" xmlns:xlink="http://www.w3.org/1999/xlink">
    <!-- Generator: Sketch 55.1 (78136) - https://sketchapp.com -->
    <title>医药_1</title>
    <desc>Created with Sketch.</desc>
    <g id="赤兔官网" stroke="none" stroke-width="1" fill="none" fill-rule="evenodd">
        <g id="3解决方案" transform="translate(-294.000000, -648.000000)" fill-rule="nonzero">
            <g id="医药_1" transform="translate(281.000000, 643.000000)">
                <rect id="矩形" fill="#000000" opacity="0" x="0" y="0" width="60" height="60"></rect>
                <path d="M44.52,46.98 L31.05,46.98 C29.04,46.98 27.42,45.36 27.42,43.35 L27.42,32.46 C27.42,30.45 29.04,28.83 31.05,28.83 L44.52,28.83 C45.09,28.83 45.57,29.28 45.57,29.88 L45.57,45.96 C45.54,46.5 45.09,46.98 44.52,46.98 Z M31.05,30.9 C30.18,30.9 29.49,31.59 29.49,32.46 L29.49,43.35 C29.49,44.22 30.18,44.91 31.05,44.91 L43.5,44.91 L43.5,30.9 L31.05,30.9 Z" id="形状" fill="#3DBDB6"></path>
                <path d="M39.33,38.94 L37.53,38.94 L37.53,40.74 C37.53,41.31 37.08,41.79 36.48,41.79 C35.88,41.79 35.43,41.34 35.43,40.74 L35.43,38.94 L33.63,38.94 C33.06,38.94 32.58,38.49 32.58,37.89 C32.58,37.32 33.03,36.84 33.63,36.84 L35.43,36.84 L35.43,35.04 C35.43,34.47 35.88,33.99 36.48,33.99 C37.08,33.99 37.53,34.44 37.53,35.04 L37.53,36.84 L39.33,36.84 C39.9,36.84 40.38,37.29 40.38,37.89 C40.38,38.49 39.9,38.94 39.33,38.94 Z" id="路径" fill="#3DBDB6"></path>
                <path d="M45.54,23.64 C45.48,23.01 44.97,21.81 42.81,19.53 C42.78,19.5 42.78,19.47 42.75,19.47 L38.58,15.78 C40.92,15.39 42.69,13.38 42.69,10.92 C42.69,8.19 40.47,6 37.77,6 L22.23,6 C19.5,6 17.31,8.22 17.31,10.92 C17.31,13.35 19.11,15.39 21.45,15.78 L17.28,19.5 L17.22,19.56 C15.03,21.87 14.52,23.04 14.46,23.67 L14.46,47.7 C14.46,51.15 17.1,53.97 20.34,53.97 L39.69,53.97 C42.93,53.97 45.57,51.15 45.57,47.7 L45.54,23.64 Z M19.38,10.95 C19.38,9.39 20.67,8.1 22.23,8.1 L37.77,8.1 C39.33,8.1 40.62,9.39 40.62,10.95 C40.62,12.51 39.33,13.8 37.77,13.8 L22.23,13.8 C20.64,13.8 19.38,12.51 19.38,10.95 Z M18.69,21 L24.48,15.87 L35.55,15.87 C35.58,15.9 35.61,15.96 35.67,15.99 L41.34,21 C42,21.69 42.51,22.35 42.9,22.86 L17.13,22.86 C17.49,22.35 18.03,21.69 18.69,21 Z M39.69,51.9 L20.31,51.9 C18.21,51.9 16.5,50.01 16.5,47.7 L16.5,24.96 L43.44,24.96 L43.44,47.7 C43.47,50.01 41.76,51.9 39.69,51.9 Z" id="形状" stroke="#505C71" fill="#505C71"></path>
            </g>
        </g>
    </g>
</svg>