<?xml version="1.0" encoding="UTF-8"?>
<svg width="42px" height="42px" viewBox="0 0 42 42" version="1.1" xmlns="http://www.w3.org/2000/svg" xmlns:xlink="http://www.w3.org/1999/xlink">
    <!-- Generator: Sketch 55.1 (78136) - https://sketchapp.com -->
    <title>房地产_1</title>
    <desc>Created with Sketch.</desc>
    <g id="赤兔官网" stroke="none" stroke-width="1" fill="none" fill-rule="evenodd">
        <g id="3解决方案" transform="translate(-1186.000000, -652.000000)" fill-rule="nonzero">
            <g id="房地产_1" transform="translate(1180.000000, 646.000000)">
                <rect id="矩形" fill="#000000" opacity="0" x="0" y="0" width="54" height="54"></rect>
                <path d="M38.529,11.502 C39.501,11.502 40.284,12.285 40.284,13.257 L40.284,18.522 L38.529,18.522 C37.557,18.522 36.774,17.739 36.774,16.767 L36.774,13.257 C36.774,12.312 37.557,11.502 38.529,11.502 Z" id="路径" fill="#3DBDB6"></path>
                <path d="M8.451,25.731 C8.208,25.731 7.992,25.65 7.803,25.461 C7.479,25.11 7.479,24.543 7.83,24.219 L24.273,8.478 C25.002,7.749 25.947,7.344 26.973,7.344 C27.999,7.317 28.971,7.722 29.7,8.451 L29.727,8.478 L46.17,24.219 C46.521,24.543 46.521,25.11 46.197,25.461 C45.873,25.812 45.306,25.812 44.955,25.488 L28.485,9.72 C28.485,9.72 28.458,9.72 28.458,9.693 L28.431,9.666 C28.026,9.288 27.513,9.072 26.973,9.072 C26.406,9.072 25.893,9.288 25.515,9.693 L25.488,9.72 L9.045,25.488 C8.883,25.65 8.667,25.731 8.451,25.731 Z" id="路径" stroke="#505C71" stroke-width="1.4" fill="#505C71"></path>
                <path d="M43.362,27.675 L27.594,12.771 C27.243,12.447 26.73,12.447 26.379,12.771 L10.638,27.675 C10.422,27.837 10.287,28.08 10.287,28.377 L10.287,43.065 C10.287,45.063 11.907,46.71 13.932,46.71 L27.567,46.71 C27.783,46.71 27.945,46.629 28.107,46.521 C28.35,46.359 28.512,46.089 28.512,45.792 L28.512,32.184 C28.512,31.968 28.593,31.779 28.728,31.644 C28.863,31.509 29.079,31.428 29.268,31.428 L34.56,31.428 C34.992,31.428 35.343,31.779 35.343,32.211 L35.343,45.819 C35.343,46.197 35.559,46.494 35.883,46.629 C36.018,46.71 36.153,46.737 36.315,46.737 L39.987,46.737 C41.985,46.737 43.632,45.09 43.632,43.092 L43.632,28.35 C43.686,28.08 43.551,27.837 43.362,27.675 L43.362,27.675 Z M41.931,43.011 C41.931,44.064 41.094,44.901 40.041,44.901 L37.152,44.901 L37.152,32.13 C37.152,30.726 36.018,29.592 34.614,29.592 L29.322,29.592 C27.918,29.592 26.784,30.726 26.784,32.13 L26.784,44.928 L13.959,44.928 C12.906,44.928 12.069,44.091 12.069,43.038 L12.069,28.755 L27,14.607 L41.931,28.728 L41.931,43.011 L41.931,43.011 Z" id="形状" stroke="#505C71" stroke-width="1.4" fill="#505C71"></path>
                <path d="M16.335,29.538 L22.275,29.538 C22.761,29.538 23.166,29.943 23.166,30.429 L23.166,36.369 C23.166,36.855 22.761,37.26 22.275,37.26 L16.335,37.26 C15.849,37.26 15.444,36.855 15.444,36.369 L15.444,30.429 C15.471,29.916 15.849,29.538 16.335,29.538 Z" id="路径" fill="#3DBDB6"></path>
            </g>
        </g>
    </g>
</svg>