<?xml version="1.0" encoding="UTF-8"?>
<svg width="46px" height="44px" viewBox="0 0 46 44" version="1.1" xmlns="http://www.w3.org/2000/svg" xmlns:xlink="http://www.w3.org/1999/xlink">
    <!-- Generator: Sketch 55.1 (78136) - https://sketchapp.com -->
    <title>教育_2</title>
    <desc>Created with Sketch.</desc>
    <g id="赤兔官网" stroke="none" stroke-width="1" fill="none" fill-rule="evenodd">
        <g id="3解决方案" transform="translate(-437.000000, -734.000000)" fill-rule="nonzero">
            <g id="教育_2" transform="translate(430.000000, 726.000000)">
                <rect id="矩形" fill="#000000" opacity="0" x="0" y="0" width="60" height="60"></rect>
                <path d="M45.93,43.56 L35.04,43.56 C34.47,43.56 33.99,43.08 33.99,42.51 C33.99,41.94 34.47,41.46 35.04,41.46 L45.93,41.46 C47.88,41.46 49.47,39.57 49.47,37.23 L49.47,15.39 C49.47,13.05 47.88,11.16 45.93,11.16 L23.55,11.16 C21.6,11.16 20.01,13.05 20.01,15.39 L20.01,23.31 C20.01,23.88 19.53,24.36 18.96,24.36 C18.39,24.36 17.91,23.88 17.91,23.31 L17.91,15.39 C17.91,11.88 20.46,9.06 23.58,9.06 L45.99,9.06 C49.11,9.06 51.66,11.91 51.66,15.39 L51.66,37.2 C51.6,40.71 49.05,43.56 45.93,43.56 Z" id="路径" stroke="#98A3AD" fill="#98A3AD"></path>
                <path d="M35.79,22.77 L44.76,22.77 C45.33,22.77 45.81,23.25 45.81,23.82 C45.81,24.39 45.33,24.87 44.76,24.87 L35.79,24.87 C35.22,24.87 34.74,24.39 34.74,23.82 C34.74,23.22 35.22,22.77 35.79,22.77 Z M35.79,17.49 L44.76,17.49 C45.33,17.49 45.81,17.97 45.81,18.54 C45.81,19.11 45.33,19.59 44.76,19.59 L35.79,19.59 C35.22,19.59 34.74,19.11 34.74,18.54 C34.74,17.97 35.22,17.49 35.79,17.49 Z" id="形状" fill="#98A3AD"></path>
                <path d="M28.17,42.9 L35.4,30.84 C35.7,30.33 36.33,30.15 36.84,30.45 C37.35,30.75 37.53,31.38 37.23,31.89 L30,43.95 C29.7,44.46 29.07,44.64 28.56,44.34 C28.05,44.04 27.9,43.38 28.17,42.9 Z" id="路径" fill="#98A3AD"></path>
                <path d="M18.93,34.74 C15.51,34.74 12.75,31.95 12.75,28.56 C12.75,25.14 15.54,22.38 18.93,22.38 C22.35,22.38 25.11,25.17 25.11,28.56 C25.14,31.98 22.35,34.74 18.93,34.74 Z M18.93,24.48 C16.68,24.48 14.85,26.31 14.85,28.56 C14.85,30.81 16.68,32.64 18.93,32.64 C21.18,32.64 23.01,30.81 23.01,28.56 C23.04,26.31 21.18,24.48 18.93,24.48 Z M26.19,50.94 L12.09,50.94 C10.05,50.94 8.4,49.29 8.4,47.25 L8.4,41.91 C8.4,38.7 11.01,36.12 14.19,36.12 L24.09,36.12 C27.3,36.12 29.88,38.73 29.88,41.91 L29.88,47.25 C29.88,49.29 28.23,50.94 26.19,50.94 Z M14.19,38.22 C12.15,38.22 10.5,39.87 10.5,41.91 L10.5,47.25 C10.5,48.12 11.22,48.84 12.09,48.84 L26.19,48.84 C27.06,48.84 27.78,48.12 27.78,47.25 L27.78,41.91 C27.78,39.87 26.13,38.22 24.09,38.22 L14.19,38.22 Z" id="形状" stroke="#98A3AD" fill="#98A3AD"></path>
            </g>
        </g>
    </g>
</svg>