<?xml version="1.0" encoding="UTF-8"?>
<svg width="50px" height="50px" viewBox="0 0 50 50" version="1.1" xmlns="http://www.w3.org/2000/svg" xmlns:xlink="http://www.w3.org/1999/xlink">
    <!-- Generator: Sketch 55.1 (78136) - https://sketchapp.com -->
    <title>银行_2</title>
    <desc>Created with Sketch.</desc>
    <g id="赤兔官网" stroke="none" stroke-width="1" fill="none" fill-rule="evenodd">
        <g id="3解决方案" transform="translate(-138.000000, -648.000000)" fill-rule="nonzero">
            <g id="银行_2" transform="translate(134.000000, 644.000000)">
                <rect id="矩形" fill="#000000" opacity="0" x="0" y="0" width="58" height="58"></rect>
                <path d="M21.6784942,44.5837401 L19.8897584,44.5837401 C19.4870181,44.5855017 19.1002921,44.3531594 18.8146565,43.9378163 C18.529021,43.5224733 18.3678741,42.9581527 18.3666667,42.369 L18.3666667,32.14186 C18.3676119,31.5526572 18.5285341,30.9881404 18.8140265,30.5725174 C19.0995189,30.1568943 19.486191,29.9242169 19.8889655,29.9256731 L21.6777012,29.9256731 C22.0804756,29.9242169 22.4671478,30.1568943 22.7526402,30.5725174 C23.0381325,30.9881404 23.1990548,31.5526572 23.2,32.14186 L23.2,42.369 C23.1974853,43.5949395 22.5165393,44.5861362 21.6784942,44.5837401 L21.6784942,44.5837401 Z M38.1108988,44.583737 L36.3222363,44.583737 C35.9194784,44.5851931 35.5328222,44.3525157 35.2473415,43.9368926 C34.9618608,43.5212696 34.8009452,42.9567528 34.8,42.36755 L34.8,32.14186 C34.8009452,31.5526572 34.9618608,30.9881404 35.2473415,30.5725174 C35.5328222,30.1568943 35.9194784,29.9242169 36.3222363,29.9256731 L38.1108988,29.9256731 C38.513675,29.9242168 38.9003517,30.156885 39.1858638,30.5724998 C39.471376,30.9881145 39.6323356,31.5526306 39.6333333,32.14186 L39.6333333,42.369 C39.6307096,43.5954402 38.9492511,44.5867777 38.1108988,44.583737 L38.1108988,44.583737 Z" id="形状" fill="#98A3AD"></path>
                <path d="M52.47724,18.038 L31.19414,4.9735 C29.8492601,4.14300533 28.1507399,4.14300533 26.80586,4.9735 L5.52305,18.038 C4.35344007,18.7564765 3.80435818,20.1651398 4.17920157,21.4856277 C4.55404496,22.8061156 5.76134356,23.7161999 7.134,23.7130184 L50.866,23.7130184 C52.2384591,23.7158684 53.4454476,22.8058344 53.8202994,21.4855547 C54.1951511,20.165275 53.6464399,18.7567655 52.47724,18.038 Z M7.424,20.5492889 L28.88922,7.46079207 C28.9734336,7.40861709 29.0799264,7.40861709 29.16414,7.46079207 L50.866,20.5492889 L7.424,20.5492889 Z M15.138,43.76651 L15.138,30.33226 C15.138,29.2489203 14.4910188,28.3707 13.4076791,28.3707 C12.3243394,28.3707 11.6773582,29.2489203 11.6773582,30.33226 L11.6773582,43.76651 C11.6773582,44.8498497 12.3243394,45.5546027 13.4076791,45.5546027 C14.4910188,45.5546027 15.138,44.8498497 15.138,43.76651 Z M30.8992685,30.33226 C30.8992685,29.2489203 30.0831153,28.3707 28.9997756,28.3707 C27.9164359,28.3707 27.29973,29.2489203 27.29973,30.33226 L27.29973,43.76651 C27.29973,44.8499298 27.7841119,45.5546027 28.8675316,45.5546027 C29.9509514,45.5546027 30.8995585,44.8499298 30.8995585,43.76651 L30.8992685,30.33226 Z M47.30799,30.33226 C47.30799,29.2489203 46.525505,28.3707 45.4421653,28.3707 C44.3588256,28.3707 43.5760506,29.2489203 43.5760506,30.33226 L43.5760506,43.76651 C43.5760506,44.8499298 44.3587455,45.5546027 45.4421653,45.5546027 C46.525585,45.5546027 47.30828,44.8499298 47.30828,43.76651 L47.30799,30.33226 Z M7.424,50.6817526 C6.71933899,50.6731733 6.06450297,51.0441895 5.70967259,51.6530542 C5.35484221,52.2619188 5.35484221,52.3598338 5.70967259,52.9686984 C6.06450297,53.577563 6.71933899,53.9485792 7.424,53.94 L50.90428,53.94 C51.608941,53.9485792 52.263777,53.577563 52.6186074,52.9686984 C52.9734378,52.3598338 52.9734378,52.2619188 52.6186074,51.6530542 C52.263777,51.0441895 51.608941,50.6731733 50.90428,50.6817526 L7.424,50.6817526 Z" id="形状" fill="#98A3AD"></path>
            </g>
        </g>
    </g>
</svg>