<?xml version="1.0" encoding="UTF-8"?>
<svg width="70px" height="65px" viewBox="0 0 70 65" version="1.1" xmlns="http://www.w3.org/2000/svg" xmlns:xlink="http://www.w3.org/1999/xlink">
    <!-- Generator: Sketch 55.1 (78136) - https://sketchapp.com -->
    <title>jiaru</title>
    <desc>Created with Sketch.</desc>
    <g id="赤兔官网" stroke="none" stroke-width="1" fill="none" fill-rule="evenodd">
        <g id="5关于我们" transform="translate(-1065.000000, -1894.000000)" fill-rule="nonzero">
            <g id="jiaru" transform="translate(1065.000000, 1894.000000)">
                <path d="M63.8227983,43.6313746 L62.5177557,43.6313746 L62.5177557,43.0394459 L62.4633789,42.4475173 L62.5177557,42.4397287 L62.5177557,42.385209 L63.1159002,42.385209 L63.7062766,42.3306892 L63.8227983,43.6313746 Z M61.274858,43.6313746 L60.0319602,43.6313746 L60.0319602,42.385209 L61.274858,42.385209 L61.274858,43.6313746 Z M58.7812944,43.6313746 L57.5383967,43.6313746 L57.5383967,42.385209 L58.7812944,42.385209 L58.7812944,43.6313746 Z M56.2877308,43.6313746 L55.0448331,43.6313746 L55.0448331,42.385209 L56.2877308,42.385209 L56.2877308,43.6313746 Z M53.8019354,43.6313746 L52.5590376,43.6313746 L52.5590376,42.385209 L53.8019354,42.385209 L53.8019354,43.6313746 Z M51.3083718,43.6313746 L50.0654741,43.6313746 L50.0654741,42.385209 L51.3083718,42.385209 L51.3083718,43.6313746 Z M48.8148082,43.6313746 L47.5719105,43.6313746 L47.5719105,42.385209 L48.8148082,42.385209 L48.8148082,43.6313746 Z M46.3212447,43.6313746 L45.0783469,43.6313746 L45.0783469,42.385209 L46.3212447,42.385209 L46.3212447,43.6313746 Z M43.8276811,43.6313746 L42.5847834,43.6313746 L42.5847834,42.385209 L43.8276811,42.385209 L43.8276811,43.6313746 Z M41.3418857,43.6313746 L40.0989879,43.6313746 L40.0989879,42.385209 L41.3418857,42.385209 L41.3418857,43.6313746 Z M38.8483221,43.6313746 L37.6054244,43.6313746 L37.6054244,42.385209 L38.8483221,42.385209 L38.8483221,43.6313746 Z M36.3547585,43.6313746 L35.1118608,43.6313746 L35.1118608,42.385209 L36.3547585,42.385209 L36.3547585,43.6313746 Z M33.861195,43.6313746 L32.6182972,43.6313746 L32.6182972,42.385209 L33.861195,42.385209 L33.861195,43.6313746 Z M31.3753995,43.6313746 L30.1325018,43.6313746 L30.1325018,42.385209 L31.3753995,42.385209 L31.3753995,43.6313746 Z M28.8818359,43.6313746 L27.4680398,43.6313746 L27.8020685,42.2528039 L28.3380682,42.385209 L28.8818359,42.385209 L28.8818359,42.5254026 L29.0138938,42.5565567 L28.8818359,43.0861771 L28.8818359,43.6313746 Z M29.309082,41.3337567 L28.1050249,41.0377924 L28.4079812,39.8149923 L29.6120384,40.1109567 L29.309082,41.3337567 Z M29.9149947,38.8881566 L28.7109375,38.5921923 L29.0138938,37.3693923 L30.217951,37.6653566 L29.9149947,38.8881566 Z M30.5131392,36.4425566 L29.309082,36.1465922 L29.6120384,34.9237922 L30.8160955,35.2197565 L30.5131392,36.4425566 Z M31.1112837,33.9969565 L29.9072266,33.7009921 L30.2101829,32.4781921 L31.4142401,32.7741564 L31.1112837,33.9969565 Z M31.7171964,31.5513564 L30.5131392,31.2553921 L30.8160955,30.032592 L32.0201527,30.3285564 L31.7171964,31.5513564 Z M32.3153409,29.1057563 L31.1112837,28.809792 L31.4142401,27.5869919 L32.6182972,27.8829563 L32.3153409,29.1057563 Z M32.9134854,26.6601563 L31.7094283,26.3641919 L32.0123846,25.1413919 L33.2164418,25.4373562 L32.9134854,26.6601563 Z M33.51163,24.2067676 L32.3075728,23.9108033 L32.6105291,22.6880033 L33.8145863,22.9839676 L33.51163,24.2067676 Z M34.1175426,21.7611676 L32.9057173,21.4652032 L33.1698331,20.3903854 L34.2806729,20.3903854 L34.2806729,21.636551 L34.1486151,21.636551 L34.1175426,21.7611676 Z M66.673695,21.636551 L65.4307972,21.636551 L65.4307972,20.3903854 L66.673695,20.3903854 L66.673695,21.636551 Z M64.1801314,21.636551 L62.9372337,21.636551 L62.9372337,20.3903854 L64.1801314,20.3903854 L64.1801314,21.636551 Z M61.6943359,21.636551 L60.4514382,21.636551 L60.4514382,20.3903854 L61.6943359,20.3903854 L61.6943359,21.636551 Z M59.2007724,21.636551 L57.9578746,21.636551 L57.9578746,20.3903854 L59.2007724,20.3903854 L59.2007724,21.636551 Z M56.7072088,21.636551 L55.4643111,21.636551 L55.4643111,20.3903854 L56.7072088,20.3903854 L56.7072088,21.636551 Z M54.2136452,21.636551 L52.9707475,21.636551 L52.9707475,20.3903854 L54.2136452,20.3903854 L54.2136452,21.636551 Z M51.7278498,21.636551 L50.4849521,21.636551 L50.4849521,20.3903854 L51.7278498,20.3903854 L51.7278498,21.636551 Z M49.2342862,21.636551 L47.9913885,21.636551 L47.9913885,20.3903854 L49.2342862,20.3903854 L49.2342862,21.636551 Z M46.7407227,21.636551 L45.4978249,21.636551 L45.4978249,20.3903854 L46.7407227,20.3903854 L46.7407227,21.636551 Z M44.2471591,21.636551 L43.0042614,21.636551 L43.0042614,20.3903854 L44.2471591,20.3903854 L44.2471591,21.636551 Z M41.7535955,21.636551 L40.5106978,21.636551 L40.5106978,20.3903854 L41.7535955,20.3903854 L41.7535955,21.636551 Z M39.2678001,21.636551 L38.0249023,21.636551 L38.0249023,20.3903854 L39.2678001,20.3903854 L39.2678001,21.636551 Z M36.7742365,21.636551 L35.5313388,21.636551 L35.5313388,20.3903854 L36.7742365,20.3903854 L36.7742365,21.636551 Z M68.7633168,21.8624185 L68.3749112,21.636551 L67.9243608,21.636551 L67.9243608,21.3717408 L67.6913175,21.2315472 L67.9243608,20.8421204 L67.9243608,20.3903854 L69.6255771,20.3903854 L68.7633168,21.8624185 Z M62.3623935,41.2636599 L62.2536399,40.0798025 L63.4887695,39.970763 L63.5975231,41.1546204 L62.3623935,41.2636599 Z M62.1448864,38.9037337 L62.0361328,37.7198763 L63.2712624,37.6108368 L63.380016,38.7946942 L62.1448864,38.9037337 Z M61.9273793,36.5438075 L61.8186257,35.3599502 L63.0537553,35.2509107 L63.1625089,36.434768 L61.9273793,36.5438075 Z M61.7176403,34.1760928 L61.6088867,32.9922354 L62.8440163,32.8831959 L62.9527699,34.0670533 L61.7176403,34.1760928 Z M62.8051758,32.1043424 L61.7331765,31.4734711 L62.331321,30.4453844 L63.4033203,31.0762558 L62.8051758,32.1043424 Z M64.0014648,30.0559576 L62.9294656,29.4250863 L63.5276101,28.3969996 L64.5996094,29.027871 L64.0014648,30.0559576 Z M65.1899858,28.0075729 L64.1179865,27.3767015 L64.716131,26.3486148 L65.7881303,26.9794862 L65.1899858,28.0075729 Z M66.3785067,25.9591881 L65.3065075,25.3283167 L65.904652,24.3002301 L66.9766513,24.9311014 L66.3785067,25.9591881 Z M67.5747958,23.9108033 L66.5027965,23.2799319 L67.1009411,22.2518453 L68.1729403,22.8827166 L67.5747958,23.9108033 Z" id="形状" fill="#0A0408"></path>
                <polygon id="路径" fill="#EBB866" points="56.7305131 43.0082918 24.6482156 43.0082918 30.0470526 21.0134682 62.1371183 21.0134682 55.4254705 32.01088"></polygon>
                <path d="M57.4296431,43.6313746 L23.8558683,43.6313746 L29.5654297,20.3825968 L63.2479581,20.3825968 L56.0702237,32.1432851 L57.4296431,43.6313746 L57.4296431,43.6313746 Z M25.4405629,42.385209 L56.0313832,42.385209 L54.7807173,31.8706863 L61.0262784,21.636551 L30.5364435,21.636551 L25.4405629,42.385209 Z" id="形状" fill="#0A0408"></path>
                <polygon id="路径" fill="#55B7A8" points="13.4699041 59.0916171 8.33518288 59.0916171 24.0656072 0.638659893 29.2080966 0.638659893"></polygon>
                <path d="M13.9437589,59.7147 L7.51953125,59.7147 L23.5917525,0.0155770706 L30.0159801,0.0155770706 L13.9437589,59.7147 Z M9.14306641,58.4685343 L12.9960494,58.4685343 L28.392445,1.26174271 L24.5472301,1.26174271 L9.14306641,58.4685343 Z" id="形状" fill="#0A0408"></path>
                <polygon id="路径" fill="#EBB866" points="48.8381126 32.01088 13.6485707 32.01088 19.0474077 10.0082678 54.2369496 10.0082678"></polygon>
                <path d="M49.3275036,32.6339628 L12.8562234,32.6339628 L18.5657848,9.38518501 L55.037065,9.38518501 L49.3275036,32.6339628 Z M14.440918,31.3877972 L48.3564897,31.3877972 L53.4446023,10.6313507 L19.5367987,10.6313507 L14.440918,31.3877972 Z" id="形状" fill="#0A0408"></path>
                <polygon id="路径" fill="#68A4D9" points="3.93066406 58.6554592 18.6745384 58.6554592 18.6745384 64.0139714 3.93066406 64.0139714"></polygon>
                <path d="M19.2959872,64.6370543 L3.3092152,64.6370543 L3.3092152,58.0323763 L19.2959872,58.0323763 L19.2959872,64.6370543 Z M4.55211293,63.3908886 L18.0530895,63.3908886 L18.0530895,59.278542 L4.55211293,59.278542 L4.55211293,63.3908886 Z" id="形状" fill="#0A0408"></path>
                <path d="M0.0466086648,63.3908886 L22.5585937,63.3908886 L22.5585937,64.6370543 L0.0466086648,64.6370543 L0.0466086648,63.3908886 Z M16.5926847,20.3903854 L34.6690785,20.3903854 L34.6690785,21.636551 L16.5926847,21.636551 L16.5926847,20.3903854 Z" id="形状" fill="#0A0408"></path>
            </g>
        </g>
    </g>
</svg>