<?xml version="1.0" encoding="UTF-8"?>
<svg width="72px" height="72px" viewBox="0 0 72 72" version="1.1" xmlns="http://www.w3.org/2000/svg" xmlns:xlink="http://www.w3.org/1999/xlink">
    <!-- Generator: Sketch 55.1 (78136) - https://sketchapp.com -->
    <title>jishu</title>
    <desc>Created with Sketch.</desc>
    <g id="赤兔官网" stroke="none" stroke-width="1" fill="none" fill-rule="evenodd">
        <g id="5关于我们" transform="translate(-482.000000, -1890.000000)" fill-rule="nonzero">
            <g id="jishu" transform="translate(482.000000, 1890.000000)">
                <path d="M35.2681108,71.7347301 C34.8366477,71.7267401 34.4051847,71.7107599 33.9737216,71.6867898 L34.037642,70.4083807 C34.453125,70.4323509 34.868608,70.448331 35.2840909,70.448331 L35.2681108,71.7347301 L35.2681108,71.7347301 Z M36.5625,71.7347301 L36.5385298,70.456321 C36.9540128,70.448331 37.3694957,70.4323509 37.7849787,70.4083807 L37.8568892,71.6867898 C37.4254261,71.7107599 36.985973,71.7267401 36.5625,71.7347301 Z M32.6793324,71.5988991 C32.2478693,71.5589489 31.8164062,71.5110085 31.3929332,71.4630682 L31.5527344,70.1926491 C31.9602273,70.2405895 32.3837003,70.2885298 32.7911932,70.3284801 L32.6793324,71.5988991 Z M39.1432884,71.5909091 L39.0314276,70.3204901 C39.4469105,70.2805398 39.8623935,70.2405895 40.2698864,70.1846591 L40.4296875,71.4550781 C40.0062145,71.5110085 39.5747514,71.5509588 39.1432884,71.5909091 Z M30.1145241,71.2713068 C29.6910511,71.1993963 29.2595881,71.1274858 28.8441051,71.0395952 L29.0917969,69.7851562 C29.4992898,69.8650568 29.9147727,69.9449574 30.3222656,70.0088778 L30.1145241,71.2713068 L30.1145241,71.2713068 Z M41.7160866,71.2713068 L41.5083452,70.0088778 C41.9158381,69.9449574 42.331321,69.8650568 42.7388139,69.7851562 L42.9865057,71.0395952 C42.5630327,71.1194957 42.1395597,71.1993963 41.7160866,71.2713068 L41.7160866,71.2713068 Z M27.5736861,70.7679332 C27.1582031,70.6720526 26.7347301,70.5601918 26.3192472,70.448331 L26.6628196,69.2178622 C27.0623224,69.329723 27.4698153,69.4335938 27.8693182,69.5294744 L27.5736861,70.7679332 L27.5736861,70.7679332 Z M44.2489347,70.7599432 L43.9533026,69.5134943 C44.3607955,69.4176136 44.7602983,69.3137429 45.1598011,69.2018821 L45.5033736,70.4323509 C45.0878906,70.5522017 44.6724077,70.6560724 44.2489347,70.7599432 L44.2489347,70.7599432 Z M25.0807884,70.0807884 C24.6732955,69.9529474 24.2578125,69.8091264 23.8503196,69.6653054 L24.2817827,68.4588068 C24.6732955,68.5946378 25.0727983,68.7304687 25.4723011,68.8583097 L25.0807884,70.0807884 L25.0807884,70.0807884 Z M46.7418324,70.0648082 L46.3583097,68.8423295 C46.7498224,68.7144886 47.1493253,68.5866477 47.5408381,68.4428267 L47.9723011,69.6493253 C47.5648082,69.8011364 47.1573153,69.9369673 46.7418324,70.0648082 L46.7418324,70.0648082 Z M22.635831,69.2098722 C22.2363281,69.050071 21.8368253,68.8822798 21.4373224,68.7064986 L21.9566761,67.5399503 C22.3401989,67.7077415 22.7237216,67.8675426 23.1072443,68.0273437 L22.635831,69.2098722 Z M49.1787997,69.193892 L48.7073864,68.0033736 C49.0909091,67.8515625 49.4744318,67.6917614 49.8579545,67.5239702 L50.3773082,68.6905185 C49.9778054,68.8662997 49.5783026,69.0340909 49.1787997,69.193892 Z M20.2627841,68.1551847 C19.8792614,67.9714134 19.4877486,67.7716619 19.1042259,67.5719105 L19.7034801,66.4453125 C20.0710227,66.6370739 20.4465554,66.8288352 20.8220881,67.0126065 L20.2627841,68.1551847 Z M51.5438565,68.1551847 L50.9845526,67.0046165 C51.3520952,66.8208452 51.7276278,66.6370739 52.0951705,66.4373224 L52.6944247,67.5639205 C52.318892,67.7716619 51.9273793,67.9634233 51.5438565,68.1551847 Z M17.9696378,66.940696 C17.5941051,66.7249645 17.2265625,66.5012429 16.8590199,66.2695312 L17.5381747,65.1828835 C17.8897372,65.4066051 18.2492898,65.6223366 18.6088423,65.8300781 L17.9696378,66.940696 Z M53.8290128,66.940696 L53.1898082,65.8380682 C53.5493608,65.6303267 53.9089134,65.4145952 54.2604759,65.1908736 L54.9396307,66.2775213 C54.5720881,66.5012429 54.1965554,66.7249645 53.8290128,66.940696 Z M56.0182884,65.5664062 L55.2991832,64.5117187 C55.6427557,64.2800071 55.9863281,64.0403054 56.3219105,63.7926136 L57.0809659,64.823331 C56.7294034,65.0710227 56.3698509,65.3267045 56.0182884,65.5664062 L56.0182884,65.5664062 Z M15.7723722,65.5664062 C15.4208097,65.3267045 15.0612571,65.0710227 14.7176847,64.8153409 L15.4767401,63.7846236 C15.8123224,64.0323153 16.1558949,64.272017 16.4994673,64.5037287 L15.7723722,65.5664062 Z M58.1036932,64.0403054 L57.3126776,63.0335582 C57.6402699,62.7778764 57.9598722,62.5142045 58.2794744,62.2425426 L59.1104403,63.2173295 C58.774858,63.4969815 58.4392756,63.7686435 58.1036932,64.0403054 Z M13.6869673,64.0323153 C13.3513849,63.7686435 13.0158026,63.4889915 12.6882102,63.2093395 L13.5191761,62.2345526 C13.8307884,62.5062145 14.1583807,62.7698864 14.485973,63.0255682 L13.6869673,64.0323153 Z M60.0692472,62.3623935 L59.206321,61.4195668 C59.5099432,61.1399148 59.8135653,60.8522727 60.1091974,60.5646307 L61.0040838,61.4754972 C60.7084517,61.7711293 60.3888494,62.0747514 60.0692472,62.3623935 L60.0692472,62.3623935 Z M11.7134233,62.3544034 C11.393821,62.0667614 11.0822088,61.7631392 10.7705966,61.4675071 L11.665483,60.5566406 C11.9611151,60.8442827 12.2647372,61.1399148 12.5683594,61.4115767 L11.7134233,62.3544034 Z M61.9229403,60.5486506 L60.9960938,59.6697443 C61.2837358,59.3661222 61.5633878,59.0625 61.8350497,58.7508878 L62.7938565,59.5978338 C62.5062145,59.9174361 62.2185724,60.2370384 61.9229403,60.5486506 Z M9.86772017,60.5406605 C9.57208807,60.2290483 9.27645597,59.909446 8.99680398,59.5818537 L9.9556108,58.7349077 C10.2272727,59.0465199 10.5149148,59.3581321 10.7945668,59.6537642 L9.86772017,60.5406605 Z M63.6328125,58.6070668 L62.6420455,57.800071 C62.9057173,57.4804687 63.1613991,57.1528764 63.417081,56.817294 L64.4318182,57.5923295 C64.1761364,57.935902 63.9044744,58.2794744 63.6328125,58.6070668 L63.6328125,58.6070668 Z M8.14985795,58.5990767 C7.87819602,58.2634943 7.60653409,57.9279119 7.35085227,57.5843395 L8.36558949,56.809304 C8.61328125,57.1368963 8.87695312,57.4644886 9.140625,57.7840909 L8.14985795,58.5990767 L8.14985795,58.5990767 Z M65.1988636,56.5456321 L64.1521662,55.8105469 C64.3918679,55.4749645 64.6315696,55.123402 64.8552912,54.7798295 L65.9259588,55.4829545 C65.6942472,55.834517 65.4465554,56.1940696 65.1988636,56.5456321 L65.1988636,56.5456321 Z M6.58380682,56.5456321 C6.33611506,56.1940696 6.0884233,55.834517 5.85671165,55.4749645 L6.92737926,54.7718395 C7.15110085,55.1154119 7.39080256,55.4669744 7.63050426,55.8025568 L6.58380682,56.5456321 L6.58380682,56.5456321 Z M5.16956676,54.3803267 C4.94584517,54.0127841 4.73011364,53.6372514 4.52237216,53.2617187 L5.64098011,52.6384943 C5.84073153,52.9980469 6.04847301,53.3655895 6.26420455,53.717152 L5.16956676,54.3803267 Z M66.6210937,54.3803267 L65.526456,53.717152 C65.7421875,53.3575994 65.949929,52.9980469 66.1496804,52.6384943 L67.2682884,53.2617187 C67.0605469,53.6292614 66.8448153,54.0127841 66.6210937,54.3803267 L66.6210937,54.3803267 Z M3.91512784,52.1191406 C3.72336648,51.7356179 3.53160511,51.3441051 3.34783381,50.9605824 L4.50639205,50.4252486 C4.6821733,50.8007812 4.8659446,51.1763139 5.04971591,51.5438565 L3.91512784,52.1191406 Z M67.8755327,52.1111506 L66.7329545,51.5278764 C66.9247159,51.1603338 67.1084872,50.7768111 67.2762784,50.4012784 L68.4348366,50.9366122 C68.2670455,51.3361151 68.0752841,51.7276278 67.8755327,52.1111506 L67.8755327,52.1111506 Z M2.82848011,49.778054 C2.66068892,49.3865412 2.50088778,48.9790483 2.3490767,48.5795455 L3.54758523,48.1241122 C3.69140625,48.5076349 3.85120739,48.8991477 4.01100852,49.2826705 L2.82848011,49.778054 Z M68.9701705,49.7540838 L67.787642,49.2587003 C67.9474432,48.8751776 68.1072443,48.4836648 68.2510653,48.100142 L69.4495739,48.5555753 C69.2977628,48.9550781 69.1379616,49.362571 68.9701705,49.7540838 Z M1.91761364,47.3650568 C1.78178267,46.9575639 1.6459517,46.542081 1.52610085,46.1345881 L2.74857955,45.7670455 C2.8684304,46.1665483 2.99627131,46.5660511 3.12411222,46.9575639 L1.91761364,47.3650568 Z M69.889027,47.3251065 L68.6745384,46.9176136 C68.8103693,46.5261009 68.9302202,46.126598 69.050071,45.7270952 L70.2725497,46.0866477 C70.1526989,46.5021307 70.024858,46.9176136 69.889027,47.3251065 Z M1.17453835,44.8801491 C1.07066761,44.4646662 0.966796875,44.0411932 0.870916193,43.6177202 L2.11736506,43.3460582 C2.20525568,43.7535511 2.30113636,44.161044 2.4050071,44.5605469 L1.17453835,44.8801491 L1.17453835,44.8801491 Z M70.6241122,44.8481889 L69.3856534,44.5285866 C69.4895241,44.1290838 69.5854048,43.7215909 69.6732955,43.314098 L70.9197443,43.5857599 C70.8318537,44.009233 70.727983,44.432706 70.6241122,44.8481889 L70.6241122,44.8481889 Z M0.623224432,42.3552912 C0.543323864,41.9318182 0.479403409,41.5003551 0.415482955,41.0768821 L1.67791193,40.8931108 C1.73384233,41.3006037 1.80575284,41.7160866 1.87766335,42.1235795 L0.623224432,42.3552912 Z M71.1754261,42.3153409 L69.9209872,42.0836293 C69.9928977,41.6761364 70.0648082,41.2606534 70.1207386,40.8531605 L71.3831676,41.0369318 C71.3192472,41.4683949 71.2553267,41.8918679 71.1754261,42.3153409 L71.1754261,42.3153409 Z M0.247691761,39.790483 C0.19975142,39.3670099 0.159801136,38.9275568 0.127840909,38.5040838 L1.40625,38.4082031 C1.43821023,38.8236861 1.47017045,39.239169 1.5181108,39.654652 L0.247691761,39.790483 Z M71.5429687,39.7585227 L70.2725497,39.6226918 C70.3204901,39.2072088 70.3524503,38.7917259 70.3844105,38.3762429 L71.6628196,38.4641335 C71.6308594,38.8955966 71.5909091,39.3270597 71.5429687,39.7585227 Z M0.0639204545,37.2096946 C0.0479403409,36.7782315 0.0399502841,36.3467685 0.0399502841,35.9153054 L1.31835938,35.9153054 C1.31835938,36.3307884 1.32634943,36.7542614 1.34232955,37.1617543 L0.0639204545,37.2096946 Z M71.7267401,37.1777344 L70.448331,37.129794 C70.4643111,36.7143111 70.4723011,36.2988281 70.4723011,35.8833452 L70.4723011,35.8114347 L71.7507102,35.8034446 L71.7507102,35.8753551 C71.7507102,36.3068182 71.7427202,36.7462713 71.7267401,37.1777344 L71.7267401,37.1777344 Z M1.33433949,34.6688565 L0.0559303977,34.6209162 C0.0719105114,34.1894531 0.0958806818,33.7579901 0.119850852,33.326527 L1.39825994,33.4144176 C1.37428977,33.8299006 1.3503196,34.2533736 1.33433949,34.6688565 Z M70.448331,34.5649858 C70.4323509,34.1495028 70.4083807,33.7340199 70.3764205,33.3185369 L71.6548295,33.2226562 C71.6867898,33.6541193 71.7107599,34.0855824 71.7267401,34.5170455 L70.448331,34.5649858 Z M1.51012074,32.1759588 L0.239701705,32.0401278 C0.287642045,31.6166548 0.335582386,31.1772017 0.399502841,30.7537287 L1.66193182,30.9375 C1.60600142,31.3449929 1.55806108,31.7604759 1.51012074,32.1759588 L1.51012074,32.1759588 Z M70.2645597,32.0720881 C70.2166193,31.6566051 70.168679,31.2411222 70.1047585,30.8336293 L71.3671875,30.649858 C71.431108,31.073331 71.4870384,31.504794 71.5349787,31.9362571 L70.2645597,32.0720881 Z M1.86168324,29.7070312 L0.607244318,29.4833097 C0.687144886,29.0598366 0.767045455,28.6363636 0.862926136,28.2128906 L2.109375,28.4845526 C2.02148438,28.8840554 1.94158381,29.2995384 1.86168324,29.7070312 Z M69.9050071,29.6031605 C69.8330966,29.1956676 69.745206,28.7881747 69.6573153,28.3806818 L70.9037642,28.1010298 C70.9996449,28.5165128 71.0795455,28.9479759 71.159446,29.3714489 L69.9050071,29.6031605 L69.9050071,29.6031605 Z M2.39701705,27.2700639 L1.15855824,26.9504616 C1.26242898,26.5349787 1.38227983,26.1115057 1.50213068,25.7040128 L2.72460938,26.0635653 C2.61274858,26.4630682 2.50088778,26.862571 2.39701705,27.2700639 Z M69.3696733,27.1661932 C69.2658026,26.7666903 69.1539418,26.3591974 69.0340909,25.9676847 L70.2565696,25.600142 C70.3764205,26.015625 70.4962713,26.431108 70.6081321,26.8465909 L69.3696733,27.1661932 L69.3696733,27.1661932 Z M3.10014205,24.8730469 L1.88565341,24.465554 C2.02148438,24.0580611 2.1653054,23.6425781 2.31711648,23.2430753 L3.515625,23.6905185 C3.37979403,24.0820312 3.23597301,24.4815341 3.10014205,24.8730469 Z M68.6505682,24.7771662 C68.5147372,24.3856534 68.3789062,23.9861506 68.2270952,23.6026278 L69.4256037,23.1471946 C69.5774148,23.5466974 69.7292259,23.9621804 69.8650568,24.3616832 L68.6505682,24.7771662 Z M3.98703835,22.5319602 L2.80450994,22.0365767 C2.97230114,21.6370739 3.14808239,21.237571 3.32386364,20.8460582 L4.48242188,21.381392 C4.31463068,21.7649148 4.14683949,22.1484375 3.98703835,22.5319602 Z M67.7636719,22.4440696 C67.6038707,22.0605469 67.4360795,21.6770241 67.2602983,21.3094815 L68.4188565,20.7661577 C68.6026278,21.1576705 68.7784091,21.5491832 68.9462003,21.9486861 L67.7636719,22.4440696 L67.7636719,22.4440696 Z M5.0337358,20.2627841 L3.89115767,19.6875 C4.08291903,19.3039773 4.29066051,18.9204545 4.49840199,18.5449219 L5.61700994,19.1681463 C5.41725852,19.5197088 5.22549716,19.8872514 5.0337358,20.2627841 L5.0337358,20.2627841 Z M66.7169744,20.1908736 C66.5332031,19.823331 66.3334517,19.4557884 66.1337003,19.0882457 L67.2523082,18.4650213 C67.4600497,18.840554 67.6677912,19.2240767 67.8595526,19.6075994 L66.7169744,20.1908736 L66.7169744,20.1908736 Z M6.24822443,18.0735085 L5.15358665,17.4103338 C5.37730824,17.0427912 5.60901989,16.6752486 5.84073153,16.315696 L6.91139915,17.010831 C6.68767756,17.3623935 6.46395597,17.713956 6.24822443,18.0735085 Z M65.5024858,18.0095881 C65.2867543,17.6580256 65.0630327,17.298473 64.8393111,16.9549006 L65.9099787,16.2517756 C66.1416903,16.6113281 66.373402,16.9788707 66.5971236,17.3464134 L65.5024858,18.0095881 Z M7.61452415,15.9801136 L6.5678267,15.2450284 C6.81551847,14.8934659 7.07120028,14.5419034 7.33487216,14.198331 L8.34960938,14.9733665 C8.10191761,15.3009588 7.85422585,15.6365412 7.61452415,15.9801136 Z M64.1361861,15.9241832 C63.8964844,15.5886009 63.6487926,15.2530185 63.4011009,14.9174361 L64.4158381,14.1424006 C64.6795099,14.485973 64.9351918,14.8375355 65.1828835,15.181108 L64.1361861,15.9241832 Z M9.12464489,13.9905895 L8.13387784,13.1835938 C8.40553977,12.8480114 8.68519176,12.520419 8.97283381,12.1928267 L9.93164063,13.0397727 C9.65997869,13.3513849 9.38831676,13.6709872 9.12464489,13.9905895 L9.12464489,13.9905895 Z M62.6260653,13.9426491 C62.3623935,13.6230469 62.0907315,13.3034446 61.8190696,12.9918324 L62.7778764,12.1448864 C63.0655185,12.4644886 63.3451705,12.800071 63.6168324,13.1276634 L62.6260653,13.9426491 Z M10.7705966,12.1129261 L9.84375,11.2340199 C10.1393821,10.9224077 10.4430043,10.6107955 10.7466264,10.3071733 L11.6415128,11.2180398 L10.7705966,12.1129261 Z M60.9721236,12.0729759 C60.6844815,11.7693537 60.3968395,11.4737216 60.0932173,11.1860795 L60.9881037,10.2752131 C61.2917259,10.5788352 61.6033381,10.8904474 61.8989702,11.1940696 L60.9721236,12.0729759 Z M12.5523793,10.3631037 L11.6894531,9.42027699 C12.0090554,9.13263494 12.3286577,8.8449929 12.65625,8.56534091 L13.4872159,9.54012784 C13.1756037,9.81178977 12.8560014,10.0834517 12.5523793,10.3631037 Z M59.1903409,10.3231534 C58.8867188,10.0435014 58.5671165,9.76384943 58.2555043,9.50017756 L59.0864702,8.52539062 C59.4140625,8.80504261 59.7416548,9.09268466 60.0612571,9.3803267 L59.1903409,10.3231534 Z M14.4540128,8.74911222 L13.6629972,7.75035511 C13.9985795,7.48668324 14.342152,7.22301136 14.6937145,6.96732955 L15.4527699,7.99804687 C15.1091974,8.23774858 14.7816051,8.4934304 14.4540128,8.74911222 L14.4540128,8.74911222 Z M57.2887074,8.70916193 C56.9611151,8.45348011 56.6255327,8.1977983 56.2899503,7.95010653 L57.0410156,6.9193892 C57.3845881,7.17507102 57.7361506,7.4387429 58.071733,7.70241477 L57.2887074,8.70916193 Z M16.4675071,7.2709517 L15.748402,6.2162642 C16.0999645,5.9765625 16.4675071,5.7368608 16.8270597,5.50514915 L17.5062145,6.58380682 C17.154652,6.80752841 16.8030895,7.03924006 16.4675071,7.2709517 Z M55.267223,7.23100142 C54.9236506,6.99928977 54.5720881,6.76757812 54.2205256,6.55184659 L54.8996804,5.46519886 C55.267223,5.69691051 55.6267756,5.92862216 55.9863281,6.17631392 L55.267223,7.23100142 Z M18.5768821,5.94460227 L17.9376776,4.84197443 C18.3052202,4.6262429 18.6887429,4.41850142 19.0642756,4.21075994 L19.6635298,5.33735795 C19.2959872,5.53710937 18.9284446,5.7368608 18.5768821,5.94460227 Z M53.149858,5.90465199 C52.7903054,5.69691051 52.4227628,5.49715909 52.0552202,5.29740767 L52.6544744,4.17080966 C53.0379972,4.37056108 53.4135298,4.58629261 53.7890625,4.80202415 L53.149858,5.90465199 L53.149858,5.90465199 Z M20.7741477,4.77006392 L20.2148438,3.61949574 C20.5983665,3.42773437 20.9978693,3.25195312 21.3893821,3.07617187 L21.9087358,4.24272017 C21.5252131,4.41850142 21.1416903,4.59428267 20.7741477,4.77006392 L20.7741477,4.77006392 Z M50.9446023,4.73810369 C50.5690696,4.55433239 50.1855469,4.37855114 49.8100142,4.21075994 L50.3213778,3.04421165 C50.7128906,3.2199929 51.1123935,3.4037642 51.4959162,3.58753551 L50.9446023,4.73810369 L50.9446023,4.73810369 Z M23.0513139,3.76331676 L22.5799006,2.5727983 C22.9794034,2.41299716 23.3868963,2.26118608 23.7943892,2.11736506 L24.2258523,3.32386364 C23.8263494,3.4596946 23.4348366,3.61150568 23.0513139,3.76331676 L23.0513139,3.76331676 Z M48.651456,3.73135653 C48.2679332,3.57954545 47.8684304,3.42773437 47.4769176,3.29190341 L47.9083807,2.08540483 C48.3158736,2.22922585 48.7233665,2.38103693 49.1228693,2.54083807 L48.651456,3.73135653 L48.651456,3.73135653 Z M25.4003906,2.9243608 L25.0088778,1.7018821 C25.4163707,1.57404119 25.8318537,1.44620028 26.2473366,1.33433949 L26.5909091,2.56480824 C26.1993963,2.67666903 25.7919034,2.79651989 25.4003906,2.9243608 L25.4003906,2.9243608 Z M46.2943892,2.89240057 C45.8948864,2.76455966 45.4953835,2.65269886 45.0958807,2.54083807 L45.4314631,1.31036932 C45.846946,1.42223011 46.262429,1.55007102 46.6699219,1.67791193 L46.2943892,2.89240057 L46.2943892,2.89240057 Z M27.8053977,2.25319602 L27.5097656,1.00674716 C27.9252486,0.90287642 28.3487216,0.814985795 28.7721946,0.72709517 L29.0278764,1.98153409 C28.6123935,2.06942472 28.2049006,2.15731534 27.8053977,2.25319602 L27.8053977,2.25319602 Z M43.8893821,2.22922585 C43.4898793,2.13334517 43.0743963,2.04545455 42.6669034,1.96555398 L42.9145952,0.711115057 C43.3380682,0.791015625 43.7615412,0.886896307 44.1770241,0.982776989 L43.8893821,2.22922585 Z M30.2503551,1.7578125 L30.0426136,0.495383523 C30.4660866,0.423473011 30.8975497,0.359552557 31.3210227,0.311612216 L31.4808239,1.58203125 C31.073331,1.62997159 30.657848,1.69389205 30.2503551,1.7578125 L30.2503551,1.7578125 Z M41.4364347,1.74183239 C41.0289418,1.67791193 40.6134588,1.61399148 40.1979759,1.56605114 L40.357777,0.295632102 C40.78125,0.3515625 41.2127131,0.407492898 41.6361861,0.479403409 L41.4364347,1.74183239 L41.4364347,1.74183239 Z M32.7272727,1.44620028 L32.6154119,0.17578125 C33.046875,0.135830966 33.4783381,0.103870739 33.9098011,0.0799005682 L33.9817116,1.35830966 C33.5582386,1.37428977 33.1347656,1.40625 32.7272727,1.44620028 L32.7272727,1.44620028 Z M38.959517,1.43821023 C38.5440341,1.39825994 38.1285511,1.37428977 37.7130682,1.3503196 L37.7769886,0.0719105114 C38.2084517,0.0958806818 38.6399148,0.127840909 39.0713778,0.159801136 L38.959517,1.43821023 Z M35.2201705,1.31036932 L35.1962003,0.0319602273 C35.4279119,0.0239701705 35.6676136,0.0239701705 35.8993253,0.0239701705 C36.0990767,0.0239701705 36.2988281,0.0239701705 36.4905895,0.0319602273 L36.4666193,1.31036932 C36.274858,1.31036932 36.0751065,1.30237926 35.8833452,1.30237926 C35.6676136,1.30237926 35.443892,1.30237926 35.2201705,1.31036932 L35.2201705,1.31036932 Z" id="形状" fill="#0A0408"></path>
                <polyline id="路径" fill="#FFFFFF" points="35.9073153 30.8176491 35.9073153 56.8732244 11.4497514 50.1775568 11.4497514 25.7199929"></polyline>
                <polygon id="路径" fill="#0A0408" points="36.5465199 57.7121804 10.8105469 50.6649503 10.8105469 25.7199929 12.088956 25.7199929 12.088956 49.6901634 35.2681108 56.0342685 35.2681108 30.8176491 36.5465199 30.8176491"></polygon>
                <polyline id="路径" fill="#EBB866" points="30.6338778 34.9884588 30.6338778 48.8991477 16.7231889 45.9987571 16.7231889 32.0960582"></polyline>
                <polyline id="路径" fill="#55B7A8" points="35.8913352 30.8176491 35.8913352 56.8732244 60.3488991 50.1775568 60.3488991 25.7199929"></polyline>
                <polygon id="路径" fill="#0A0408" points="35.2521307 57.7121804 35.2521307 30.8176491 36.5305398 30.8176491 36.5305398 56.0342685 59.7096946 49.6901634 59.7096946 25.7199929 60.9881037 25.7199929 60.9881037 50.6649503"></polygon>
                <polygon id="路径" fill="#FFFFFF" points="36.0671165 30.4261364 11.6095526 25.3284801 36.0671165 19.2080966 60.5326705 25.3284801"></polygon>
                <path d="M12.1049361,26.0795455 L8.74911222,25.3844105 L12.0729759,24.5534446 L12.1289062,24.7851562 L12.368608,24.8330966 L12.2647372,25.3125 L12.3845881,25.7919034 L12.1528764,25.8478338 L12.1049361,26.0795455 Z M58.5351562,25.4882812 L57.3126776,25.1846591 L57.6242898,23.9462003 L58.8467685,24.2498224 L58.5351562,25.4882812 Z M13.6070668,25.4882812 L13.2954545,24.2498224 L14.5179332,23.9462003 L14.8295455,25.1846591 L13.6070668,25.4882812 Z M16.0520241,24.8730469 L15.7404119,23.6345881 L16.9628906,23.3309659 L17.2745028,24.5694247 L16.0520241,24.8730469 Z M56.0901989,24.8730469 L54.8677202,24.5694247 L55.1793324,23.3309659 L56.4018111,23.6345881 L56.0901989,24.8730469 Z M53.6452415,24.2658026 L52.4227628,23.9621804 L52.734375,22.7237216 L53.9568537,23.0273438 L53.6452415,24.2658026 Z M18.4969815,24.2658026 L18.1853693,23.0273438 L19.407848,22.7237216 L19.7194602,23.9621804 L18.4969815,24.2658026 Z M51.2002841,23.6505682 L49.9778054,23.346946 L50.2894176,22.1084872 L51.5118963,22.4121094 L51.2002841,23.6505682 Z M20.9419389,23.6505682 L20.6303267,22.4121094 L21.8528054,22.1084872 L22.1644176,23.346946 L20.9419389,23.6505682 Z M23.3868963,23.0433239 L23.0752841,21.8048651 L24.2977628,21.5012429 L24.609375,22.7397017 L23.3868963,23.0433239 Z M48.7553267,23.0433239 L47.532848,22.7397017 L47.8444602,21.5012429 L49.0669389,21.8048651 L48.7553267,23.0433239 Z M46.3103693,22.4280895 L45.0878906,22.1244673 L45.3995028,20.8860085 L46.6219815,21.1896307 L46.3103693,22.4280895 Z M25.8318537,22.4280895 L25.5202415,21.1896307 L26.7427202,20.8860085 L27.0543324,22.1244673 L25.8318537,22.4280895 Z M43.8574219,21.8208452 L42.6349432,21.517223 L42.9465554,20.2787642 L44.1690341,20.5823864 L43.8574219,21.8208452 Z M28.2768111,21.8208452 L27.9651989,20.5823864 L29.1876776,20.2787642 L29.4992898,21.517223 L28.2768111,21.8208452 Z M30.7217685,21.2056108 L30.4101563,19.967152 L31.6326349,19.6635298 L31.9442472,20.9019886 L30.7217685,21.2056108 Z M41.4124645,21.2056108 L40.1899858,20.9019886 L40.501598,19.6635298 L41.7240767,19.967152 L41.4124645,21.2056108 Z M38.9675071,20.5983665 L37.7450284,20.2947443 L38.0566406,19.0562855 L39.2791193,19.3599077 L38.9675071,20.5983665 Z M33.1667259,20.5983665 L32.8551136,19.3599077 L34.0775923,19.0562855 L34.3892045,20.2947443 L33.1667259,20.5983665 Z M35.6116832,19.9831321 L35.300071,18.7446733 L36.0671165,18.5529119 L36.8341619,18.7446733 L36.5225497,19.9831321 L36.0671165,19.8712713 L35.6116832,19.9831321 L35.6116832,19.9831321 Z M60.0372869,26.0795455 L59.9893466,25.8478338 L59.7576349,25.7919034 L59.8774858,25.3125 L59.7736151,24.8330966 L60.0053267,24.7851562 L60.0612571,24.5534446 L63.3931108,25.3844105 L60.0372869,26.0795455 Z" id="形状" fill="#0A0408"></path>
                <path d="M36.0671165,31.073331 L35.3240412,30.9215199 L35.5877131,29.667081 L36.0671165,29.7709517 L36.5465199,29.667081 L36.8101918,30.9215199 L36.0671165,31.073331 Z M38.0326705,30.6658381 L37.7689986,29.4113991 L38.9914773,29.1637074 L39.2551491,30.4181463 L38.0326705,30.6658381 L38.0326705,30.6658381 Z M34.1095526,30.6658381 L32.8870739,30.4101562 L33.1507457,29.1557173 L34.3732244,29.4113991 L34.1095526,30.6658381 Z M40.4776278,30.1544744 L40.213956,28.9000355 L41.4364347,28.6443537 L41.7001065,29.8987926 L40.4776278,30.1544744 Z M31.6645952,30.1544744 L30.4421165,29.8987926 L30.7057884,28.6443537 L31.928267,28.9000355 L31.6645952,30.1544744 Z M42.9225852,29.6511009 L42.6589134,28.3966619 L43.881392,28.1409801 L44.1450639,29.395419 L42.9225852,29.6511009 Z M29.2196378,29.6511009 L27.9971591,29.395419 L28.260831,28.1409801 L29.4833097,28.3966619 L29.2196378,29.6511009 Z M45.3675426,29.1397372 L45.1038707,27.8852983 L46.3263494,27.6296165 L46.5900213,28.8840554 L45.3675426,29.1397372 Z M26.7746804,29.1397372 L25.5522017,28.8840554 L25.8158736,27.6296165 L27.0383523,27.8852983 L26.7746804,29.1397372 Z M47.8125,28.6283736 L47.5488281,27.3739347 L48.7713068,27.1182528 L49.0349787,28.3726918 L47.8125,28.6283736 Z M24.329723,28.6283736 L23.1072443,28.3726918 L23.3709162,27.1182528 L24.5933949,27.3739347 L24.329723,28.6283736 Z M50.2574574,28.1170099 L49.9937855,26.862571 L51.2162642,26.6068892 L51.4799361,27.8613281 L50.2574574,28.1170099 L50.2574574,28.1170099 Z M21.8847656,28.1170099 L20.6622869,27.8613281 L20.9259588,26.6068892 L22.1484375,26.862571 L21.8847656,28.1170099 Z M52.7024148,27.6136364 L52.4387429,26.3591974 L53.6612216,26.1035156 L53.9248935,27.3579545 L52.7024148,27.6136364 Z M19.4398082,27.6136364 L18.2173295,27.3579545 L18.4810014,26.1035156 L19.7034801,26.3591974 L19.4398082,27.6136364 Z M55.1473722,27.1022727 L54.8837003,25.8478338 L56.106179,25.592152 L56.3698509,26.8465909 L55.1473722,27.1022727 Z M16.9948509,27.1022727 L15.7723722,26.8465909 L16.036044,25.592152 L17.2585227,25.8478338 L16.9948509,27.1022727 Z M57.5923295,26.5909091 L57.3286577,25.3364702 L58.5511364,25.0807884 L58.8148082,26.3352273 L57.5923295,26.5909091 Z M14.5498935,26.5909091 L13.3274148,26.3352273 L13.5910866,25.0807884 L14.8135653,25.3364702 L14.5498935,26.5909091 Z" id="形状" fill="#0A0408"></path>
                <polygon id="路径" fill="#FFFFFF" points="9.28444602 23.6425781 13.1196733 23.6425781 13.1196733 27.4778054 9.28444602 27.4778054"></polygon>
                <path d="M13.7588778,28.1170099 L8.64524148,28.1170099 L8.64524148,23.0033736 L13.7588778,23.0033736 L13.7588778,28.1170099 Z M9.92365057,26.8386009 L12.4804687,26.8386009 L12.4804687,24.2817827 L9.92365057,24.2817827 L9.92365057,26.8386009 Z" id="形状" fill="#0A0408"></path>
                <polygon id="路径" fill="#FFFFFF" points="58.8307884 23.6425781 62.6660156 23.6425781 62.6660156 27.4778054 58.8307884 27.4778054"></polygon>
                <path d="M63.3052202,28.1170099 L58.1915838,28.1170099 L58.1915838,23.0033736 L63.3052202,23.0033736 L63.3052202,28.1170099 Z M59.4699929,26.8386009 L62.0268111,26.8386009 L62.0268111,24.2817827 L59.4699929,24.2817827 L59.4699929,26.8386009 Z" id="形状" fill="#0A0408"></path>
                <polygon id="路径" fill="#FFFFFF" points="34.1495028 54.9556108 37.9847301 54.9556108 37.9847301 58.7908381 34.1495028 58.7908381"></polygon>
                <path d="M38.6239347,59.4300426 L33.5102983,59.4300426 L33.5102983,54.3164062 L38.6239347,54.3164062 L38.6239347,59.4300426 Z M34.7887074,58.1516335 L37.3455256,58.1516335 L37.3455256,55.5948153 L34.7887074,55.5948153 L34.7887074,58.1516335 Z" id="形状" fill="#0A0408"></path>
                <polygon id="路径" fill="#FFFFFF" points="9.53213778 48.2599432 13.3673651 48.2599432 13.3673651 52.0951705 9.53213778 52.0951705"></polygon>
                <path d="M14.0065696,52.734375 L8.89293324,52.734375 L8.89293324,47.6207386 L14.0065696,47.6207386 L14.0065696,52.734375 Z M10.1713423,51.4559659 L12.7281605,51.4559659 L12.7281605,48.8991477 L10.1713423,48.8991477 L10.1713423,51.4559659 Z" id="形状" fill="#0A0408"></path>
                <polygon id="路径" fill="#FFFFFF" points="58.8307884 48.2599432 62.6660156 48.2599432 62.6660156 52.0951705 58.8307884 52.0951705"></polygon>
                <path d="M63.3052202,52.734375 L58.1915838,52.734375 L58.1915838,47.6207386 L63.3052202,47.6207386 L63.3052202,52.734375 Z M59.4699929,51.4559659 L62.0268111,51.4559659 L62.0268111,48.8991477 L59.4699929,48.8991477 L59.4699929,51.4559659 Z" id="形状" fill="#0A0408"></path>
                <polygon id="路径" fill="#FFFFFF" points="34.1495028 17.290483 37.9847301 17.290483 37.9847301 21.1257102 34.1495028 21.1257102"></polygon>
                <path d="M38.6239347,21.7649148 L33.5102983,21.7649148 L33.5102983,16.6512784 L38.6239347,16.6512784 L38.6239347,21.7649148 Z M34.7887074,20.4865057 L37.3455256,20.4865057 L37.3455256,17.9296875 L34.7887074,17.9296875 L34.7887074,20.4865057 Z" id="形状" fill="#0A0408"></path>
                <polygon id="路径" fill="#DC444A" points="34.037642 28.3886719 38.104581 28.3886719 38.104581 32.4556108 34.037642 32.4556108"></polygon>
                <path d="M38.7437855,33.0948153 L33.3984375,33.0948153 L33.3984375,27.7494673 L38.7437855,27.7494673 L38.7437855,33.0948153 L38.7437855,33.0948153 Z M34.6768466,31.8164062 L37.4653764,31.8164062 L37.4653764,29.0278764 L34.6768466,29.0278764 L34.6768466,31.8164062 Z" id="形状" fill="#0A0408"></path>
            </g>
        </g>
    </g>
</svg>