<?xml version="1.0" encoding="UTF-8"?>
<svg width="65px" height="65px" viewBox="0 0 65 65" version="1.1" xmlns="http://www.w3.org/2000/svg" xmlns:xlink="http://www.w3.org/1999/xlink">
    <!-- Generator: Sketch 55.1 (78136) - https://sketchapp.com -->
    <title>shangwu</title>
    <desc>Created with Sketch.</desc>
    <g id="赤兔官网" stroke="none" stroke-width="1" fill="none" fill-rule="evenodd">
        <g id="5关于我们" transform="translate(-194.000000, -1894.000000)" fill-rule="nonzero">
            <g id="shangwu" transform="translate(194.000000, 1894.000000)">
                <path d="M23.7472441,38.0624277 L24.9934097,38.0624277 L24.9934097,39.3162857 L23.7472441,39.3162857 L23.7472441,38.0624277 Z M22.5010784,39.3162857 L21.2549128,39.3162857 L21.2549128,38.0624277 L22.5010784,38.0624277 L22.5010784,39.3162857 Z M20.0165357,39.3162857 L18.77037,39.3162857 L18.77037,38.0624277 L20.0165357,38.0624277 L20.0165357,39.3162857 Z M17.5242044,39.3162857 L16.2780387,39.3162857 L16.2780387,38.0624277 L17.5242044,38.0624277 L17.5242044,39.3162857 Z M15.0318731,39.3162857 L13.7857074,39.3162857 L13.7857074,38.0624277 L15.0318731,38.0624277 L15.0318731,39.3162857 Z M12.5395418,39.3162857 L11.2933762,39.3162857 L11.2933762,38.0624277 L12.5395418,38.0624277 L12.5395418,39.3162857 Z M10.0472105,39.3162857 L8.80104486,39.3162857 L8.80104486,38.0624277 L10.0472105,38.0624277 L10.0472105,39.3162857 Z M7.56266775,39.3162857 L6.31650211,39.3162857 L6.31650211,38.0624277 L7.56266775,38.0624277 L7.56266775,39.3162857 Z M3.82417082,38.0624277 L5.07033646,38.0624277 L5.07033646,39.3162857 L3.82417082,39.3162857 L3.82417082,38.0624277 Z M5.07033646,36.8320795 L3.82417082,36.8320795 L3.82417082,35.6017313 L5.07033646,35.6017313 L5.07033646,36.8320795 Z M5.07033646,34.3635465 L3.82417082,34.3635465 L3.82417082,33.1331983 L5.07033646,33.1331983 L5.07033646,34.3635465 Z M5.07033646,31.8950135 L3.82417082,31.8950135 L3.82417082,30.6646653 L5.07033646,30.6646653 L5.07033646,31.8950135 Z M5.07033646,29.4264805 L3.82417082,29.4264805 L3.82417082,28.1961323 L5.07033646,28.1961323 L5.07033646,29.4264805 Z M5.07033646,26.9579475 L3.82417082,26.9579475 L3.82417082,25.7275993 L5.07033646,25.7275993 L5.07033646,26.9579475 Z M5.07033646,24.4894145 L3.82417082,24.4894145 L3.82417082,23.2590664 L5.07033646,23.2590664 L5.07033646,24.4894145 Z M5.07033646,22.0208816 L3.82417082,22.0208816 L3.82417082,20.7905334 L5.07033646,20.7905334 L5.07033646,22.0208816 Z M5.07033646,19.5523486 L3.82417082,19.5523486 L3.82417082,18.3220004 L5.07033646,18.3220004 L5.07033646,19.5523486 Z M5.07033646,17.0838156 L3.82417082,17.0838156 L3.82417082,15.8534674 L5.07033646,15.8534674 L5.07033646,17.0838156 Z M5.07033646,14.6231192 L3.82417082,14.6231192 L3.82417082,13.392771 L5.07033646,13.392771 L5.07033646,14.6231192 Z M3.82417082,10.9007282 L5.07033646,10.9007282 L5.07033646,12.1545862 L3.82417082,12.1545862 L3.82417082,10.9007282 Z M22.5010784,12.1545862 L21.2549128,12.1545862 L21.2549128,10.9007282 L22.5010784,10.9007282 L22.5010784,12.1545862 Z M20.0165357,12.1545862 L18.77037,12.1545862 L18.77037,10.9007282 L20.0165357,10.9007282 L20.0165357,12.1545862 Z M17.5242044,12.1545862 L16.2780387,12.1545862 L16.2780387,10.9007282 L17.5242044,10.9007282 L17.5242044,12.1545862 Z M15.0318731,12.1545862 L13.7857074,12.1545862 L13.7857074,10.9007282 L15.0318731,10.9007282 L15.0318731,12.1545862 Z M12.5395418,12.1545862 L11.2933762,12.1545862 L11.2933762,10.9007282 L12.5395418,10.9007282 L12.5395418,12.1545862 Z M10.0472105,12.1545862 L8.80104486,12.1545862 L8.80104486,10.9007282 L10.0472105,10.9007282 L10.0472105,12.1545862 Z M7.56266775,12.1545862 L6.31650211,12.1545862 L6.31650211,10.9007282 L7.56266775,10.9007282 L7.56266775,12.1545862 Z M23.7472441,10.9007282 L24.9934097,10.9007282 L24.9934097,12.1545862 L23.7472441,12.1545862 L23.7472441,10.9007282 Z M24.9934097,36.8320795 L23.7472441,36.8320795 L23.7472441,35.6017313 L24.9934097,35.6017313 L24.9934097,36.8320795 Z M24.9934097,34.3635465 L23.7472441,34.3635465 L23.7472441,33.1331983 L24.9934097,33.1331983 L24.9934097,34.3635465 Z M24.9934097,31.8950135 L23.7472441,31.8950135 L23.7472441,30.6646653 L24.9934097,30.6646653 L24.9934097,31.8950135 Z M24.9934097,29.4264805 L23.7472441,29.4264805 L23.7472441,28.1961323 L24.9934097,28.1961323 L24.9934097,29.4264805 Z M24.9934097,26.9579475 L23.7472441,26.9579475 L23.7472441,25.7275993 L24.9934097,25.7275993 L24.9934097,26.9579475 Z M24.9934097,24.4894145 L23.7472441,24.4894145 L23.7472441,23.2590664 L24.9934097,23.2590664 L24.9934097,24.4894145 Z M24.9934097,22.0208816 L23.7472441,22.0208816 L23.7472441,20.7905334 L24.9934097,20.7905334 L24.9934097,22.0208816 Z M24.9934097,19.5523486 L23.7472441,19.5523486 L23.7472441,18.3220004 L24.9934097,18.3220004 L24.9934097,19.5523486 Z M24.9934097,17.0838156 L23.7472441,17.0838156 L23.7472441,15.8534674 L24.9934097,15.8534674 L24.9934097,17.0838156 Z M24.9934097,14.6231192 L23.7472441,14.6231192 L23.7472441,13.392771 L24.9934097,13.392771 L24.9934097,14.6231192 Z M59.4343127,45.7579813 L60.6804783,45.7579813 L60.6804783,47.0118393 L59.4343127,47.0118393 L59.4343127,45.7579813 Z M58.1959356,47.0118393 L56.9497699,47.0118393 L56.9497699,45.7579813 L58.1959356,45.7579813 L58.1959356,47.0118393 Z M55.7036043,47.0118393 L54.4574387,47.0118393 L54.4574387,45.7579813 L55.7036043,45.7579813 L55.7036043,47.0118393 Z M53.211273,47.0118393 L51.9651074,47.0118393 L51.9651074,45.7579813 L53.211273,45.7579813 L53.211273,47.0118393 Z M50.7189417,47.0118393 L49.4727761,47.0118393 L49.4727761,45.7579813 L50.7189417,45.7579813 L50.7189417,47.0118393 Z M48.2266104,47.0118393 L46.9804448,47.0118393 L46.9804448,45.7579813 L48.2266104,45.7579813 L48.2266104,47.0118393 Z M45.7420677,47.0118393 L44.495902,47.0118393 L44.495902,45.7579813 L45.7420677,45.7579813 L45.7420677,47.0118393 Z M43.2497364,47.0118393 L42.0035707,47.0118393 L42.0035707,45.7579813 L43.2497364,45.7579813 L43.2497364,47.0118393 Z M39.5112395,45.7579813 L40.7574051,45.7579813 L40.7574051,47.0118393 L39.5112395,47.0118393 L39.5112395,45.7579813 Z M40.7574051,44.5197965 L39.5112395,44.5197965 L39.5112395,43.2894483 L40.7574051,43.2894483 L40.7574051,44.5197965 Z M40.7574051,42.0591001 L39.5112395,42.0591001 L39.5112395,40.8287519 L40.7574051,40.8287519 L40.7574051,42.0591001 Z M40.7574051,39.5905671 L39.5112395,39.5905671 L39.5112395,38.3602189 L40.7574051,38.3602189 L40.7574051,39.5905671 Z M40.7574051,37.1220341 L39.5112395,37.1220341 L39.5112395,35.891686 L40.7574051,35.891686 L40.7574051,37.1220341 Z M40.7574051,34.6535012 L39.5112395,34.6535012 L39.5112395,33.423153 L40.7574051,33.423153 L40.7574051,34.6535012 Z M40.7574051,32.1849682 L39.5112395,32.1849682 L39.5112395,30.95462 L40.7574051,30.95462 L40.7574051,32.1849682 Z M40.7574051,29.7164352 L39.5112395,29.7164352 L39.5112395,28.486087 L40.7574051,28.486087 L40.7574051,29.7164352 Z M40.7574051,27.2479022 L39.5112395,27.2479022 L39.5112395,26.017554 L40.7574051,26.017554 L40.7574051,27.2479022 L40.7574051,27.2479022 Z M40.7574051,24.7793692 L39.5112395,24.7793692 L39.5112395,23.549021 L40.7574051,23.549021 L40.7574051,24.7793692 Z M40.7574051,22.3108362 L39.5112395,22.3108362 L39.5112395,21.080488 L40.7574051,21.080488 L40.7574051,22.3108362 L40.7574051,22.3108362 Z M39.5112395,18.5884452 L40.7574051,18.5884452 L40.7574051,19.8423032 L39.5112395,19.8423032 L39.5112395,18.5884452 Z M58.1959356,19.8423032 L56.9497699,19.8423032 L56.9497699,18.5884452 L58.1959356,18.5884452 L58.1959356,19.8423032 Z M55.7036043,19.8423032 L54.4574387,19.8423032 L54.4574387,18.5884452 L55.7036043,18.5884452 L55.7036043,19.8423032 Z M53.211273,19.8423032 L51.9651074,19.8423032 L51.9651074,18.5884452 L53.211273,18.5884452 L53.211273,19.8423032 Z M50.7189417,19.8423032 L49.4727761,19.8423032 L49.4727761,18.5884452 L50.7189417,18.5884452 L50.7189417,19.8423032 Z M48.2266104,19.8423032 L46.9804448,19.8423032 L46.9804448,18.5884452 L48.2266104,18.5884452 L48.2266104,19.8423032 Z M45.7420677,19.8423032 L44.495902,19.8423032 L44.495902,18.5884452 L45.7420677,18.5884452 L45.7420677,19.8423032 Z M43.2497364,19.8423032 L42.0035707,19.8423032 L42.0035707,18.5884452 L43.2497364,18.5884452 L43.2497364,19.8423032 Z M59.4343127,18.5884452 L60.6804783,18.5884452 L60.6804783,19.8423032 L59.4343127,19.8423032 L59.4343127,18.5884452 Z M60.6804783,44.5197965 L59.4343127,44.5197965 L59.4343127,43.2894483 L60.6804783,43.2894483 L60.6804783,44.5197965 Z M60.6804783,42.0591001 L59.4343127,42.0591001 L59.4343127,40.8287519 L60.6804783,40.8287519 L60.6804783,42.0591001 Z M60.6804783,39.5905671 L59.4343127,39.5905671 L59.4343127,38.3602189 L60.6804783,38.3602189 L60.6804783,39.5905671 Z M60.6804783,37.1220341 L59.4343127,37.1220341 L59.4343127,35.891686 L60.6804783,35.891686 L60.6804783,37.1220341 Z M60.6804783,34.6535012 L59.4343127,34.6535012 L59.4343127,33.423153 L60.6804783,33.423153 L60.6804783,34.6535012 Z M60.6804783,32.1849682 L59.4343127,32.1849682 L59.4343127,30.95462 L60.6804783,30.95462 L60.6804783,32.1849682 Z M60.6804783,29.7164352 L59.4343127,29.7164352 L59.4343127,28.486087 L60.6804783,28.486087 L60.6804783,29.7164352 Z M60.6804783,27.2479022 L59.4343127,27.2479022 L59.4343127,26.017554 L60.6804783,26.017554 L60.6804783,27.2479022 L60.6804783,27.2479022 Z M60.6804783,24.7793692 L59.4343127,24.7793692 L59.4343127,23.549021 L60.6804783,23.549021 L60.6804783,24.7793692 Z M60.6804783,22.3108362 L59.4343127,22.3108362 L59.4343127,21.080488 L60.6804783,21.080488 L60.6804783,22.3108362 L60.6804783,22.3108362 Z" id="形状" fill="#0A0408"></path>
                <polygon id="路径" fill="#FFFFFF" points="11.6750144 0.689621914 53.0788679 0.689621914 53.0788679 42.3490548 11.6750144 42.3490548"></polygon>
                <path d="M53.7019507,42.9759838 L11.0519316,42.9759838 L11.0519316,0.0626929012 L53.7019507,0.0626929012 L53.7019507,42.9759838 Z M12.2980972,41.7221258 L52.4557851,41.7221258 L52.4557851,1.31655093 L12.2980972,1.31655093 L12.2980972,41.7221258 Z" id="形状" fill="#0A0408"></path>
                <polygon id="路径" fill="#55B7A8" points="16.2079419 5.25053048 48.5381518 5.25053048 48.5381518 37.7803096 16.2079419 37.7803096"></polygon>
                <path d="M22.8126198,10.9085648 L38.0236292,10.9085648 L38.0236292,12.1624228 L22.8126198,12.1624228 L22.8126198,10.9085648 Z M22.3998275,18.7921971 L42.3540548,18.7921971 L42.3540548,20.0460552 L22.3998275,20.0460552 L22.3998275,18.7921971 Z M22.3998275,26.8168885 L42.3540548,26.8168885 L42.3540548,28.0707465 L22.3998275,28.0707465 L22.3998275,26.8168885 Z" id="形状" fill="#0A0408"></path>
                <polygon id="路径" fill="#FFFFFF" points="60.1119153 64.1818576 4.63417849 64.1818576 0.739910851 31.6285687 64.0061829 31.6285687"></polygon>
                <path d="M60.6649013,64.8087867 L4.08119248,64.8087867 L0.0389426764,31.0016397 L64.7149396,31.0016397 L60.6649013,64.8087867 Z M5.18716449,63.5549286 L59.5589293,63.5549286 L63.3052147,32.2554977 L1.44087903,32.2554977 L5.18716449,63.5549286 Z" id="形状" fill="#0A0408"></path>
                <polygon id="路径" fill="#F4BE6F" points="55.5011024 60.1460021 9.25277991 60.1460021 6.0049607 35.6565876 58.7489216 35.6565876"></polygon>
                <path d="M4.44725364,42.3725646 L16.4649636,42.3725646 L16.4649636,43.6264226 L4.44725364,43.6264226 L4.44725364,42.3725646 Z M4.44725364,48.5007957 L24.5650403,48.5007957 L24.5650403,49.7546537 L4.44725364,49.7546537 L4.44725364,48.5007957 Z" id="形状" fill="#FFFFFF"></path>
                <polygon id="路径" fill="#DC444A" points="58.0791076 17.2248746 62.043472 17.2248746 62.043472 21.2137105 58.0791076 21.2137105"></polygon>
                <path d="M62.6665548,21.8406395 L57.4560247,21.8406395 L57.4560247,16.5979456 L62.6665548,16.5979456 L62.6665548,21.8406395 L62.6665548,21.8406395 Z M58.7021904,20.5867814 L61.4203892,20.5867814 L61.4203892,17.8518036 L58.7021904,17.8518036 L58.7021904,20.5867814 Z" id="形状" fill="#0A0408"></path>
                <polygon id="路径" fill="#DC444A" points="2.46117715 9.54499421 6.4255416 9.54499421 6.4255416 13.5338301 2.46117715 13.5338301"></polygon>
                <path d="M7.04862442,14.1607591 L1.83809433,14.1607591 L1.83809433,8.9180652 L7.04862442,8.9180652 L7.04862442,14.1607591 Z M3.08425997,12.906901 L5.80245878,12.906901 L5.80245878,10.1719232 L3.08425997,10.1719232 L3.08425997,12.906901 Z" id="形状" fill="#0A0408"></path>
            </g>
        </g>
    </g>
</svg>