<?xml version="1.0" encoding="UTF-8"?>
<svg width="64px" height="68px" viewBox="0 0 64 68" version="1.1" xmlns="http://www.w3.org/2000/svg" xmlns:xlink="http://www.w3.org/1999/xlink">
    <!-- Generator: Sketch 55.1 (78136) - https://sketchapp.com -->
    <title>yixiang</title>
    <desc>Created with Sketch.</desc>
    <g id="赤兔官网" stroke="none" stroke-width="1" fill="none" fill-rule="evenodd">
        <g id="5关于我们" transform="translate(-778.000000, -1892.000000)" fill-rule="nonzero">
            <g id="yixiang" transform="translate(778.000000, 1892.000000)">
                <path d="M0.647590361,33.7799107 C0.647590361,45.0511618 6.61385299,55.4662274 16.2989455,61.101853 C25.9840381,66.7374786 37.9165643,66.7374786 47.6016569,61.101853 C57.2867494,55.4662274 63.253012,45.0511618 63.253012,33.7799107 C63.253012,16.3560665 49.238311,2.23125 31.9503012,2.23125 C14.6622914,2.23125 0.647590361,16.3560665 0.647590361,33.7799107 L0.647590361,33.7799107 Z" id="路径" fill="#FFFFFF"></path>
                <path d="M31.9503012,65.9357143 C27.6430723,65.9357143 23.4638554,65.0857143 19.5331325,63.4084821 C15.7304217,61.7919643 12.3192771,59.4696429 9.39006024,56.5174107 C6.46084337,53.5651786 4.15662651,50.1272321 2.55271084,46.2946429 C0.888554217,42.3330357 0.0451807229,38.1209821 0.0451807229,33.7799107 C0.0451807229,29.4388393 0.888554217,25.2267857 2.55271084,21.2651786 C4.15662651,17.4325893 6.46084337,13.9946429 9.39006024,11.0424107 C12.3192771,8.09017857 15.7304217,5.76785714 19.5331325,4.15133929 C23.4638554,2.47410714 27.6430723,1.62410714 31.9503012,1.62410714 C36.2575301,1.62410714 40.436747,2.47410714 44.3674699,4.15133929 C48.1701807,5.76785714 51.5813253,8.09017857 54.5105422,11.0424107 C57.439759,13.9946429 59.7439759,17.4325893 61.3478916,21.2651786 C63.0120482,25.2267857 63.8554217,29.4388393 63.8554217,33.7799107 C63.8554217,38.1209821 63.0120482,42.3330357 61.3478916,46.2946429 C59.7439759,50.1272321 57.439759,53.5651786 54.5105422,56.5174107 C51.5813253,59.4696429 48.1701807,61.7919643 44.3674699,63.4084821 C40.436747,65.0857143 36.2575301,65.9357143 31.9503012,65.9357143 Z M31.9503012,2.83839286 C27.8087349,2.83839286 23.7876506,3.65803571 20,5.26696429 C16.3478916,6.82276786 13.064759,9.05401786 10.2409639,11.9 C7.4246988,14.7383929 5.21084337,18.0473214 3.65963855,21.7357143 C2.05572289,25.553125 1.25,29.5982143 1.25,33.7799107 C1.25,37.9540179 2.06325301,42.0066964 3.65963855,45.8241071 C5.20331325,49.5049107 7.41716867,52.8138393 10.2409639,55.6598214 C13.0572289,58.4982143 16.3403614,60.7294643 20,62.2928571 C23.7876506,63.909375 27.8012048,64.7214286 31.9503012,64.7214286 C36.0993976,64.7214286 40.1129518,63.9017857 43.9006024,62.2928571 C47.5527108,60.7370536 50.8358434,58.5058036 53.6596386,55.6598214 C56.4834337,52.8138393 58.689759,49.5125 60.2409639,45.8241071 C61.8448795,42.0066964 62.6506024,37.9616071 62.6506024,33.7799107 C62.6506024,29.6058036 61.8373494,25.553125 60.2409639,21.7357143 C58.6972892,18.0549107 56.4834337,14.7459821 53.6596386,11.9 C50.8433735,9.06160714 47.560241,6.83035714 43.9006024,5.26696429 C40.1204819,3.65803571 36.0993976,2.83839286 31.9503012,2.83839286 Z" id="形状" fill="#0A0408"></path>
                <path d="M6.98042169,33.7799107 C6.98042169,47.6787482 18.1598175,58.9459821 31.9503012,58.9459821 C45.7407849,58.9459821 56.9201807,47.6787482 56.9201807,33.7799107 C56.9201807,19.8810733 45.7407849,8.61383929 31.9503012,8.61383929 C18.1598175,8.61383929 6.98042169,19.8810733 6.98042169,33.7799107 Z" id="路径" fill="#55B7A8"></path>
                <path d="M31.9578313,65.9357143 C31.9503012,65.9357143 31.9503012,65.9357143 31.9578313,65.9357143 C31.7771084,65.9357143 31.5888554,65.928125 31.4081325,65.9129464 L31.5060241,64.70625 C31.6566265,64.7214286 31.8072289,64.7214286 31.9578313,64.7214286 C32.1686747,64.7214286 32.3795181,64.70625 32.5903614,64.6834821 L32.7259036,65.8901786 C32.4623494,65.9205357 32.2063253,65.9357143 31.9578313,65.9357143 L31.9578313,65.9357143 Z M30.1129518,65.6852679 C29.7063253,65.5714286 29.2921687,65.4196429 28.8930723,65.2375 L29.3975904,64.1370536 C29.7364458,64.2964286 30.0828313,64.4254464 30.4292169,64.5165179 L30.1129518,65.6852679 Z M33.998494,65.6245536 L33.6521084,64.4633929 C33.9909639,64.3571429 34.3373494,64.2205357 34.6762048,64.0535714 L35.2108434,65.1388393 C34.811747,65.3361607 34.4051205,65.503125 33.998494,65.6245536 Z M27.7635542,64.6075893 C27.4171687,64.3799107 27.0783133,64.121875 26.7394578,63.8410714 L27.5075301,62.9075893 C27.8087349,63.1580357 28.1099398,63.3857143 28.4186747,63.5830357 L27.7635542,64.6075893 Z M36.3177711,64.4861607 L35.6400602,63.484375 C35.9412651,63.2794643 36.2424699,63.0441964 36.5361446,62.7861607 L37.3268072,63.7044643 C36.9954819,63.9928571 36.6566265,64.2508929 36.3177711,64.4861607 L36.3177711,64.4861607 Z M25.813253,62.9758929 C25.5271084,62.6875 25.248494,62.36875 24.9698795,62.0424107 L25.8960843,61.2607143 C26.1521084,61.5642857 26.4081325,61.8602679 26.6716867,62.1258929 L25.813253,62.9758929 L25.813253,62.9758929 Z M38.2379518,62.8316964 L37.3644578,61.9892857 C37.6204819,61.7160714 37.876506,61.4200893 38.1325301,61.1165179 L39.0662651,61.8830357 C38.7951807,62.2169643 38.5165663,62.5357143 38.2379518,62.8316964 Z M24.2093373,61.0482143 C23.9759036,60.721875 23.7424699,60.3727679 23.5090361,60.0160714 L24.5256024,59.3633929 C24.7364458,59.7049107 24.9623494,60.03125 25.1807229,60.3348214 L24.2093373,61.0482143 L24.2093373,61.0482143 Z M39.8192771,60.88125 L38.8328313,60.1754464 C39.0512048,59.8642857 39.2695783,59.5379464 39.4804217,59.1964286 L40.5045181,59.8415179 C40.2786145,60.2058036 40.0451807,60.5549107 39.8192771,60.88125 L39.8192771,60.88125 Z M22.876506,58.9535714 C22.6807229,58.6044643 22.4849398,58.2325893 22.2891566,57.8607143 L23.3659639,57.3066964 C23.5466867,57.6633929 23.7349398,58.0200893 23.9231928,58.3540179 L22.876506,58.9535714 Z M41.1295181,58.7714286 L40.0753012,58.1794643 C40.2635542,57.8455357 40.4442771,57.4888393 40.625,57.1321429 L41.7018072,57.6785714 C41.5210843,58.0504464 41.3253012,58.4223214 41.1295181,58.7714286 L41.1295181,58.7714286 Z M21.7545181,56.7450893 C21.5888554,56.3808036 21.4231928,56.0013393 21.2650602,55.6142857 L22.3795181,55.14375 C22.5301205,55.515625 22.6957831,55.8799107 22.8539157,56.2366071 L21.7545181,56.7450893 Z M42.2364458,56.5553571 L41.1370482,56.0544643 C41.2951807,55.6977679 41.4533133,55.3334821 41.6039157,54.9616071 L42.7183735,55.4245536 C42.560241,55.8040179 42.4021084,56.1910714 42.2364458,56.5553571 Z M20.8057229,54.4607143 C20.6626506,54.08125 20.5271084,53.6941964 20.3915663,53.2995536 L21.5286145,52.9049107 C21.6566265,53.284375 21.7921687,53.6638393 21.935241,54.028125 L20.8057229,54.4607143 Z M43.1701807,54.2709821 L42.0406627,53.8459821 C42.1762048,53.4741071 42.311747,53.1022321 42.439759,52.7151786 L43.5843373,53.1022321 C43.4487952,53.5044643 43.3057229,53.8915179 43.1701807,54.2709821 Z M20.0075301,52.1308036 C19.8870482,51.74375 19.7665663,51.3491071 19.6611446,50.9544643 L20.8207831,50.6205357 C20.9337349,51.0075893 21.0466867,51.3946429 21.1596386,51.7665179 L20.0075301,52.1308036 L20.0075301,52.1308036 Z M43.9533133,51.9410714 L42.8012048,51.584375 C42.9141566,51.2049107 43.0271084,50.8178571 43.1400602,50.4308036 L44.2996988,50.7571429 C44.186747,51.1517857 44.0737952,51.5540179 43.9533133,51.9410714 L43.9533133,51.9410714 Z M19.3373494,49.7705357 C19.2394578,49.3834821 19.1415663,48.98125 19.0436747,48.5790179 L20.2183735,48.3058036 C20.3087349,48.7004464 20.4066265,49.0875 20.5045181,49.4745536 L19.3373494,49.7705357 L19.3373494,49.7705357 Z M44.6159639,49.5732143 L43.4487952,49.2772321 C43.5466867,48.8901786 43.6370482,48.503125 43.7274096,48.1084821 L44.9021084,48.3816964 C44.811747,48.7763393 44.7138554,49.1785714 44.6159639,49.5732143 L44.6159639,49.5732143 Z M18.7876506,47.3723214 C18.7048193,46.9776786 18.621988,46.5754464 18.5466867,46.165625 L19.7289157,45.9379464 C19.8042169,46.3325893 19.8795181,46.7272321 19.9623494,47.1142857 L18.7876506,47.3723214 Z M45.1581325,47.175 L43.9759036,46.9321429 C44.0587349,46.5450893 44.1340361,46.1504464 44.2018072,45.7558036 L45.3840361,45.9758929 C45.3162651,46.378125 45.2409639,46.7803571 45.1581325,47.175 L45.1581325,47.175 Z M18.3358434,44.9665179 C18.2680723,44.571875 18.2078313,44.1620536 18.1475904,43.7522321 L19.3373494,43.5776786 C19.3975904,43.9723214 19.4578313,44.3745536 19.5256024,44.7691964 L18.3358434,44.9665179 L18.3358434,44.9665179 Z M45.6024096,44.7616071 L44.4126506,44.5642857 C44.4728916,44.1772321 44.5331325,43.775 44.5933735,43.3727679 L45.7831325,43.5473214 C45.7304217,43.9571429 45.6626506,44.3669643 45.6024096,44.7616071 L45.6024096,44.7616071 Z M17.9819277,42.5379464 C17.9292169,42.1357143 17.8840361,41.7258929 17.8388554,41.3236607 L19.0361446,41.1946429 C19.0813253,41.596875 19.126506,41.9915179 19.1716867,42.3861607 L17.9819277,42.5379464 Z M45.9487952,42.3330357 L44.751506,42.18125 C44.7966867,41.7866071 44.8418675,41.384375 44.8870482,40.9821429 L46.0843373,41.1111607 C46.0391566,41.5285714 45.9939759,41.9383929 45.9487952,42.3330357 L45.9487952,42.3330357 Z M17.7183735,40.1017857 C17.6807229,39.6995536 17.6506024,39.2897321 17.6204819,38.8799107 L18.8253012,38.7964286 C18.8554217,39.1986607 18.8855422,39.6008929 18.9231928,39.9955357 L17.7183735,40.1017857 L17.7183735,40.1017857 Z M46.1972892,39.896875 L45,39.790625 C45.0376506,39.3883929 45.0677711,38.9861607 45.0903614,38.5915179 L46.2951807,38.675 C46.2650602,39.0772321 46.2349398,39.4870536 46.1972892,39.896875 L46.1972892,39.896875 Z M17.5451807,37.6580357 C17.5225904,37.2558036 17.5075301,36.8383929 17.4924699,36.4361607 L18.6972892,36.390625 C18.7123494,36.7928571 18.7274096,37.1950893 18.75,37.5897321 L17.5451807,37.6580357 L17.5451807,37.6580357 Z M46.3704819,37.453125 L45.1656627,37.3924107 C45.188253,36.9977679 45.2033133,36.5879464 45.2183735,36.1857143 L46.4231928,36.2236607 C46.4081325,36.6334821 46.3855422,37.0508929 46.3704819,37.453125 L46.3704819,37.453125 Z M17.4623494,35.2066964 C17.4548193,34.796875 17.4472892,34.3870536 17.4472892,33.9848214 L18.6521084,33.9848214 C18.6521084,34.3870536 18.6596386,34.7892857 18.6671687,35.1915179 L17.4623494,35.2066964 Z M46.4457831,35.0017857 L45.2409639,34.9790179 C45.248494,34.5767857 45.248494,34.1745536 45.248494,33.7723214 L45.248494,33.3700893 L46.4533133,33.3625 L46.4533133,33.7723214 C46.4608434,34.1897321 46.4533133,34.5995536 46.4457831,35.0017857 Z M18.6596386,32.778125 L17.4548193,32.7629464 C17.4623494,32.353125 17.4698795,31.9433036 17.4849398,31.5410714 L18.689759,31.5790179 C18.6746988,31.9660714 18.6596386,32.3758929 18.6596386,32.778125 Z M45.2334337,32.1785714 C45.2259036,31.7763393 45.2108434,31.3741071 45.1957831,30.971875 L46.4006024,30.9263393 C46.4156627,31.3285714 46.4307229,31.7459821 46.438253,32.1482143 L45.2334337,32.1785714 Z M18.7274096,30.3647321 L17.5225904,30.3040179 C17.5451807,29.8941964 17.5677711,29.484375 17.5903614,29.0821429 L18.7951807,29.1580357 C18.7725904,29.5602679 18.75,29.9700893 18.7274096,30.3647321 L18.7274096,30.3647321 Z M45.1430723,29.7727679 C45.1204819,29.3705357 45.0903614,28.9683036 45.0677711,28.5736607 L46.2725904,28.4825893 C46.3027108,28.8848214 46.3328313,29.2946429 46.3554217,29.7044643 L45.1430723,29.7727679 Z M18.8855422,27.9665179 L17.688253,27.8678571 C17.7183735,27.4580357 17.7560241,27.0482143 17.8012048,26.6459821 L18.998494,26.7674107 C18.9608434,27.1620536 18.9231928,27.5642857 18.8855422,27.9665179 Z M44.9623494,27.3669643 C44.9246988,26.9647321 44.8870482,26.5625 44.8418675,26.1678571 L46.0391566,26.03125 C46.0843373,26.4334821 46.121988,26.8433036 46.1596386,27.253125 L44.9623494,27.3669643 Z M19.126506,25.5683036 L17.9292169,25.4241071 C17.9743976,25.021875 18.0271084,24.6120536 18.0873494,24.2098214 L19.2771084,24.3767857 C19.2319277,24.7714286 19.1792169,25.1736607 19.126506,25.5683036 L19.126506,25.5683036 Z M44.6987952,24.9763393 C44.6460843,24.5816964 44.5933735,24.1794643 44.5331325,23.7848214 L45.7228916,23.6026786 C45.7831325,24.0049107 45.8358434,24.4147321 45.8885542,24.8169643 L44.6987952,24.9763393 L44.6987952,24.9763393 Z M19.4578313,23.1852679 L18.2680723,22.9955357 C18.3358434,22.5933036 18.4036145,22.1834821 18.4713855,21.7888393 L19.6536145,22.0013393 C19.5933735,22.3959821 19.5256024,22.790625 19.4578313,23.1852679 L19.4578313,23.1852679 Z M44.3448795,22.6008929 C44.2771084,22.20625 44.2093373,21.8040179 44.1340361,21.4169643 L45.3162651,21.1892857 C45.3915663,21.5839286 45.4668675,21.99375 45.5346386,22.3959821 L44.3448795,22.6008929 L44.3448795,22.6008929 Z M19.8870482,20.825 L18.7048193,20.5821429 C18.7876506,20.1799107 18.8704819,19.7776786 18.9608434,19.3830357 L20.1355422,19.6486607 C20.0451807,20.0357143 19.9623494,20.4303571 19.8870482,20.825 Z M43.9006024,20.240625 C43.8177711,19.8459821 43.7274096,19.4513393 43.6370482,19.071875 L44.811747,18.7910714 C44.9021084,19.1857143 44.9924699,19.5879464 45.0828313,19.9901786 L43.9006024,20.240625 L43.9006024,20.240625 Z M20.4066265,18.4799107 L19.2394578,18.1839286 C19.3373494,17.7816964 19.4427711,17.3870536 19.5481928,16.9924107 L20.7078313,17.31875 C20.6099398,17.6982143 20.5045181,18.0928571 20.4066265,18.4799107 L20.4066265,18.4799107 Z M43.3509036,17.903125 C43.2454819,17.5160714 43.1400602,17.1214286 43.0346386,16.7495536 L44.1942771,16.415625 C44.3072289,16.8026786 44.4126506,17.2049107 44.5180723,17.5995536 L43.3509036,17.903125 L43.3509036,17.903125 Z M21.0466867,16.1651786 L19.8945783,15.8084821 C20.0150602,15.4138393 20.1355422,15.0191964 20.2635542,14.6321429 L21.4081325,15.0191964 C21.2801205,15.3986607 21.1596386,15.7857143 21.0466867,16.1651786 L21.0466867,16.1651786 Z M42.688253,15.6035714 C42.5677711,15.2241071 42.439759,14.8370536 42.311747,14.4651786 L43.4487952,14.0629464 C43.5843373,14.4424107 43.7123494,14.8370536 43.8328313,15.2316964 L42.688253,15.6035714 L42.688253,15.6035714 Z M21.7996988,13.8959821 L20.6701807,13.4785714 C20.813253,13.0915179 20.9638554,12.7044643 21.1069277,12.325 L22.2213855,12.7803571 C22.0783133,13.1446429 21.935241,13.5165179 21.7996988,13.8959821 Z M41.8975904,13.3419643 C41.7545181,12.9700893 41.6039157,12.5982143 41.4533133,12.2339286 L42.560241,11.7633929 C42.7183735,12.1352679 42.8689759,12.5223214 43.0195783,12.909375 L41.8975904,13.3419643 L41.8975904,13.3419643 Z M22.688253,11.6875 L21.5888554,11.1941964 C21.7545181,10.8147321 21.935241,10.4352679 22.1084337,10.0709821 L23.1927711,10.6098214 C23.0195783,10.9513393 22.8463855,11.315625 22.688253,11.6875 L22.688253,11.6875 Z M40.9713855,11.1486607 C40.8057229,10.784375 40.625,10.4276786 40.4518072,10.0785714 L41.5210843,9.51696429 C41.7093373,9.87366071 41.8900602,10.2455357 42.063253,10.625 L40.9713855,11.1486607 L40.9713855,11.1486607 Z M23.7274096,9.55491071 L22.6731928,8.97053571 C22.876506,8.59866071 23.0798193,8.24196429 23.2906627,7.89285714 L24.314759,8.53035714 C24.1189759,8.85669643 23.9231928,9.19821429 23.7274096,9.55491071 L23.7274096,9.55491071 Z M39.8870482,9.03883929 C39.6837349,8.68973214 39.4804217,8.35580357 39.2695783,8.02946429 L40.2786145,7.36919643 C40.496988,7.71071429 40.7153614,8.06741071 40.9262048,8.43169643 L39.8870482,9.03883929 Z M24.9623494,7.53616071 L23.9759036,6.84553571 C24.2168675,6.49642857 24.4653614,6.15491071 24.7138554,5.83616071 L25.6551205,6.59508929 C25.4216867,6.89107143 25.188253,7.20982143 24.9623494,7.53616071 Z M38.6069277,7.065625 C38.373494,6.746875 38.125,6.43571429 37.8840361,6.14732143 L38.7951807,5.35803571 C39.0587349,5.66919643 39.3222892,5.99553571 39.5707831,6.34464286 L38.6069277,7.065625 Z M26.4081325,5.70714286 L25.5271084,4.8875 C25.8207831,4.56875 26.121988,4.27276786 26.4231928,3.99955357 L27.2289157,4.90267857 C26.9503012,5.14553571 26.6792169,5.41875 26.4081325,5.70714286 L26.4081325,5.70714286 Z M37.1009036,5.29732143 C36.8222892,5.01651786 36.5361446,4.75848214 36.25,4.53080357 L37.003012,3.58214286 C37.3192771,3.84017857 37.6355422,4.12098214 37.9442771,4.43214286 L37.1009036,5.29732143 Z M28.1099398,4.18169643 L27.4096386,3.19508929 C27.7710843,2.93705357 28.1325301,2.709375 28.501506,2.51964286 L29.0587349,3.59732143 C28.75,3.76428571 28.4262048,3.96160714 28.1099398,4.18169643 L28.1099398,4.18169643 Z M35.3237952,3.87053571 C35,3.665625 34.6686747,3.49107143 34.3373494,3.346875 L34.811747,2.23125 C35.1957831,2.39821429 35.5798193,2.603125 35.9563253,2.83080357 L35.3237952,3.87053571 Z M30.0828313,3.15714286 L29.6987952,2.00357143 C30.1204819,1.859375 30.5421687,1.76071429 30.9713855,1.7 L31.1445783,2.89910714 C30.7906627,2.95223214 30.4292169,3.03571429 30.0828313,3.15714286 L30.0828313,3.15714286 Z M33.2981928,3.00535714 C32.9442771,2.921875 32.5828313,2.86875 32.2213855,2.85357143 L32.2816265,1.63928571 C32.7108434,1.66205357 33.1475904,1.72276786 33.5768072,1.82901786 L33.2981928,3.00535714 Z" id="形状" fill="#0A0408"></path>
                <path d="M62.1009036,34.3870536 L60.8960843,34.3870536 L60.8960843,33.1727679 L62.1009036,33.1727679 L62.1009036,34.3870536 Z M59.6912651,34.3870536 L58.4864458,34.3870536 L58.4864458,33.1727679 L59.6912651,33.1727679 L59.6912651,34.3870536 Z M57.2816265,34.3870536 L56.0768072,34.3870536 L56.0768072,33.1727679 L57.2816265,33.1727679 L57.2816265,34.3870536 Z M54.871988,34.3870536 L53.6671687,34.3870536 L53.6671687,33.1727679 L54.871988,33.1727679 L54.871988,34.3870536 Z M52.4623494,34.3870536 L51.2575301,34.3870536 L51.2575301,33.1727679 L52.4623494,33.1727679 L52.4623494,34.3870536 Z M50.0527108,34.3870536 L48.8478916,34.3870536 L48.8478916,33.1727679 L50.0527108,33.1727679 L50.0527108,34.3870536 Z M47.6430723,34.3870536 L46.438253,34.3870536 L46.438253,33.1727679 L47.6430723,33.1727679 L47.6430723,34.3870536 Z M45.2334337,34.3870536 L44.0286145,34.3870536 L44.0286145,33.1727679 L45.2334337,33.1727679 L45.2334337,34.3870536 Z M42.8237952,34.3870536 L41.6189759,34.3870536 L41.6189759,33.1727679 L42.8237952,33.1727679 L42.8237952,34.3870536 Z M40.4141566,34.3870536 L39.2093373,34.3870536 L39.2093373,33.1727679 L40.4141566,33.1727679 L40.4141566,34.3870536 Z M38.0045181,34.3870536 L36.7996988,34.3870536 L36.7996988,33.1727679 L38.0045181,33.1727679 L38.0045181,34.3870536 Z M35.5948795,34.3870536 L34.3900602,34.3870536 L34.3900602,33.1727679 L35.5948795,33.1727679 L35.5948795,34.3870536 Z M33.185241,34.3870536 L31.9804217,34.3870536 L31.9804217,33.1727679 L33.185241,33.1727679 L33.185241,34.3870536 Z M30.7756024,34.3870536 L29.5707831,34.3870536 L29.5707831,33.1727679 L30.7756024,33.1727679 L30.7756024,34.3870536 Z M28.3659639,34.3870536 L27.1611446,34.3870536 L27.1611446,33.1727679 L28.3659639,33.1727679 L28.3659639,34.3870536 Z M25.9563253,34.3870536 L24.751506,34.3870536 L24.751506,33.1727679 L25.9563253,33.1727679 L25.9563253,34.3870536 Z M23.5466867,34.3870536 L22.3418675,34.3870536 L22.3418675,33.1727679 L23.5466867,33.1727679 L23.5466867,34.3870536 Z M21.1370482,34.3870536 L19.9322289,34.3870536 L19.9322289,33.1727679 L21.1370482,33.1727679 L21.1370482,34.3870536 Z M18.7274096,34.3870536 L17.5225904,34.3870536 L17.5225904,33.1727679 L18.7274096,33.1727679 L18.7274096,34.3870536 Z M16.3177711,34.3870536 L15.1129518,34.3870536 L15.1129518,33.1727679 L16.3177711,33.1727679 L16.3177711,34.3870536 Z M13.9081325,34.3870536 L12.7033133,34.3870536 L12.7033133,33.1727679 L13.9081325,33.1727679 L13.9081325,34.3870536 Z M11.498494,34.3870536 L10.2936747,34.3870536 L10.2936747,33.1727679 L11.498494,33.1727679 L11.498494,34.3870536 Z M9.08885542,34.3870536 L7.88403614,34.3870536 L7.88403614,33.1727679 L9.08885542,33.1727679 L9.08885542,34.3870536 Z M6.67921687,34.3870536 L5.47439759,34.3870536 L5.47439759,33.1727679 L6.67921687,33.1727679 L6.67921687,34.3870536 Z M4.26957831,34.3870536 L3.06475904,34.3870536 L3.06475904,33.1727679 L4.26957831,33.1727679 L4.26957831,34.3870536 Z M1.85993976,34.3870536 L0.655120482,34.3870536 L0.655120482,33.1727679 L1.85993976,33.1727679 L1.85993976,34.3870536 Z M58.689759,18.7986607 L58.2228916,18.7986607 L58.2228916,17.584375 L58.689759,17.584375 L58.689759,18.7986607 Z M57.0180723,18.7986607 L55.813253,18.7986607 L55.813253,17.584375 L57.0180723,17.584375 L57.0180723,18.7986607 Z M54.6084337,18.7986607 L53.4036145,18.7986607 L53.4036145,17.584375 L54.6084337,17.584375 L54.6084337,18.7986607 Z M52.1987952,18.7986607 L50.9939759,18.7986607 L50.9939759,17.584375 L52.1987952,17.584375 L52.1987952,18.7986607 Z M49.7891566,18.7986607 L48.5843373,18.7986607 L48.5843373,17.584375 L49.7891566,17.584375 L49.7891566,18.7986607 Z M47.3795181,18.7986607 L46.1746988,18.7986607 L46.1746988,17.584375 L47.3795181,17.584375 L47.3795181,18.7986607 Z M44.9698795,18.7986607 L43.7650602,18.7986607 L43.7650602,17.584375 L44.9698795,17.584375 L44.9698795,18.7986607 Z M42.560241,18.7986607 L41.3554217,18.7986607 L41.3554217,17.584375 L42.560241,17.584375 L42.560241,18.7986607 Z M40.1506024,18.7986607 L38.9457831,18.7986607 L38.9457831,17.584375 L40.1506024,17.584375 L40.1506024,18.7986607 Z M37.7409639,18.7986607 L36.5361446,18.7986607 L36.5361446,17.584375 L37.7409639,17.584375 L37.7409639,18.7986607 Z M35.3313253,18.7986607 L34.126506,18.7986607 L34.126506,17.584375 L35.3313253,17.584375 L35.3313253,18.7986607 Z M32.9216867,18.7986607 L31.7168675,18.7986607 L31.7168675,17.584375 L32.9216867,17.584375 L32.9216867,18.7986607 Z M30.5120482,18.7986607 L29.3072289,18.7986607 L29.3072289,17.584375 L30.5120482,17.584375 L30.5120482,18.7986607 Z M28.1024096,18.7986607 L26.8975904,18.7986607 L26.8975904,17.584375 L28.1024096,17.584375 L28.1024096,18.7986607 Z M25.6927711,18.7986607 L24.4879518,18.7986607 L24.4879518,17.584375 L25.6927711,17.584375 L25.6927711,18.7986607 Z M23.2831325,18.7986607 L22.0783133,18.7986607 L22.0783133,17.584375 L23.2831325,17.584375 L23.2831325,18.7986607 Z M20.873494,18.7986607 L19.6686747,18.7986607 L19.6686747,17.584375 L20.873494,17.584375 L20.873494,18.7986607 Z M18.4638554,18.7986607 L17.2590361,18.7986607 L17.2590361,17.584375 L18.4638554,17.584375 L18.4638554,18.7986607 Z M16.0542169,18.7986607 L14.8493976,18.7986607 L14.8493976,17.584375 L16.0542169,17.584375 L16.0542169,18.7986607 Z M13.6445783,18.7986607 L12.439759,18.7986607 L12.439759,17.584375 L13.6445783,17.584375 L13.6445783,18.7986607 Z M11.2349398,18.7986607 L10.0301205,18.7986607 L10.0301205,17.584375 L11.2349398,17.584375 L11.2349398,18.7986607 Z M8.8253012,18.7986607 L7.62048193,18.7986607 L7.62048193,17.584375 L8.8253012,17.584375 L8.8253012,18.7986607 Z M6.41566265,18.7986607 L5.21084337,18.7986607 L5.21084337,17.584375 L6.41566265,17.584375 L6.41566265,18.7986607 Z M58.689759,49.9754464 L58.2228916,49.9754464 L58.2228916,48.7611607 L58.689759,48.7611607 L58.689759,49.9754464 Z M57.0180723,49.9754464 L55.813253,49.9754464 L55.813253,48.7611607 L57.0180723,48.7611607 L57.0180723,49.9754464 Z M54.6084337,49.9754464 L53.4036145,49.9754464 L53.4036145,48.7611607 L54.6084337,48.7611607 L54.6084337,49.9754464 Z M52.1987952,49.9754464 L50.9939759,49.9754464 L50.9939759,48.7611607 L52.1987952,48.7611607 L52.1987952,49.9754464 Z M49.7891566,49.9754464 L48.5843373,49.9754464 L48.5843373,48.7611607 L49.7891566,48.7611607 L49.7891566,49.9754464 Z M47.3795181,49.9754464 L46.1746988,49.9754464 L46.1746988,48.7611607 L47.3795181,48.7611607 L47.3795181,49.9754464 Z M44.9698795,49.9754464 L43.7650602,49.9754464 L43.7650602,48.7611607 L44.9698795,48.7611607 L44.9698795,49.9754464 Z M42.560241,49.9754464 L41.3554217,49.9754464 L41.3554217,48.7611607 L42.560241,48.7611607 L42.560241,49.9754464 Z M40.1506024,49.9754464 L38.9457831,49.9754464 L38.9457831,48.7611607 L40.1506024,48.7611607 L40.1506024,49.9754464 Z M37.7409639,49.9754464 L36.5361446,49.9754464 L36.5361446,48.7611607 L37.7409639,48.7611607 L37.7409639,49.9754464 Z M35.3313253,49.9754464 L34.126506,49.9754464 L34.126506,48.7611607 L35.3313253,48.7611607 L35.3313253,49.9754464 Z M32.9216867,49.9754464 L31.7168675,49.9754464 L31.7168675,48.7611607 L32.9216867,48.7611607 L32.9216867,49.9754464 Z M30.5120482,49.9754464 L29.3072289,49.9754464 L29.3072289,48.7611607 L30.5120482,48.7611607 L30.5120482,49.9754464 Z M28.1024096,49.9754464 L26.8975904,49.9754464 L26.8975904,48.7611607 L28.1024096,48.7611607 L28.1024096,49.9754464 Z M25.6927711,49.9754464 L24.4879518,49.9754464 L24.4879518,48.7611607 L25.6927711,48.7611607 L25.6927711,49.9754464 Z M23.2831325,49.9754464 L22.0783133,49.9754464 L22.0783133,48.7611607 L23.2831325,48.7611607 L23.2831325,49.9754464 Z M20.873494,49.9754464 L19.6686747,49.9754464 L19.6686747,48.7611607 L20.873494,48.7611607 L20.873494,49.9754464 Z M18.4638554,49.9754464 L17.2590361,49.9754464 L17.2590361,48.7611607 L18.4638554,48.7611607 L18.4638554,49.9754464 Z M16.0542169,49.9754464 L14.8493976,49.9754464 L14.8493976,48.7611607 L16.0542169,48.7611607 L16.0542169,49.9754464 Z M13.6445783,49.9754464 L12.439759,49.9754464 L12.439759,48.7611607 L13.6445783,48.7611607 L13.6445783,49.9754464 Z M11.2349398,49.9754464 L10.0301205,49.9754464 L10.0301205,48.7611607 L11.2349398,48.7611607 L11.2349398,49.9754464 Z M8.8253012,49.9754464 L7.62048193,49.9754464 L7.62048193,48.7611607 L8.8253012,48.7611607 L8.8253012,49.9754464 Z M6.41566265,49.9754464 L5.21084337,49.9754464 L5.21084337,48.7611607 L6.41566265,48.7611607 L6.41566265,49.9754464 Z" id="形状" fill="#0A0408"></path>
                <path d="M54.3448795,31.1236607 C54.3448795,36.6486607 44.4126506,44.9133929 44.4126506,44.9133929 C44.4126506,44.9133929 34.4804217,36.6486607 34.4804217,31.1236607 C34.4804217,25.5986607 38.9231928,21.1133929 44.4126506,21.1133929 C49.9021084,21.1133929 54.3448795,25.5986607 54.3448795,31.1236607 L54.3448795,31.1236607 Z" id="路径" fill="#EBB866"></path>
                <path d="M44.4126506,45.6950893 L44.0286145,45.3763393 C43.6144578,45.0348214 33.878012,36.86875 33.878012,31.1236607 C33.878012,25.2723214 38.5993976,20.50625 44.4126506,20.50625 C50.2259036,20.50625 54.9472892,25.2723214 54.9472892,31.1236607 C54.9472892,36.86875 45.2108434,45.0348214 44.7966867,45.3763393 L44.4126506,45.6950893 L44.4126506,45.6950893 Z M44.4126506,21.7205357 C39.2695783,21.7205357 35.0828313,25.9401786 35.0828313,31.1236607 C35.0828313,33.2258929 36.7394578,36.1857143 39.8795181,39.6691964 C41.7394578,41.7334821 43.621988,43.4258929 44.4051205,44.1089286 C45.1957831,43.4258929 47.0707831,41.7334821 48.9307229,39.6691964 C52.0707831,36.178125 53.7274501,33.2258929 53.7274501,31.1236607 C53.7424699,25.9401786 49.5557229,21.7205357 44.4126506,21.7205357 L44.4126506,21.7205357 Z" id="形状" fill="#0A0408"></path>
                <path d="M44.4126506,32.3986607 C42.7033133,32.3986607 41.3177711,30.9946429 41.3177711,29.2794643 C41.3177711,27.5566964 42.7108434,26.1602679 44.4126506,26.1602679 C46.1144578,26.1602679 47.5075301,27.5642857 47.5075301,29.2794643 L46.3027108,29.2794643 C46.3027108,28.2245536 45.4518072,27.3745536 44.4126506,27.3745536 C43.373494,27.3745536 42.5225904,28.2321429 42.5225904,29.2794643 C42.5225904,30.3267857 43.373494,31.184375 44.4126506,31.184375 L44.4126506,32.3986607 Z" id="路径" fill="#0A0408"></path>
                <path d="M44.4126506,37.4303571 C42.7033133,37.4303571 41.3177711,36.0263393 41.3177711,34.3111607 L42.5225904,34.3111607 C42.5225904,35.3660714 43.373494,36.2160714 44.4126506,36.2160714 C45.4518072,36.2160714 46.3027108,35.3584821 46.3027108,34.3111607 C46.3027108,33.2638393 45.4518072,32.40625 44.4126506,32.40625 L44.4126506,31.1919643 C46.121988,31.1919643 47.5075301,32.5959821 47.5075301,34.3111607 C47.5075301,36.0263393 46.121988,37.4303571 44.4126506,37.4303571 Z" id="路径" fill="#0A0408"></path>
                <polygon id="路径" fill="#0A0408" points="43.810241 24.9839286 45.0150602 24.9839286 45.0150602 38.5459821 43.810241 38.5459821"></polygon>
                <path d="M44.4954819,51.159375 L44.3298193,51.159375 C43.3885542,51.159375 42.628012,50.3928571 42.628012,49.4441964 L42.628012,49.2772321 C42.628012,48.3285714 43.3885542,47.5620536 44.3298193,47.5620536 L44.4954819,47.5620536 C45.436747,47.5620536 46.1972892,48.3285714 46.1972892,49.2772321 L46.1972892,49.4441964 C46.189759,50.3928571 45.4292169,51.159375 44.4954819,51.159375 Z" id="路径" fill="#FFFFFF"></path>
                <path d="M44.4954819,51.7665179 L44.3298193,51.7665179 C43.064759,51.7665179 42.0256024,50.7267857 42.0256024,49.4441964 L42.0256024,49.2772321 C42.0256024,48.0022321 43.0572289,46.9549107 44.3298193,46.9549107 L44.4954819,46.9549107 C45.7605422,46.9549107 46.7996988,47.9946429 46.7996988,49.2772321 L46.7996988,49.4441964 C46.7921687,50.7267857 45.7605422,51.7665179 44.4954819,51.7665179 Z M44.3298193,48.1767857 C43.7274096,48.1767857 43.2304217,48.6700893 43.2304217,49.2848214 L43.2304217,49.4517857 C43.2304217,50.0589286 43.7198795,50.5598214 44.3298193,50.5598214 L44.4954819,50.5598214 C45.0978916,50.5598214 45.5948795,50.0665179 45.5948795,49.4517857 L45.5948795,49.2848214 C45.5948795,48.6776786 45.1054217,48.1767857 44.4954819,48.1767857 L44.3298193,48.1767857 Z" id="形状" fill="#0A0408"></path>
                <path d="M32.0331325,67.1196429 L31.8674699,67.1196429 C30.9262048,67.1196429 30.1656627,66.353125 30.1656627,65.4044643 L30.1656627,65.2375 C30.1656627,64.2888393 30.9262048,63.5223214 31.8674699,63.5223214 L32.0331325,63.5223214 C32.9743976,63.5223214 33.7349398,64.2888393 33.7349398,65.2375 L33.7349398,65.4044643 C33.7349398,66.353125 32.9743976,67.1196429 32.0331325,67.1196429 Z" id="路径" fill="#DC444A"></path>
                <path d="M32.0331325,67.7267857 L31.8674699,67.7267857 C30.6024096,67.7267857 29.563253,66.6870536 29.563253,65.4044643 L29.563253,65.2375 C29.563253,63.9625 30.5948795,62.9151786 31.8674699,62.9151786 L32.0331325,62.9151786 C33.2981928,62.9151786 34.3373494,63.9549107 34.3373494,65.2375 L34.3373494,65.4044643 C34.3373494,66.6870536 33.3057229,67.7267857 32.0331325,67.7267857 Z M31.8674699,64.1370536 C31.2650602,64.1370536 30.7680723,64.6303571 30.7680723,65.2450893 L30.7680723,65.4120536 C30.7680723,66.0191964 31.2575301,66.5200893 31.8674699,66.5200893 L32.0331325,66.5200893 C32.6355422,66.5200893 33.1325301,66.0267857 33.1325301,65.4120536 L33.1325301,65.2450893 C33.1325301,64.6379464 32.6430723,64.1370536 32.0331325,64.1370536 L31.8674699,64.1370536 Z" id="形状" fill="#0A0408"></path>
                <path d="M32.0331325,4.21964286 L31.8674699,4.21964286 C30.9262048,4.21964286 30.1656627,3.453125 30.1656627,2.50446429 L30.1656627,2.3375 C30.1656627,1.38883929 30.9262048,0.622321429 31.8674699,0.622321429 L32.0331325,0.622321429 C32.9743976,0.622321429 33.7349398,1.38883929 33.7349398,2.3375 L33.7349398,2.50446429 C33.7349398,3.453125 32.9743976,4.21964286 32.0331325,4.21964286 Z" id="路径" fill="#DC444A"></path>
                <path d="M32.0331325,4.82678571 L31.8674699,4.82678571 C30.6024096,4.82678571 29.563253,3.78705357 29.563253,2.50446429 L29.563253,2.3375 C29.563253,1.0625 30.5948795,0.0151785714 31.8674699,0.0151785714 L32.0331325,0.0151785714 C33.2981928,0.0151785714 34.3373494,1.05491071 34.3373494,2.3375 L34.3373494,2.50446429 C34.3373494,3.78705357 33.3057229,4.82678571 32.0331325,4.82678571 Z M31.8674699,1.23705357 C31.2650602,1.23705357 30.7680723,1.73035714 30.7680723,2.34508929 L30.7680723,2.51205357 C30.7680723,3.11919643 31.2575301,3.62008929 31.8674699,3.62008929 L32.0331325,3.62008929 C32.6355422,3.62008929 33.1325301,3.12678571 33.1325301,2.51205357 L33.1325301,2.34508929 C33.1325301,1.73794643 32.6430723,1.23705357 32.0331325,1.23705357 L31.8674699,1.23705357 Z" id="形状" fill="#0A0408"></path>
            </g>
        </g>
    </g>
</svg>